<svg xmlns="http://www.w3.org/2000/svg" viewBox="0 0 24 24" fill="none" aria-hidden="true">
  <!-- Callback / webhook: dual hooks + HTTP node (common UI metaphor) -->
  <path d="M6.5 8.5c0-1.9 1.6-3.5 3.5-3.5h1.2c1.2 0 2.2.6 2.8 1.5" stroke="#374151" stroke-width="1.65" stroke-linecap="round"/>
  <path d="M17.5 15.5c0 1.9-1.6 3.5-3.5 3.5h-1.2c-1.2 0-2.2-.6-2.8-1.5" stroke="#374151" stroke-width="1.65" stroke-linecap="round"/>
  <path d="M17.5 8.5v-1a2.5 2.5 0 0 0-5 0v1" stroke="#dc2727" stroke-width="1.65" stroke-linecap="round" stroke-linejoin="round"/>
  <path d="M6.5 15.5v1a2.5 2.5 0 0 0 5 0v-1" stroke="#dc2727" stroke-width="1.65" stroke-linecap="round" stroke-linejoin="round"/>
  <rect x="9" y="10" width="6" height="4" rx="1" stroke="#374151" stroke-width="1.5"/>
  <path d="M12 14v2.5" stroke="#dc2727" stroke-width="1.65" stroke-linecap="round"/>
  <circle cx="12" cy="18" r="1.35" fill="#dc2727"/>
</svg>
