<?xml version="1.0" encoding="UTF-8"?>
<svg id="Layer_1" data-name="Layer 1" xmlns="http://www.w3.org/2000/svg" viewBox="0 0 472.44 143.66">
  <defs>
    <style>
      .cls-1 {
        fill: #131521;
      }

      .cls-2 {
        fill: #dc2727;
      }
    </style>
  </defs>
  <g>
    <path class="cls-1" d="M140.42,103.89V34.05h10.14v32.59l29.24-32.59h12.61l-30.89,34.1,33.17,35.74h-13l-31.14-33.37v33.37h-10.14Z"/>
    <path class="cls-1" d="M216.27,105.34c-3.88,0-7.13-.72-9.75-2.16s-4.6-3.35-5.94-5.72c-1.34-2.38-2.01-4.99-2.01-7.83,0-2.65.47-4.98,1.41-6.98.94-2,2.33-3.71,4.17-5.12,1.84-1.41,4.11-2.55,6.79-3.42,2.33-.68,4.96-1.28,7.91-1.79,2.94-.52,6.04-1,9.29-1.46,3.25-.45,6.47-.91,9.68-1.36l-3.69,2.04c.06-4.11-.8-7.15-2.6-9.14-1.79-1.99-4.87-2.98-9.24-2.98-2.75,0-5.27.64-7.57,1.92-2.3,1.28-3.9,3.39-4.8,6.33l-9.46-2.91c1.29-4.49,3.76-8.07,7.4-10.72,3.64-2.65,8.48-3.98,14.53-3.98,4.69,0,8.77.8,12.25,2.4,3.48,1.6,6.02,4.13,7.64,7.59.84,1.71,1.36,3.52,1.55,5.43.19,1.91.29,3.96.29,6.16v32.25h-8.97v-11.98l1.75,1.55c-2.17,4.01-4.92,6.99-8.27,8.95-3.35,1.96-7.46,2.93-12.34,2.93ZM218.06,97.05c2.88,0,5.35-.51,7.42-1.53,2.07-1.02,3.73-2.32,4.99-3.9,1.26-1.58,2.09-3.23,2.47-4.95.55-1.55.86-3.3.95-5.24.08-1.94.12-3.49.12-4.66l3.3,1.21c-3.2.49-6.11.92-8.73,1.31-2.62.39-4.99.77-7.11,1.14-2.12.37-4,.82-5.65,1.33-1.39.49-2.63,1.07-3.71,1.75-1.08.68-1.94,1.5-2.57,2.47s-.95,2.15-.95,3.54.34,2.61,1.02,3.76c.68,1.15,1.71,2.06,3.1,2.74,1.39.68,3.17,1.02,5.33,1.02Z"/>
    <path class="cls-1" d="M256.67,127.17V51.51h9.02v37.68h1.16v37.98h-10.19ZM281.31,105.34c-5.01,0-9.22-1.22-12.61-3.66-3.39-2.44-5.96-5.75-7.71-9.92s-2.62-8.88-2.62-14.11.87-9.94,2.6-14.11c1.73-4.17,4.28-7.46,7.66-9.87,3.38-2.41,7.54-3.61,12.49-3.61s9.16,1.21,12.73,3.61c3.57,2.41,6.33,5.69,8.27,9.85,1.94,4.16,2.91,8.87,2.91,14.14s-.96,9.95-2.88,14.14-4.66,7.49-8.2,9.92c-3.54,2.42-7.75,3.64-12.63,3.64ZM279.9,96.18c3.23,0,5.91-.82,8.03-2.47,2.12-1.65,3.7-3.87,4.75-6.67,1.05-2.8,1.58-5.92,1.58-9.38s-.53-6.53-1.58-9.31c-1.05-2.78-2.66-5-4.83-6.64-2.17-1.65-4.93-2.47-8.29-2.47-3.17,0-5.78.78-7.83,2.33-2.05,1.55-3.57,3.72-4.56,6.5-.99,2.78-1.48,5.98-1.48,9.6s.48,6.82,1.46,9.6c.97,2.78,2.5,4.96,4.61,6.55,2.1,1.58,4.82,2.38,8.15,2.38Z"/>
    <path class="cls-1" d="M309.87,59.66v-8.15h35.79v8.15h-35.79ZM345.66,103.89c-3.3.65-6.53.92-9.7.82-3.17-.1-6-.71-8.49-1.84-2.49-1.13-4.37-2.91-5.63-5.33-1.13-2.17-1.74-4.37-1.82-6.62s-.12-4.79-.12-7.64v-46.32h10.19v45.83c0,2.1.02,3.93.07,5.48s.38,2.86.99,3.93c1.16,2,3.02,3.14,5.55,3.42,2.54.28,5.52.17,8.95-.32v8.58Z"/>
    <path class="cls-1" d="M377.48,105.34c-5.21,0-9.77-1.14-13.7-3.42-3.93-2.28-6.98-5.46-9.17-9.55-2.18-4.09-3.27-8.83-3.27-14.24,0-5.72,1.07-10.69,3.22-14.89s5.15-7.45,9-9.75c3.85-2.29,8.33-3.44,13.44-3.44s9.88,1.24,13.63,3.71c3.75,2.47,6.55,5.99,8.41,10.55,1.86,4.56,2.6,9.98,2.21,16.25h-10.14v-3.69c-.06-6.08-1.22-10.57-3.47-13.48-2.25-2.91-5.67-4.37-10.26-4.37-5.08,0-8.89,1.6-11.45,4.8-2.55,3.2-3.83,7.83-3.83,13.87s1.28,10.21,3.83,13.36,6.24,4.73,11.06,4.73c3.17,0,5.91-.72,8.22-2.16,2.31-1.44,4.11-3.5,5.41-6.18l9.94,3.15c-2.04,4.69-5.12,8.32-9.26,10.89-4.14,2.57-8.75,3.86-13.82,3.86ZM358.81,80.56v-7.91h37.39v7.91h-37.39Z"/>
    <path class="cls-1" d="M425.93,105.34c-3.88,0-7.13-.72-9.75-2.16s-4.6-3.35-5.94-5.72c-1.34-2.38-2.01-4.99-2.01-7.83,0-2.65.47-4.98,1.41-6.98.94-2,2.33-3.71,4.17-5.12,1.84-1.41,4.11-2.55,6.79-3.42,2.33-.68,4.96-1.28,7.91-1.79,2.94-.52,6.04-1,9.29-1.46,3.25-.45,6.47-.91,9.68-1.36l-3.69,2.04c.06-4.11-.8-7.15-2.59-9.14-1.79-1.99-4.88-2.98-9.24-2.98-2.75,0-5.27.64-7.57,1.92-2.29,1.28-3.9,3.39-4.8,6.33l-9.46-2.91c1.29-4.49,3.76-8.07,7.4-10.72,3.64-2.65,8.48-3.98,14.53-3.98,4.69,0,8.77.8,12.25,2.4,3.47,1.6,6.02,4.13,7.64,7.59.84,1.71,1.36,3.52,1.55,5.43.19,1.91.29,3.96.29,6.16v32.25h-8.97v-11.98l1.75,1.55c-2.17,4.01-4.92,6.99-8.27,8.95-3.35,1.96-7.46,2.93-12.34,2.93ZM427.73,97.05c2.88,0,5.35-.51,7.42-1.53,2.07-1.02,3.73-2.32,5-3.9,1.26-1.58,2.09-3.23,2.47-4.95.55-1.55.87-3.3.95-5.24.08-1.94.12-3.49.12-4.66l3.3,1.21c-3.2.49-6.11.92-8.73,1.31-2.62.39-4.99.77-7.11,1.14-2.12.37-4,.82-5.65,1.33-1.39.49-2.63,1.07-3.71,1.75-1.08.68-1.94,1.5-2.57,2.47s-.95,2.15-.95,3.54.34,2.61,1.02,3.76c.68,1.15,1.71,2.06,3.1,2.74,1.39.68,3.17,1.02,5.34,1.02Z"/>
  </g>
  <g>
    <path class="cls-2" d="M117.26,41.13c-.86-2.62-1.82-5-2.87-7.21l-31.1,34.32,32.25,34.74c6.8-18.38,7.66-43.8,1.72-61.85Z"/>
    <path class="cls-2" d="M58.11,64.78l42.46-47.31c-12.51-7.64-28.45-4.35-42.46,4.28v43.03Z"/>
    <path class="cls-2" d="M58.11,73.7v41.64c13.73,8.78,28.68,13.27,38.53,10.16,2.33-.74,4.5-1.95,6.51-3.53l-45.04-48.27Z"/>
    <path class="cls-2" d="M40.82,36.2c-11.44,12.63-18.29,28.21-14.7,40.7,2.46,8.61,7.84,16.91,14.7,24.18V36.2Z"/>
  </g>
</svg>