<?xml version="1.0" encoding="UTF-8"?><svg id="Layer_1" xmlns="http://www.w3.org/2000/svg" viewBox="0 0 472.44 143.66"><defs><style>.cls-1,.cls-2{fill:#fff;}.cls-2{font-family:Manrope-SemiBold, Manrope;font-size:97px;font-variation-settings:'wght' 600;font-weight:600;}.cls-3{letter-spacing:-.02em;}.cls-4{letter-spacing:0em;}</style></defs><text class="cls-2" transform="translate(126.63 103.89)"><tspan x="0" y="0">Kap</tspan><tspan class="cls-3" x="175.28" y="0">t</tspan><tspan class="cls-4" x="213.83" y="0">e</tspan><tspan x="270.72" y="0">a</tspan></text><path class="cls-1" d="M117.26,41.13c-.86-2.62-1.82-5-2.87-7.21l-31.1,34.32,32.25,34.74c6.8-18.38,7.66-43.8,1.72-61.85Z"/><path class="cls-1" d="M58.11,64.78l42.46-47.31c-12.51-7.64-28.45-4.35-42.46,4.28v43.03Z"/><path class="cls-1" d="M58.11,73.7v41.64c13.73,8.78,28.68,13.27,38.53,10.16,2.33-.74,4.5-1.95,6.51-3.53l-45.04-48.27Z"/><path class="cls-1" d="M40.82,36.2c-11.44,12.63-18.29,28.21-14.7,40.7,2.46,8.61,7.84,16.91,14.7,24.18V36.2Z"/></svg>