<svg xmlns="http://www.w3.org/2000/svg" viewBox="0 0 840 560" fill="none">
  <defs>
    <filter id="browser-shadow" x="-4%" y="-2%" width="108%" height="108%">
      <feDropShadow dx="0" dy="8" stdDeviation="20" flood-color="#0F172A" flood-opacity="0.12"/>
    </filter>
    <filter id="card-shadow-sm" x="-8%" y="-6%" width="116%" height="120%">
      <feDropShadow dx="0" dy="2" stdDeviation="4" flood-color="#0F172A" flood-opacity="0.06"/>
    </filter>
    <clipPath id="browser-clip">
      <rect x="20" y="20" width="800" height="520" rx="12"/>
    </clipPath>
  </defs>
  <g filter="url(#browser-shadow)">
    <rect x="20" y="20" width="800" height="520" rx="12" fill="#fff" stroke="#E2E8F0" stroke-width="1"/>
    <rect x="20" y="20" width="800" height="40" rx="12" fill="#F8FAFC"/>
    <rect x="20" y="48" width="800" height="12" fill="#F8FAFC"/>
    <line x1="20" y1="60" x2="820" y2="60" stroke="#E2E8F0" stroke-width="1"/>
    <circle cx="44" cy="40" r="5.5" fill="#EF4444" opacity="0.8"/>
    <circle cx="64" cy="40" r="5.5" fill="#F59E0B" opacity="0.8"/>
    <circle cx="84" cy="40" r="5.5" fill="#22C55E" opacity="0.8"/>
    <rect x="110" y="30" width="500" height="22" rx="6" fill="#fff" stroke="#E2E8F0" stroke-width="1"/>
    <circle cx="126" cy="41" r="4" fill="none" stroke="#94A3B8" stroke-width="1.2"/>
    <rect x="123" y="42" width="6" height="4" rx="1" fill="#94A3B8"/>
    <text x="140" y="45" font-family="Arial, sans-serif" font-size="10" fill="#94A3B8">app.kaptea.com/pronto/overview</text>
    <circle cx="740" cy="41" r="3" fill="#CBD5E1"/><circle cx="760" cy="41" r="3" fill="#CBD5E1"/><circle cx="780" cy="41" r="3" fill="#CBD5E1"/>
  </g>
  <g clip-path="url(#browser-clip)">
    <rect x="20" y="60" width="800" height="480" fill="#fff"/>
    <rect x="20" y="60" width="36" height="480" fill="#131521"/>
    <g transform="translate(24, 64) scale(0.22)">
      <path fill="#dc2727" d="M68.01,25.4c-1.15-.31-2.36-.52-3.64-.63-1.28-.1-2.44-.16-3.48-.16h-28.57v41.33h28.57c1.04,0,2.2-.05,3.48-.16,1.28-.1,2.49-.29,3.64-.55,3.34-.78,6.03-2.23,8.06-4.34,2.04-2.11,3.5-4.55,4.38-7.32.89-2.76,1.33-5.53,1.33-8.3s-.44-5.52-1.33-8.26c-.89-2.74-2.35-5.17-4.38-7.28-2.03-2.11-4.72-3.56-8.06-4.35Z"/>
      <path fill="#dc2727" d="M61.51,9.2c1.1,0,2.45.04,4.07.12,1.62.08,3.16.25,4.62.51,6.26.99,11.49,3.13,15.7,6.42.9.7,1.74,1.46,2.55,2.24C75.57-5.65,51.5-3.45,31.66,9.2h29.84Z"/>
      <path fill="#dc2727" d="M95.33,61.96c-2.09,5.01-5.23,9.16-9.43,12.45-4.2,3.29-9.43,5.43-15.7,6.42-1.46.21-3.01.37-4.66.47-1.64.11-2.99.16-4.03.16h-29.2v20.16c13.99,9.03,29.34,13.68,39.42,10.49,15.25-4.81,23.85-28.95,24.65-53.02-.32.97-.66,1.93-1.05,2.87Z"/>
      <path fill="#dc2727" d="M14.95,23.43C3.73,35.95-2.9,51.26.66,63.58c2.42,8.38,7.63,16.47,14.28,23.6V23.43Z"/>
    </g>
    <g fill="#fff" fill-opacity="0.35"><rect x="30" y="102" width="16" height="2" rx="1"/><rect x="30" y="106" width="10" height="2" rx="1"/><rect x="30" y="110" width="16" height="2" rx="1"/></g>
    <rect x="20" y="122" width="2.5" height="20" rx="1.2" fill="#dc2727"/>

    <text x="72" y="84" font-family="Arial, sans-serif" font-size="16" font-weight="700" fill="#0F172A">Hello, Robert</text>
    <text x="72" y="100" font-family="Arial, sans-serif" font-size="10" fill="#94A3B8">Here's what's happening with your messages today</text>
    <!-- KPI row -->
    <g transform="translate(72, 114)">
      <rect width="168" height="78" rx="10" fill="#fff" filter="url(#card-shadow-sm)" stroke="#F1F5F9" stroke-width="1"/>
      <rect width="168" height="3" rx="1.5" fill="#dc2727" opacity="0.6"/>
      <text x="14" y="22" font-family="Arial, sans-serif" font-size="8" fill="#94A3B8">Total Messages</text>
      <text x="14" y="46" font-family="Arial, sans-serif" font-size="22" font-weight="700" fill="#0F172A">41,940</text>
      <text x="14" y="64" font-family="Arial, sans-serif" font-size="8" fill="#16A34A">&#9650; 21% last 7 days</text>
    </g>
    <g transform="translate(254, 114)">
      <rect width="168" height="78" rx="10" fill="#fff" filter="url(#card-shadow-sm)" stroke="#F1F5F9" stroke-width="1"/>
      <rect width="168" height="3" rx="1.5" fill="#16A34A" opacity="0.6"/>
      <text x="14" y="22" font-family="Arial, sans-serif" font-size="8" fill="#94A3B8">Successfully Delivered</text>
      <text x="14" y="46" font-family="Arial, sans-serif" font-size="22" font-weight="700" fill="#0F172A">38,779</text>
      <text x="14" y="64" font-family="Arial, sans-serif" font-size="8" fill="#16A34A">&#9650; 20% delivery 92.5%</text>
    </g>
    <g transform="translate(436, 114)">
      <rect width="168" height="78" rx="10" fill="#fff" filter="url(#card-shadow-sm)" stroke="#F1F5F9" stroke-width="1"/>
      <rect width="168" height="3" rx="1.5" fill="#F59E0B" opacity="0.6"/>
      <text x="14" y="22" font-family="Arial, sans-serif" font-size="8" fill="#94A3B8">Messages Opened</text>
      <text x="14" y="46" font-family="Arial, sans-serif" font-size="22" font-weight="700" fill="#0F172A">31,689</text>
      <text x="14" y="64" font-family="Arial, sans-serif" font-size="8" fill="#16A34A">&#9650; 18% open rate 81.7%</text>
    </g>
    <g transform="translate(618, 114)">
      <rect width="186" height="78" rx="10" fill="#fff" filter="url(#card-shadow-sm)" stroke="#F1F5F9" stroke-width="1"/>
      <rect width="186" height="3" rx="1.5" fill="#4A90D9" opacity="0.6"/>
      <text x="14" y="22" font-family="Arial, sans-serif" font-size="8" fill="#94A3B8">Click-Through Rate</text>
      <text x="14" y="46" font-family="Arial, sans-serif" font-size="22" font-weight="700" fill="#0F172A">11,453</text>
      <text x="14" y="64" font-family="Arial, sans-serif" font-size="8" fill="#16A34A">&#9650; 24% CTR 29.5%</text>
    </g>
    <!-- Activity chart -->
    <rect x="72" y="206" width="390" height="226" rx="10" fill="#fff" filter="url(#card-shadow-sm)" stroke="#F1F5F9" stroke-width="1"/>
    <text x="88" y="228" font-family="Arial, sans-serif" font-size="11" font-weight="700" fill="#0F172A">Message Activity</text>
    <text x="88" y="242" font-family="Arial, sans-serif" font-size="9" fill="#94A3B8">Last 7 days</text>
    <text x="370" y="230" font-family="Arial, sans-serif" font-size="16" font-weight="700" fill="#0F172A">23,840</text>
    <rect x="88" y="258" width="40" height="118" rx="5" fill="#4A90D9"/><rect x="138" y="250" width="40" height="126" rx="5" fill="#4A90D9"/>
    <rect x="188" y="262" width="40" height="114" rx="5" fill="#4A90D9"/><rect x="238" y="268" width="40" height="108" rx="5" fill="#4A90D9"/>
    <rect x="288" y="248" width="40" height="128" rx="5" fill="#4A90D9"/><rect x="338" y="256" width="40" height="120" rx="5" fill="#4A90D9"/>
    <rect x="388" y="244" width="40" height="132" rx="5" fill="#4A90D9" opacity="0.4" stroke="#4A90D9" stroke-width="1" stroke-dasharray="3 3"/>
    <text x="108" y="392" text-anchor="middle" font-family="Arial, sans-serif" font-size="8" fill="#94A3B8">Mon</text>
    <text x="158" y="392" text-anchor="middle" font-family="Arial, sans-serif" font-size="8" fill="#94A3B8">Tue</text>
    <text x="208" y="392" text-anchor="middle" font-family="Arial, sans-serif" font-size="8" fill="#94A3B8">Wed</text>
    <text x="258" y="392" text-anchor="middle" font-family="Arial, sans-serif" font-size="8" fill="#94A3B8">Thu</text>
    <text x="308" y="392" text-anchor="middle" font-family="Arial, sans-serif" font-size="8" fill="#0F172A" font-weight="600">Fri</text>
    <text x="358" y="392" text-anchor="middle" font-family="Arial, sans-serif" font-size="8" fill="#94A3B8">Sat</text>
    <text x="408" y="392" text-anchor="middle" font-family="Arial, sans-serif" font-size="8" fill="#94A3B8">Sun</text>
    <rect x="300" y="404" width="120" height="18" rx="9" fill="#DCFCE7"/>
    <text x="360" y="416" text-anchor="middle" font-family="Arial, sans-serif" font-size="8" font-weight="600" fill="#16A34A">Avg Response: 2.4m</text>
    <!-- Recent conversations -->
    <rect x="476" y="206" width="328" height="226" rx="10" fill="#fff" filter="url(#card-shadow-sm)" stroke="#F1F5F9" stroke-width="1"/>
    <text x="492" y="228" font-family="Arial, sans-serif" font-size="11" font-weight="700" fill="#0F172A">Recent Conversations</text>
    <text x="740" y="228" font-family="Arial, sans-serif" font-size="9" fill="#4A90D9">View all</text>
    <circle cx="508" cy="258" r="12" fill="#dc2727"/><text x="508" y="262" text-anchor="middle" font-family="Arial, sans-serif" font-size="8" font-weight="700" fill="#fff">RB</text>
    <text x="526" y="254" font-family="Arial, sans-serif" font-size="10" font-weight="600" fill="#0F172A">Robert Brown</text>
    <text x="526" y="268" font-family="Arial, sans-serif" font-size="8" fill="#64748B">Hi Robert, This is a test template for...</text>
    <rect x="730" y="248" width="58" height="14" rx="7" fill="#25D366" opacity="0.08"/><text x="759" y="258" text-anchor="middle" font-family="Arial, sans-serif" font-size="7" font-weight="600" fill="#25D366">WhatsApp</text>
    <circle cx="508" cy="298" r="12" fill="#F59E0B"/><text x="508" y="302" text-anchor="middle" font-family="Arial, sans-serif" font-size="8" font-weight="700" fill="#fff">SJ</text>
    <text x="526" y="294" font-family="Arial, sans-serif" font-size="10" font-weight="600" fill="#0F172A">Sarah Johnson</text>
    <text x="526" y="308" font-family="Arial, sans-serif" font-size="8" fill="#64748B">Thanks for this quote response!</text>
    <circle cx="508" cy="338" r="12" fill="#4A90D9"/><text x="508" y="342" text-anchor="middle" font-family="Arial, sans-serif" font-size="8" font-weight="700" fill="#fff">MC</text>
    <text x="526" y="334" font-family="Arial, sans-serif" font-size="10" font-weight="600" fill="#0F172A">Mike Chen</text>
    <text x="526" y="348" font-family="Arial, sans-serif" font-size="8" fill="#64748B">When can I expect delivery of...</text>
    <rect x="746" y="328" width="38" height="14" rx="7" fill="#4A90D9" opacity="0.08"/><text x="765" y="338" text-anchor="middle" font-family="Arial, sans-serif" font-size="7" font-weight="600" fill="#4A90D9">SMS</text>
    <circle cx="508" cy="378" r="12" fill="#A855F7"/><text x="508" y="382" text-anchor="middle" font-family="Arial, sans-serif" font-size="8" font-weight="700" fill="#fff">EW</text>
    <text x="526" y="374" font-family="Arial, sans-serif" font-size="10" font-weight="600" fill="#0F172A">Emma Wilson</text>
    <text x="526" y="388" font-family="Arial, sans-serif" font-size="8" fill="#64748B">Great service, thank you!</text>
    <!-- Channel distribution + Quick Actions -->
    <rect x="72" y="446" width="390" height="80" rx="10" fill="#fff" filter="url(#card-shadow-sm)" stroke="#F1F5F9" stroke-width="1"/>
    <text x="88" y="466" font-family="Arial, sans-serif" font-size="10" font-weight="700" fill="#0F172A">Channel Distribution</text>
    <rect x="88" y="478" width="358" height="10" rx="5" fill="#F1F5F9"/>
    <rect x="88" y="478" width="136" height="10" rx="5" fill="#14B8A6"/><rect x="224" y="478" width="80" height="10" fill="#4A90D9"/><rect x="304" y="478" width="64" height="10" fill="#25D366"/><rect x="368" y="478" width="24" height="10" fill="#A855F7"/><rect x="392" y="478" width="32" height="10" fill="#EF4444"/><rect x="424" y="478" width="22" height="10" rx="5" fill="#F59E0B"/>
    <circle cx="94" cy="506" r="3" fill="#14B8A6"/><text x="102" y="510" font-family="Arial, sans-serif" font-size="7" fill="#64748B">Email 38%</text>
    <circle cx="154" cy="506" r="3" fill="#4A90D9"/><text x="162" y="510" font-family="Arial, sans-serif" font-size="7" fill="#64748B">SMS 22%</text>
    <circle cx="206" cy="506" r="3" fill="#25D366"/><text x="214" y="510" font-family="Arial, sans-serif" font-size="7" fill="#64748B">WhatsApp 18%</text>
    <circle cx="286" cy="506" r="3" fill="#EF4444"/><text x="294" y="510" font-family="Arial, sans-serif" font-size="7" fill="#64748B">Voice 10%</text>
    <rect x="476" y="446" width="328" height="80" rx="10" fill="#fff" filter="url(#card-shadow-sm)" stroke="#F1F5F9" stroke-width="1"/>
    <text x="492" y="466" font-family="Arial, sans-serif" font-size="10" font-weight="700" fill="#0F172A">Quick Actions</text>
    <rect x="492" y="478" width="90" height="30" rx="8" fill="#dc2727" opacity="0.06" stroke="#dc2727" stroke-width="0.5" stroke-opacity="0.2"/>
    <text x="537" y="497" text-anchor="middle" font-family="Arial, sans-serif" font-size="9" font-weight="600" fill="#dc2727">New Campaign</text>
    <rect x="592" y="478" width="86" height="30" rx="8" fill="#4A90D9" opacity="0.06" stroke="#4A90D9" stroke-width="0.5" stroke-opacity="0.2"/>
    <text x="635" y="497" text-anchor="middle" font-family="Arial, sans-serif" font-size="9" font-weight="600" fill="#4A90D9">View Reports</text>
    <rect x="688" y="478" width="80" height="30" rx="8" fill="#16A34A" opacity="0.06" stroke="#16A34A" stroke-width="0.5" stroke-opacity="0.2"/>
    <text x="728" y="497" text-anchor="middle" font-family="Arial, sans-serif" font-size="9" font-weight="600" fill="#16A34A">Add Contact</text>

  </g>
</svg>