<svg xmlns="http://www.w3.org/2000/svg" viewBox="0 0 960 700" fill="none">
  <defs>
    <filter id="browser-shadow" x="-4%" y="-2%" width="108%" height="108%">
      <feDropShadow dx="0" dy="8" stdDeviation="20" flood-color="#0F172A" flood-opacity="0.12"/>
    </filter>
    <filter id="card-shadow-sm" x="-8%" y="-6%" width="116%" height="120%">
      <feDropShadow dx="0" dy="2" stdDeviation="4" flood-color="#0F172A" flood-opacity="0.06"/>
    </filter>
    <filter id="pop-shadow" x="-12%" y="-10%" width="124%" height="130%">
      <feDropShadow dx="0" dy="6" stdDeviation="12" flood-color="#0F172A" flood-opacity="0.16"/>
    </filter>
    <filter id="pop-shadow-lg" x="-15%" y="-12%" width="130%" height="140%">
      <feDropShadow dx="0" dy="8" stdDeviation="16" flood-color="#0F172A" flood-opacity="0.20"/>
    </filter>
    <clipPath id="browser-clip">
      <rect x="80" y="40" width="800" height="620" rx="12"/>
    </clipPath>
  </defs>

  <!-- Browser chrome -->
  <g filter="url(#browser-shadow)">
    <rect x="80" y="40" width="800" height="620" rx="12" fill="#fff" stroke="#E2E8F0" stroke-width="1"/>
    <rect x="80" y="40" width="800" height="40" rx="12" fill="#F8FAFC"/>
    <rect x="80" y="68" width="800" height="12" fill="#F8FAFC"/>
    <line x1="80" y1="80" x2="880" y2="80" stroke="#E2E8F0" stroke-width="1"/>
    <circle cx="104" cy="60" r="5.5" fill="#EF4444" opacity="0.8"/>
    <circle cx="124" cy="60" r="5.5" fill="#F59E0B" opacity="0.8"/>
    <circle cx="144" cy="60" r="5.5" fill="#22C55E" opacity="0.8"/>
    <rect x="170" y="50" width="500" height="22" rx="6" fill="#fff" stroke="#E2E8F0" stroke-width="1"/>
    <circle cx="186" cy="61" r="4" fill="none" stroke="#94A3B8" stroke-width="1.2"/>
    <rect x="183" y="62" width="6" height="4" rx="1" fill="#94A3B8"/>
    <text x="200" y="65" font-family="Arial, sans-serif" font-size="10" fill="#94A3B8">app.kaptea.com/pronto/conversations</text>
    <circle cx="800" cy="61" r="3" fill="#CBD5E1"/><circle cx="820" cy="61" r="3" fill="#CBD5E1"/><circle cx="840" cy="61" r="3" fill="#CBD5E1"/>
  </g>

  <g clip-path="url(#browser-clip)">
    <!-- White base -->
    <rect x="80" y="80" width="800" height="580" fill="#fff"/>

    <!-- Pronto sidebar -->
    <rect x="80" y="80" width="36" height="580" fill="#131521"/>
    <g transform="translate(84, 84) scale(0.22)">
      <path fill="#dc2727" d="M68.01,25.4c-1.15-.31-2.36-.52-3.64-.63-1.28-.1-2.44-.16-3.48-.16h-28.57v41.33h28.57c1.04,0,2.2-.05,3.48-.16,1.28-.1,2.49-.29,3.64-.55,3.34-.78,6.03-2.23,8.06-4.34,2.04-2.11,3.5-4.55,4.38-7.32.89-2.76,1.33-5.53,1.33-8.3s-.44-5.52-1.33-8.26c-.89-2.74-2.35-5.17-4.38-7.28-2.03-2.11-4.72-3.56-8.06-4.35Z"/>
      <path fill="#dc2727" d="M61.51,9.2c1.1,0,2.45.04,4.07.12,1.62.08,3.16.25,4.62.51,6.26.99,11.49,3.13,15.7,6.42.9.7,1.74,1.46,2.55,2.24C75.57-5.65,51.5-3.45,31.66,9.2h29.84Z"/>
      <path fill="#dc2727" d="M95.33,61.96c-2.09,5.01-5.23,9.16-9.43,12.45-4.2,3.29-9.43,5.43-15.7,6.42-1.46.21-3.01.37-4.66.47-1.64.11-2.99.16-4.03.16h-29.2v20.16c13.99,9.03,29.34,13.68,39.42,10.49,15.25-4.81,23.85-28.95,24.65-53.02-.32.97-.66,1.93-1.05,2.87Z"/>
      <path fill="#dc2727" d="M14.95,23.43C3.73,35.95-2.9,51.26.66,63.58c2.42,8.38,7.63,16.47,14.28,23.6V23.43Z"/>
    </g>
    <!-- Sidebar nav icons -->
    <g fill="#fff" fill-opacity="0.35"><rect x="90" y="122" width="16" height="2" rx="1"/><rect x="90" y="126" width="10" height="2" rx="1"/><rect x="90" y="130" width="16" height="2" rx="1"/></g>
    <rect x="80" y="142" width="2.5" height="20" rx="1.2" fill="#dc2727"/>
    <!-- More nav items faded -->
    <g fill="#fff" fill-opacity="0.2">
      <circle cx="98" cy="180" r="5"/><circle cx="98" cy="200" r="5"/><circle cx="98" cy="220" r="5"/>
      <circle cx="98" cy="240" r="5"/><circle cx="98" cy="260" r="5"/>
    </g>

    <!-- ================================================ -->
    <!-- CONTACT LIST PANEL (left side of inbox)          -->
    <!-- ================================================ -->
    <rect x="116" y="80" width="210" height="580" fill="#FAFBFC"/>
    <line x1="326" y1="80" x2="326" y2="660" stroke="#E2E8F0" stroke-width="1"/>

    <text x="132" y="104" font-family="Arial, sans-serif" font-size="13" font-weight="700" fill="#0F172A">All Conversations</text>

    <!-- Channel filter tabs -->
    <rect x="132" y="112" width="42" height="20" rx="10" fill="#dc2727"/>
    <text x="153" y="126" text-anchor="middle" font-family="Arial, sans-serif" font-size="8" font-weight="600" fill="#fff">All</text>
    <rect x="178" y="112" width="36" height="20" rx="10" fill="#F1F5F9"/>
    <text x="196" y="126" text-anchor="middle" font-family="Arial, sans-serif" font-size="8" fill="#64748B">SMS</text>
    <rect x="218" y="112" width="52" height="20" rx="10" fill="#F1F5F9"/>
    <text x="244" y="126" text-anchor="middle" font-family="Arial, sans-serif" font-size="8" fill="#64748B">WhatsApp</text>
    <rect x="274" y="112" width="42" height="20" rx="10" fill="#F1F5F9"/>
    <text x="295" y="126" text-anchor="middle" font-family="Arial, sans-serif" font-size="8" fill="#64748B">Email</text>

    <!-- Search bar -->
    <rect x="132" y="140" width="182" height="24" rx="8" fill="#F1F5F9" stroke="#E2E8F0" stroke-width="1"/>
    <text x="146" y="156" font-family="Arial, sans-serif" font-size="9" fill="#94A3B8">Search conversations...</text>

    <!-- Contact 1: WhatsApp - active -->
    <rect x="126" y="172" width="194" height="52" rx="8" fill="#dc2727" opacity="0.06" stroke="#dc2727" stroke-width="0.5" stroke-opacity="0.15"/>
    <circle cx="146" cy="198" r="14" fill="#25D366"/>
      <path d="M142,202.5 C140,200 140,195 142.5,193 C145,191 149,192 151,194.5 C153,197 152,201 150,203 L150.5,205 L148,203.5 C146.5,204 145,204 143.5,203.5" fill="none" stroke="#fff" stroke-width="1.2" stroke-linecap="round"/>
    <text x="166" y="192" font-family="Arial, sans-serif" font-size="10" font-weight="600" fill="#0F172A">Sarah Mitchell</text>
    <text x="284" y="192" font-family="Arial, sans-serif" font-size="8" fill="#94A3B8">10:32</text>
    <text x="166" y="206" font-family="Arial, sans-serif" font-size="9" fill="#64748B">Thanks! Promo received...</text>
    <circle cx="306" cy="198" r="7" fill="#dc2727"/>
    <text x="306" y="201" text-anchor="middle" font-family="Arial, sans-serif" font-size="7" font-weight="700" fill="#fff">3</text>

    <!-- Contact 2: SMS -->
    <circle cx="146" cy="248" r="14" fill="#4A90D9"/>
      <rect x="141" y="244" width="10" height="7" rx="2" fill="none" stroke="#fff" stroke-width="1.1"/>
      <polygon points="144,251 142,254 146,251" fill="#fff"/>
    <text x="166" y="242" font-family="Arial, sans-serif" font-size="10" font-weight="600" fill="#334155">James O'Brien</text>
    <text x="284" y="242" font-family="Arial, sans-serif" font-size="8" fill="#94A3B8">10:15</text>
    <text x="166" y="256" font-family="Arial, sans-serif" font-size="9" fill="#64748B">Delivery confirmed for...</text>

    <!-- Contact 3: Email -->
    <circle cx="146" cy="296" r="14" fill="#8B5CF6"/>
      <rect x="141" y="292.5" width="10" height="7" rx="1.5" fill="none" stroke="#fff" stroke-width="1.1"/>
      <polyline points="141,292.5 146,297 151,292.5" fill="none" stroke="#fff" stroke-width="1.1" stroke-linejoin="round"/>
    <text x="166" y="290" font-family="Arial, sans-serif" font-size="10" font-weight="600" fill="#334155">Emma Clarke</text>
    <text x="284" y="290" font-family="Arial, sans-serif" font-size="8" fill="#94A3B8">09:58</text>
    <text x="166" y="304" font-family="Arial, sans-serif" font-size="9" fill="#64748B">Re: Invoice #4021 query</text>

    <!-- Contact 4: WhatsApp -->
    <circle cx="146" cy="344" r="14" fill="#25D366"/>
      <path d="M142,348.5 C140,346 140,341 142.5,339 C145,337 149,338 151,340.5 C153,343 152,347 150,349 L150.5,351 L148,349.5 C146.5,350 145,350 143.5,349.5" fill="none" stroke="#fff" stroke-width="1.2" stroke-linecap="round"/>
    <text x="166" y="338" font-family="Arial, sans-serif" font-size="10" font-weight="600" fill="#334155">David Nolan</text>
    <text x="284" y="338" font-family="Arial, sans-serif" font-size="8" fill="#94A3B8">09:44</text>
    <text x="166" y="352" font-family="Arial, sans-serif" font-size="9" fill="#64748B">Can I upgrade my plan?</text>

    <!-- Contact 5: RCS -->
    <circle cx="146" cy="392" r="14" fill="#14B8A6"/>
      <text x="146" y="395" text-anchor="middle" font-family="Arial, sans-serif" font-size="7" font-weight="700" fill="#fff">RCS</text>
    <text x="166" y="386" font-family="Arial, sans-serif" font-size="10" font-weight="600" fill="#334155">Aoife Kelly</text>
    <text x="284" y="386" font-family="Arial, sans-serif" font-size="8" fill="#94A3B8">09:22</text>
    <text x="166" y="400" font-family="Arial, sans-serif" font-size="9" fill="#64748B">Got the appointment re...</text>

    <!-- Contact 6: SMS -->
    <circle cx="146" cy="440" r="14" fill="#4A90D9"/>
      <rect x="141" y="436" width="10" height="7" rx="2" fill="none" stroke="#fff" stroke-width="1.1"/>
      <polygon points="144,443 142,446 146,443" fill="#fff"/>
    <text x="166" y="434" font-family="Arial, sans-serif" font-size="10" font-weight="600" fill="#334155">Conor Murphy</text>
    <text x="284" y="434" font-family="Arial, sans-serif" font-size="8" fill="#94A3B8">09:10</text>
    <text x="166" y="448" font-family="Arial, sans-serif" font-size="9" fill="#64748B">Order status update?</text>

    <!-- Contact 7: Email -->
    <circle cx="146" cy="488" r="14" fill="#8B5CF6"/>
      <rect x="141" y="484.5" width="10" height="7" rx="1.5" fill="none" stroke="#fff" stroke-width="1.1"/>
      <polyline points="141,484.5 146,489 151,484.5" fill="none" stroke="#fff" stroke-width="1.1" stroke-linejoin="round"/>
    <text x="166" y="482" font-family="Arial, sans-serif" font-size="10" font-weight="600" fill="#334155">Rachel Byrne</text>
    <text x="284" y="482" font-family="Arial, sans-serif" font-size="8" fill="#94A3B8">08:55</text>
    <text x="166" y="496" font-family="Arial, sans-serif" font-size="9" fill="#64748B">Meeting notes attached</text>

    <!-- Contact 8: Voice -->
    <circle cx="146" cy="536" r="14" fill="#F59E0B"/>
      <path d="M143,532 C143,532 144,531 145,532 L146,535 C146,536 145,536 144,537 C143,538 144,539 146,540 C148,541 150,540 150,539 L151,537 C151,536 150,536 149,537" fill="none" stroke="#fff" stroke-width="1.2" stroke-linecap="round"/>
    <text x="166" y="530" font-family="Arial, sans-serif" font-size="10" font-weight="600" fill="#334155">Liam Walsh</text>
    <text x="284" y="530" font-family="Arial, sans-serif" font-size="8" fill="#94A3B8">08:30</text>
    <text x="166" y="544" font-family="Arial, sans-serif" font-size="9" fill="#64748B">Missed call - callback</text>

    <!-- Contact 9: WhatsApp (faded at bottom) -->
    <g opacity="0.5">
    <circle cx="146" cy="584" r="14" fill="#25D366"/>
      <path d="M142,588.5 C140,586 140,581 142.5,579 C145,577 149,578 151,580.5 C153,583 152,587 150,589 L150.5,591 L148,589.5 C146.5,590 145,590 143.5,589.5" fill="none" stroke="#fff" stroke-width="1.2" stroke-linecap="round"/>
    <text x="166" y="578" font-family="Arial, sans-serif" font-size="10" font-weight="600" fill="#334155">Niamh O'Sullivan</text>
    <text x="166" y="592" font-family="Arial, sans-serif" font-size="9" fill="#64748B">Product question about...</text>
    </g>


    <!-- ================================================ -->
    <!-- CHAT THREAD PANEL (main area)                    -->
    <!-- ================================================ -->
    <rect x="326" y="80" width="430" height="580" fill="#fff"/>

    <!-- Chat header -->
    <line x1="326" y1="128" x2="756" y2="128" stroke="#E2E8F0" stroke-width="1"/>
    <circle cx="350" cy="104" r="14" fill="#25D366"/>
      <path d="M346,108.5 C344,106 344,101 346.5,99 C349,97 353,98 355,100.5 C357,103 356,107 354,109 L354.5,111 L352,109.5 C350.5,110 349,110 347.5,109.5" fill="none" stroke="#fff" stroke-width="1.2" stroke-linecap="round"/>
    <text x="370" y="99" font-family="Arial, sans-serif" font-size="12" font-weight="600" fill="#0F172A">Sarah Mitchell</text>
    <rect x="460" y="90" width="58" height="16" rx="8" fill="#25D366" opacity="0.1"/>
    <text x="489" y="102" text-anchor="middle" font-family="Arial, sans-serif" font-size="8" font-weight="600" fill="#25D366">WhatsApp</text>
    <text x="370" y="115" font-family="Arial, sans-serif" font-size="9" fill="#16A34A">Online</text>

    <!-- Incoming message 1 -->
    <rect x="342" y="140" width="260" height="36" rx="12" fill="#F1F5F9"/>
    <text x="354" y="155" font-family="Arial, sans-serif" font-size="10" fill="#334155">Hi! I saw the summer promo SMS you sent.</text>
    <text x="354" y="169" font-family="Arial, sans-serif" font-size="10" fill="#334155">Is the 20% discount still available?</text>

    <!-- Outgoing message 1 -->
    <rect x="418" y="186" width="320" height="36" rx="12" fill="#dc2727"/>
    <text x="430" y="201" font-family="Arial, sans-serif" font-size="10" fill="#fff">Yes it is! Use code SUMMER20 at checkout.</text>
    <text x="430" y="215" font-family="Arial, sans-serif" font-size="10" fill="#fff">Valid until end of this month.</text>

    <!-- Incoming message 2 -->
    <rect x="342" y="232" width="200" height="24" rx="12" fill="#F1F5F9"/>
    <text x="354" y="248" font-family="Arial, sans-serif" font-size="10" fill="#334155">Thanks! Promo received and applied.</text>

    <!-- Incoming message 3 -->
    <rect x="342" y="266" width="240" height="24" rx="12" fill="#F1F5F9"/>
    <text x="354" y="282" font-family="Arial, sans-serif" font-size="10" fill="#334155">Can you also send me the product catalogue?</text>

    <!-- Outgoing message 2 -->
    <rect x="448" y="300" width="290" height="24" rx="12" fill="#dc2727"/>
    <text x="460" y="316" font-family="Arial, sans-serif" font-size="10" fill="#fff">Of course! Sending it over now via email.</text>

    <!-- File share card -->
    <rect x="498" y="334" width="180" height="38" rx="10" fill="#F0F4FF" stroke="#D0D8F0" stroke-width="1"/>
    <rect x="506" y="342" width="24" height="22" rx="5" fill="#8B5CF6"/>
    <text x="518" y="356" text-anchor="middle" font-family="Arial, sans-serif" font-size="7" font-weight="700" fill="#fff">PDF</text>
    <text x="536" y="354" font-family="Arial, sans-serif" font-size="9" font-weight="600" fill="#0F172A">Summer_Catalogue.pdf</text>
    <text x="536" y="366" font-family="Arial, sans-serif" font-size="8" fill="#94A3B8">1.2 MB</text>

    <!-- Incoming message 4 -->
    <rect x="342" y="384" width="180" height="24" rx="12" fill="#F1F5F9"/>
    <text x="354" y="400" font-family="Arial, sans-serif" font-size="10" fill="#334155">Perfect, just what I needed!</text>

    <!-- Outgoing message 3 -->
    <rect x="460" y="418" width="278" height="36" rx="12" fill="#dc2727"/>
    <text x="472" y="433" font-family="Arial, sans-serif" font-size="10" fill="#fff">Happy to help! We'll also send you a</text>
    <text x="472" y="447" font-family="Arial, sans-serif" font-size="10" fill="#fff">follow-up SMS when new stock arrives.</text>

    <!-- Typing indicator area faded -->
    <rect x="342" y="466" width="70" height="20" rx="10" fill="#F1F5F9"/>
    <circle cx="358" cy="476" r="2.5" fill="#94A3B8" opacity="0.6"/>
    <circle cx="368" cy="476" r="2.5" fill="#94A3B8" opacity="0.4"/>
    <circle cx="378" cy="476" r="2.5" fill="#94A3B8" opacity="0.2"/>

    <!-- Input bar -->
    <rect x="342" y="620" width="374" height="30" rx="15" fill="#F1F5F9" stroke="#E2E8F0" stroke-width="1"/>
    <text x="360" y="639" font-family="Arial, sans-serif" font-size="10" fill="#94A3B8">Type a message...</text>
    <circle cx="698" cy="635" r="12" fill="#25D366"/>
    <text x="698" y="639" text-anchor="middle" font-family="Arial, sans-serif" font-size="10" fill="#fff">&#9654;</text>

    <!-- ================================================ -->
    <!-- RIGHT PANEL: Contact details                     -->
    <!-- ================================================ -->
    <line x1="756" y1="80" x2="756" y2="660" stroke="#E2E8F0" stroke-width="1"/>
    <rect x="756" y="80" width="124" height="580" fill="#FAFBFC"/>
    <text x="772" y="104" font-family="Arial, sans-serif" font-size="11" font-weight="700" fill="#0F172A">Contact</text>

    <circle cx="818" cy="140" r="18" fill="#25D366"/>
      <path d="M814,144.5 C812,142 812,137 814.5,135 C817,133 821,134 823,136.5 C825,139 824,143 822,145 L822.5,147 L820,145.5 C818.5,146 817,146 815.5,145.5" fill="none" stroke="#fff" stroke-width="1.2" stroke-linecap="round"/>
    <text x="818" y="170" text-anchor="middle" font-family="Arial, sans-serif" font-size="10" font-weight="600" fill="#0F172A">Sarah Mitchell</text>
    <rect x="790" y="178" width="56" height="14" rx="7" fill="#DCFCE7"/>
    <text x="818" y="189" text-anchor="middle" font-family="Arial, sans-serif" font-size="7" font-weight="600" fill="#16A34A">Active</text>

    <line x1="772" y1="202" x2="864" y2="202" stroke="#E2E8F0" stroke-width="1"/>
    <text x="772" y="220" font-family="Arial, sans-serif" font-size="8" fill="#94A3B8">Channel</text>
    <text x="772" y="234" font-family="Arial, sans-serif" font-size="9" fill="#25D366" font-weight="600">WhatsApp</text>
    <text x="772" y="254" font-family="Arial, sans-serif" font-size="8" fill="#94A3B8">Phone</text>
    <text x="772" y="268" font-family="Arial, sans-serif" font-size="9" fill="#334155">+353 87 123 4567</text>
    <text x="772" y="288" font-family="Arial, sans-serif" font-size="8" fill="#94A3B8">Email</text>
    <text x="772" y="302" font-family="Arial, sans-serif" font-size="9" fill="#4A90D9">sarah@example.com</text>
    <text x="772" y="322" font-family="Arial, sans-serif" font-size="8" fill="#94A3B8">Tags</text>
    <rect x="772" y="328" width="38" height="14" rx="7" fill="#FEF3C7"/>
    <text x="791" y="339" text-anchor="middle" font-family="Arial, sans-serif" font-size="7" font-weight="600" fill="#D97706">VIP</text>
    <rect x="814" y="328" width="46" height="14" rx="7" fill="#DBEAFE"/>
    <text x="837" y="339" text-anchor="middle" font-family="Arial, sans-serif" font-size="7" font-weight="600" fill="#2563EB">Retail</text>
  </g>

  <!-- ================================================== -->
  <!-- FLOATING POP CARDS (outside clip, overlapping)     -->
  <!-- ================================================== -->

  <!-- POP 1: Campaign Performance (top-right, overlapping browser) -->
  <g transform="translate(680, 20)" filter="url(#pop-shadow-lg)">
    <rect width="260" height="150" rx="14" fill="#fff" stroke="#E2E8F0" stroke-width="1"/>
    <rect width="260" height="4" rx="2" fill="#dc2727" opacity="0.7"/>
    <text x="18" y="28" font-family="Arial, sans-serif" font-size="10" font-weight="700" fill="#0F172A">Campaign Performance</text>
    <text x="18" y="42" font-family="Arial, sans-serif" font-size="8" fill="#94A3B8">Summer Promo - Last 7 days</text>

    <!-- Mini KPI row -->
    <g transform="translate(18, 52)">
      <rect width="68" height="44" rx="8" fill="#FEF2F2"/>
      <text x="10" y="16" font-family="Arial, sans-serif" font-size="7" fill="#94A3B8">Sent</text>
      <text x="10" y="34" font-family="Arial, sans-serif" font-size="16" font-weight="700" fill="#0F172A">24.5k</text>
    </g>
    <g transform="translate(94, 52)">
      <rect width="68" height="44" rx="8" fill="#F0FDF4"/>
      <text x="10" y="16" font-family="Arial, sans-serif" font-size="7" fill="#94A3B8">Delivered</text>
      <text x="10" y="34" font-family="Arial, sans-serif" font-size="16" font-weight="700" fill="#16A34A">98.2%</text>
    </g>
    <g transform="translate(170, 52)">
      <rect width="72" height="44" rx="8" fill="#EFF6FF"/>
      <text x="10" y="16" font-family="Arial, sans-serif" font-size="7" fill="#94A3B8">Clicked</text>
      <text x="10" y="34" font-family="Arial, sans-serif" font-size="16" font-weight="700" fill="#2563EB">32.1%</text>
    </g>

    <!-- Mini sparkline chart -->
    <polyline points="18,118 40,114 62,108 84,112 106,104 128,106 150,98 172,100 194,92 216,88 238,84"
      fill="none" stroke="#dc2727" stroke-width="2" stroke-linecap="round" stroke-linejoin="round"/>
    <polyline points="18,118 40,114 62,108 84,112 106,104 128,106 150,98 172,100 194,92 216,88 238,84 238,140 18,140"
      fill="#dc2727" fill-opacity="0.06" stroke="none"/>
    <text x="18" y="142" font-family="Arial, sans-serif" font-size="7" fill="#94A3B8">Mon</text>
    <text x="124" y="142" font-family="Arial, sans-serif" font-size="7" fill="#94A3B8">Thu</text>
    <text x="228" y="142" font-family="Arial, sans-serif" font-size="7" fill="#94A3B8">Sun</text>
  </g>

  <!-- POP 2: Delivery Controls (bottom-left, overlapping browser) -->
  <g transform="translate(20, 480)" filter="url(#pop-shadow-lg)">
    <rect width="240" height="170" rx="14" fill="#fff" stroke="#E2E8F0" stroke-width="1"/>
    <rect width="240" height="4" rx="2" fill="#131521" opacity="0.8"/>
    <text x="18" y="28" font-family="Arial, sans-serif" font-size="10" font-weight="700" fill="#0F172A">Delivery Controls</text>
    <text x="18" y="42" font-family="Arial, sans-serif" font-size="8" fill="#94A3B8">Smart routing and compliance</text>

    <!-- Toggle rows -->
    <g transform="translate(18, 54)">
      <text x="0" y="12" font-family="Arial, sans-serif" font-size="9" fill="#334155">Quiet hours</text>
      <rect x="164" y="2" width="34" height="16" rx="8" fill="#16A34A"/>
      <circle cx="190" cy="10" r="6" fill="#fff"/>
      <text x="0" y="28" font-family="Arial, sans-serif" font-size="7" fill="#94A3B8">No messages 21:00 - 08:00</text>
    </g>
    <line x1="18" y1="90" x2="222" y2="90" stroke="#F1F5F9" stroke-width="1"/>

    <g transform="translate(18, 96)">
      <text x="0" y="12" font-family="Arial, sans-serif" font-size="9" fill="#334155">Opt-out management</text>
      <rect x="164" y="2" width="34" height="16" rx="8" fill="#16A34A"/>
      <circle cx="190" cy="10" r="6" fill="#fff"/>
      <text x="0" y="28" font-family="Arial, sans-serif" font-size="7" fill="#94A3B8">Auto-process STOP replies</text>
    </g>
    <line x1="18" y1="132" x2="222" y2="132" stroke="#F1F5F9" stroke-width="1"/>

    <g transform="translate(18, 138)">
      <text x="0" y="12" font-family="Arial, sans-serif" font-size="9" fill="#334155">Channel fallback</text>
      <rect x="164" y="2" width="34" height="16" rx="8" fill="#16A34A"/>
      <circle cx="190" cy="10" r="6" fill="#fff"/>
      <text x="0" y="28" font-family="Arial, sans-serif" font-size="7" fill="#94A3B8">SMS if WhatsApp undelivered</text>
    </g>
  </g>

  <!-- POP 3: Template Builder (bottom-right, overlapping browser) -->
  <g transform="translate(640, 500)" filter="url(#pop-shadow-lg)">
    <rect width="280" height="175" rx="14" fill="#fff" stroke="#E2E8F0" stroke-width="1"/>
    <rect width="280" height="4" rx="2" fill="#25D366" opacity="0.7"/>
    <text x="18" y="28" font-family="Arial, sans-serif" font-size="10" font-weight="700" fill="#0F172A">Template Builder</text>
    <text x="18" y="42" font-family="Arial, sans-serif" font-size="8" fill="#94A3B8">WhatsApp - Order Confirmation</text>

    <!-- Template preview -->
    <rect x="18" y="52" width="244" height="90" rx="10" fill="#F0FDF4" stroke="#BBF7D0" stroke-width="1"/>
    <text x="30" y="70" font-family="Arial, sans-serif" font-size="9" fill="#334155" font-weight="600">Hi {first_name},</text>
    <text x="30" y="86" font-family="Arial, sans-serif" font-size="9" fill="#334155">Your order #{order_id} has been</text>
    <text x="30" y="100" font-family="Arial, sans-serif" font-size="9" fill="#334155">confirmed. Estimated delivery:</text>
    <text x="30" y="114" font-family="Arial, sans-serif" font-size="9" fill="#334155" font-weight="600">{delivery_date}</text>
    <rect x="30" y="120" width="6" height="6" rx="3" fill="#25D366" opacity="0.5"/>
    <rect x="40" y="120" width="6" height="6" rx="3" fill="#25D366" opacity="0.3"/>
    <rect x="50" y="120" width="6" height="6" rx="3" fill="#25D366" opacity="0.15"/>

    <!-- Status pill -->
    <rect x="18" y="150" width="62" height="18" rx="9" fill="#DCFCE7"/>
    <text x="49" y="163" text-anchor="middle" font-family="Arial, sans-serif" font-size="8" font-weight="600" fill="#16A34A">Approved</text>
    <!-- Channel icon -->
    <rect x="88" y="150" width="72" height="18" rx="9" fill="#25D366" opacity="0.1"/>
    <text x="124" y="163" text-anchor="middle" font-family="Arial, sans-serif" font-size="8" font-weight="600" fill="#25D366">WhatsApp</text>
    <!-- Variable count -->
    <rect x="168" y="150" width="70" height="18" rx="9" fill="#F1F5F9"/>
    <text x="203" y="163" text-anchor="middle" font-family="Arial, sans-serif" font-size="8" fill="#64748B">3 variables</text>
  </g>

  <!-- POP 4: Channel Mix (top-left, small) -->
  <g transform="translate(20, 60)" filter="url(#pop-shadow)">
    <rect width="190" height="120" rx="14" fill="#fff" stroke="#E2E8F0" stroke-width="1"/>
    <rect width="190" height="4" rx="2" fill="#4A90D9" opacity="0.7"/>
    <text x="16" y="26" font-family="Arial, sans-serif" font-size="10" font-weight="700" fill="#0F172A">Channel Mix</text>
    <text x="16" y="40" font-family="Arial, sans-serif" font-size="8" fill="#94A3B8">Messages this month</text>

    <!-- Horizontal stacked bar -->
    <rect x="16" y="50" width="158" height="12" rx="6" fill="#E2E8F0"/>
    <rect x="16" y="50" width="60" height="12" rx="6" fill="#25D366"/>
    <rect x="76" y="50" width="44" height="12" fill="#4A90D9"/>
    <rect x="120" y="50" width="30" height="12" fill="#8B5CF6"/>
    <rect x="150" y="50" width="24" height="12" rx="6" fill="#14B8A6"/>

    <!-- Legend -->
    <circle cx="24" cy="76" r="4" fill="#25D366"/>
    <text x="32" y="79" font-family="Arial, sans-serif" font-size="8" fill="#334155">WhatsApp 38%</text>
    <circle cx="108" cy="76" r="4" fill="#4A90D9"/>
    <text x="116" y="79" font-family="Arial, sans-serif" font-size="8" fill="#334155">SMS 28%</text>

    <circle cx="24" cy="94" r="4" fill="#8B5CF6"/>
    <text x="32" y="97" font-family="Arial, sans-serif" font-size="8" fill="#334155">Email 19%</text>
    <circle cx="108" cy="94" r="4" fill="#14B8A6"/>
    <text x="116" y="97" font-family="Arial, sans-serif" font-size="8" fill="#334155">RCS 15%</text>

    <text x="16" y="114" font-family="Arial, sans-serif" font-size="9" font-weight="700" fill="#0F172A">142,830 <tspan font-weight="400" fill="#94A3B8" font-size="8">total</tspan></text>
  </g>

</svg>