<svg xmlns="http://www.w3.org/2000/svg" viewBox="0 0 840 660" fill="none">
  <defs>
    <filter id="browser-shadow" x="-4%" y="-2%" width="108%" height="108%">
      <feDropShadow dx="0" dy="8" stdDeviation="20" flood-color="#0F172A" flood-opacity="0.12"/>
    </filter>
    <filter id="card-shadow-sm" x="-8%" y="-6%" width="116%" height="120%">
      <feDropShadow dx="0" dy="2" stdDeviation="4" flood-color="#0F172A" flood-opacity="0.06"/>
    </filter>
    <clipPath id="browser-clip">
      <rect x="20" y="20" width="800" height="620" rx="12"/>
    </clipPath>
  </defs>
  <g filter="url(#browser-shadow)">
    <rect x="20" y="20" width="800" height="620" rx="12" fill="#fff" stroke="#E2E8F0" stroke-width="1"/>
    <rect x="20" y="20" width="800" height="40" rx="12" fill="#F8FAFC"/>
    <rect x="20" y="48" width="800" height="12" fill="#F8FAFC"/>
    <line x1="20" y1="60" x2="820" y2="60" stroke="#E2E8F0" stroke-width="1"/>
    <circle cx="44" cy="40" r="5.5" fill="#EF4444" opacity="0.8"/>
    <circle cx="64" cy="40" r="5.5" fill="#F59E0B" opacity="0.8"/>
    <circle cx="84" cy="40" r="5.5" fill="#22C55E" opacity="0.8"/>
    <rect x="110" y="30" width="500" height="22" rx="6" fill="#fff" stroke="#E2E8F0" stroke-width="1"/>
    <circle cx="126" cy="41" r="4" fill="none" stroke="#94A3B8" stroke-width="1.2"/>
    <rect x="123" y="42" width="6" height="4" rx="1" fill="#94A3B8"/>
    <text x="140" y="45" font-family="Arial, sans-serif" font-size="10" fill="#94A3B8">app.kaptea.com/pronto/tasks</text>
    <circle cx="740" cy="41" r="3" fill="#CBD5E1"/><circle cx="760" cy="41" r="3" fill="#CBD5E1"/><circle cx="780" cy="41" r="3" fill="#CBD5E1"/>
  </g>
  <g clip-path="url(#browser-clip)">
    <rect x="20" y="60" width="800" height="580" fill="#fff"/>
    <rect x="20" y="60" width="36" height="580" fill="#131521"/>
    <g transform="translate(24, 64) scale(0.22)">
      <path fill="#dc2727" d="M68.01,25.4c-1.15-.31-2.36-.52-3.64-.63-1.28-.1-2.44-.16-3.48-.16h-28.57v41.33h28.57c1.04,0,2.2-.05,3.48-.16,1.28-.1,2.49-.29,3.64-.55,3.34-.78,6.03-2.23,8.06-4.34,2.04-2.11,3.5-4.55,4.38-7.32.89-2.76,1.33-5.53,1.33-8.3s-.44-5.52-1.33-8.26c-.89-2.74-2.35-5.17-4.38-7.28-2.03-2.11-4.72-3.56-8.06-4.35Z"/>
      <path fill="#dc2727" d="M61.51,9.2c1.1,0,2.45.04,4.07.12,1.62.08,3.16.25,4.62.51,6.26.99,11.49,3.13,15.7,6.42.9.7,1.74,1.46,2.55,2.24C75.57-5.65,51.5-3.45,31.66,9.2h29.84Z"/>
      <path fill="#dc2727" d="M95.33,61.96c-2.09,5.01-5.23,9.16-9.43,12.45-4.2,3.29-9.43,5.43-15.7,6.42-1.46.21-3.01.37-4.66.47-1.64.11-2.99.16-4.03.16h-29.2v20.16c13.99,9.03,29.34,13.68,39.42,10.49,15.25-4.81,23.85-28.95,24.65-53.02-.32.97-.66,1.93-1.05,2.87Z"/>
      <path fill="#dc2727" d="M14.95,23.43C3.73,35.95-2.9,51.26.66,63.58c2.42,8.38,7.63,16.47,14.28,23.6V23.43Z"/>
    </g>
    <g fill="#fff" fill-opacity="0.35"><rect x="30" y="102" width="16" height="2" rx="1"/><rect x="30" y="106" width="10" height="2" rx="1"/><rect x="30" y="110" width="16" height="2" rx="1"/></g>
    <rect x="20" y="122" width="2.5" height="20" rx="1.2" fill="#dc2727"/>

    <text x="72" y="84" font-family="Arial, sans-serif" font-size="14" font-weight="700" fill="#0F172A">Task Dashboard</text>
    <text x="72" y="98" font-family="Arial, sans-serif" font-size="9" fill="#94A3B8">Monitor and manage agent tasks in real-time</text>
    <!-- Delivery rings -->
    <g transform="translate(72, 110)">
      <rect width="168" height="68" rx="8" fill="#fff" filter="url(#card-shadow-sm)" stroke="#F1F5F9" stroke-width="1"/>
      <text x="12" y="16" font-family="Arial, sans-serif" font-size="8" fill="#94A3B8">SMS Delivery (All Time)</text>
      <circle cx="32" cy="44" r="16" fill="none" stroke="#F1F5F9" stroke-width="4"/>
      <circle cx="32" cy="44" r="16" fill="none" stroke="#4A90D9" stroke-width="4" stroke-dasharray="72 28" stroke-dashoffset="25" stroke-linecap="round"/>
      <text x="32" y="48" text-anchor="middle" font-family="Arial, sans-serif" font-size="8" font-weight="700" fill="#0F172A">18</text>
      <text x="58" y="40" font-family="Arial, sans-serif" font-size="10" font-weight="700" fill="#4A90D9">72%</text>
      <text x="58" y="52" font-family="Arial, sans-serif" font-size="8" fill="#64748B">delivered</text>
      <text x="106" y="40" font-family="Arial, sans-serif" font-size="10" font-weight="700" fill="#EF4444">28%</text>
      <text x="106" y="52" font-family="Arial, sans-serif" font-size="8" fill="#64748B">failed</text>
    </g>
    <g transform="translate(254, 110)">
      <rect width="168" height="68" rx="8" fill="#fff" filter="url(#card-shadow-sm)" stroke="#F1F5F9" stroke-width="1"/>
      <text x="12" y="16" font-family="Arial, sans-serif" font-size="8" fill="#94A3B8">Email Delivery (All Time)</text>
      <circle cx="32" cy="44" r="16" fill="none" stroke="#F1F5F9" stroke-width="4"/>
      <circle cx="32" cy="44" r="16" fill="none" stroke="#14B8A6" stroke-width="4" stroke-dasharray="100 1" stroke-dashoffset="25" stroke-linecap="round"/>
      <text x="32" y="48" text-anchor="middle" font-family="Arial, sans-serif" font-size="8" font-weight="700" fill="#0F172A">1</text>
      <text x="58" y="40" font-family="Arial, sans-serif" font-size="10" font-weight="700" fill="#14B8A6">100%</text>
      <text x="58" y="52" font-family="Arial, sans-serif" font-size="8" fill="#64748B">delivered</text>
    </g>
    <g transform="translate(436, 110)">
      <rect width="168" height="68" rx="8" fill="#fff" filter="url(#card-shadow-sm)" stroke="#F1F5F9" stroke-width="1"/>
      <text x="12" y="16" font-family="Arial, sans-serif" font-size="8" fill="#94A3B8">WhatsApp Delivery (All Time)</text>
      <circle cx="32" cy="44" r="16" fill="none" stroke="#F1F5F9" stroke-width="4"/>
      <circle cx="32" cy="44" r="16" fill="none" stroke="#25D366" stroke-width="4" stroke-dasharray="89 12" stroke-dashoffset="25" stroke-linecap="round"/>
      <text x="32" y="48" text-anchor="middle" font-family="Arial, sans-serif" font-size="8" font-weight="700" fill="#0F172A">9</text>
      <text x="58" y="40" font-family="Arial, sans-serif" font-size="10" font-weight="700" fill="#25D366">89%</text>
      <text x="106" y="40" font-family="Arial, sans-serif" font-size="10" font-weight="700" fill="#EF4444">11%</text>
    </g>
    <g transform="translate(618, 110)">
      <rect width="186" height="68" rx="8" fill="#fff" filter="url(#card-shadow-sm)" stroke="#F1F5F9" stroke-width="1"/>
      <text x="12" y="16" font-family="Arial, sans-serif" font-size="8" fill="#94A3B8">RCS Delivery (All Time)</text>
      <circle cx="32" cy="44" r="16" fill="none" stroke="#F1F5F9" stroke-width="4"/>
      <circle cx="32" cy="44" r="16" fill="none" stroke="#F59E0B" stroke-width="4" stroke-dasharray="100 1" stroke-dashoffset="25" stroke-linecap="round"/>
      <text x="32" y="48" text-anchor="middle" font-family="Arial, sans-serif" font-size="8" font-weight="700" fill="#0F172A">1</text>
      <text x="58" y="40" font-family="Arial, sans-serif" font-size="10" font-weight="700" fill="#F59E0B">100%</text>
    </g>
    <!-- Agent table -->
    <rect x="72" y="192" width="732" height="430" rx="10" fill="#fff" filter="url(#card-shadow-sm)" stroke="#F1F5F9" stroke-width="1"/>
    <line x1="88" y1="210" x2="788" y2="210" stroke="#E2E8F0" stroke-width="1"/>
    <text x="88" y="226" font-family="Arial, sans-serif" font-size="8" font-weight="600" fill="#94A3B8">#</text>
    <text x="110" y="226" font-family="Arial, sans-serif" font-size="8" font-weight="600" fill="#94A3B8">AGENT</text>
    <text x="310" y="226" font-family="Arial, sans-serif" font-size="8" font-weight="600" fill="#94A3B8">TASKS</text>
    <line x1="88" y1="234" x2="788" y2="234" stroke="#F1F5F9" stroke-width="1"/>
    <!-- Agent rows -->
    <text x="88" y="260" font-family="Arial, sans-serif" font-size="9" fill="#94A3B8">1</text>
    <circle cx="124" cy="256" r="12" fill="#dc2727"/><text x="124" y="260" text-anchor="middle" font-family="Arial, sans-serif" font-size="7" font-weight="700" fill="#fff">ADB</text>
    <text x="144" y="254" font-family="Arial, sans-serif" font-size="10" font-weight="600" fill="#0F172A">Ashley Dunne Byrne</text>
    <rect x="144" y="260" width="50" height="14" rx="7" fill="#DCFCE7"/><text x="169" y="270" text-anchor="middle" font-family="Arial, sans-serif" font-size="7" font-weight="600" fill="#16A34A">Available</text>
    <rect x="310" y="246" width="110" height="20" rx="5" fill="#F8FAFC" stroke="#E2E8F0" stroke-width="0.5"/><text x="318" y="260" font-family="Arial, sans-serif" font-size="8" fill="#64748B">David Johnson +1534...</text>
    <rect x="428" y="246" width="100" height="20" rx="5" fill="#F8FAFC" stroke="#E2E8F0" stroke-width="0.5"/><text x="436" y="260" font-family="Arial, sans-serif" font-size="8" fill="#64748B">Sarah Ehler +1 406...</text>
    <rect x="536" y="246" width="100" height="20" rx="5" fill="#F8FAFC" stroke="#E2E8F0" stroke-width="0.5"/><text x="544" y="260" font-family="Arial, sans-serif" font-size="8" fill="#64748B">Grace Taylor +1302...</text>
    <line x1="88" y1="282" x2="788" y2="282" stroke="#F8FAFC" stroke-width="1"/>
    <text x="88" y="308" font-family="Arial, sans-serif" font-size="9" fill="#94A3B8">2</text>
    <circle cx="124" cy="304" r="12" fill="#F59E0B"/><text x="124" y="308" text-anchor="middle" font-family="Arial, sans-serif" font-size="7" font-weight="700" fill="#fff">BA</text>
    <text x="144" y="302" font-family="Arial, sans-serif" font-size="10" font-weight="600" fill="#0F172A">Bence Akgor</text>
    <rect x="144" y="308" width="50" height="14" rx="7" fill="#DCFCE7"/><text x="169" y="318" text-anchor="middle" font-family="Arial, sans-serif" font-size="7" font-weight="600" fill="#16A34A">Available</text>
    <rect x="310" y="294" width="110" height="20" rx="5" fill="#F8FAFC" stroke="#E2E8F0" stroke-width="0.5"/><text x="318" y="308" font-family="Arial, sans-serif" font-size="8" fill="#64748B">Amy Thompson +143...</text>
    <line x1="88" y1="330" x2="788" y2="330" stroke="#F8FAFC" stroke-width="1"/>
    <text x="88" y="356" font-family="Arial, sans-serif" font-size="9" fill="#94A3B8">3</text>
    <circle cx="124" cy="352" r="12" fill="#4A90D9"/><text x="124" y="356" text-anchor="middle" font-family="Arial, sans-serif" font-size="7" font-weight="700" fill="#fff">RL</text>
    <text x="144" y="350" font-family="Arial, sans-serif" font-size="10" font-weight="600" fill="#0F172A">Robert Leahy</text>
    <rect x="144" y="356" width="50" height="14" rx="7" fill="#DCFCE7"/><text x="169" y="366" text-anchor="middle" font-family="Arial, sans-serif" font-size="7" font-weight="600" fill="#16A34A">Available</text>
    <rect x="310" y="342" width="110" height="20" rx="5" fill="#FEE2E2" stroke="#dc2727" stroke-width="0.5" stroke-opacity="0.2"/><text x="318" y="356" font-family="Arial, sans-serif" font-size="8" fill="#dc2727">Marcus Brown +1 7...</text>
    <line x1="88" y1="378" x2="788" y2="378" stroke="#F8FAFC" stroke-width="1"/>
    <text x="88" y="404" font-family="Arial, sans-serif" font-size="9" fill="#94A3B8">4</text>
    <circle cx="124" cy="400" r="12" fill="#A855F7"/><text x="124" y="404" text-anchor="middle" font-family="Arial, sans-serif" font-size="7" font-weight="700" fill="#fff">KL</text>
    <text x="144" y="398" font-family="Arial, sans-serif" font-size="10" font-weight="600" fill="#0F172A">Katherine Lykins</text>
    <rect x="144" y="404" width="50" height="14" rx="7" fill="#DCFCE7"/><text x="169" y="414" text-anchor="middle" font-family="Arial, sans-serif" font-size="7" font-weight="600" fill="#16A34A">Available</text>
    <rect x="310" y="390" width="120" height="20" rx="5" fill="#F8FAFC" stroke="#E2E8F0" stroke-width="0.5"/><text x="318" y="404" font-family="Arial, sans-serif" font-size="8" fill="#64748B">Carlos Rodriguez +52...</text>
    <line x1="88" y1="426" x2="788" y2="426" stroke="#F8FAFC" stroke-width="1"/>
    <text x="88" y="452" font-family="Arial, sans-serif" font-size="9" fill="#94A3B8">5</text>
    <circle cx="124" cy="448" r="12" fill="#14B8A6"/><text x="124" y="452" text-anchor="middle" font-family="Arial, sans-serif" font-size="7" font-weight="700" fill="#fff">RK</text>
    <text x="144" y="446" font-family="Arial, sans-serif" font-size="10" font-weight="600" fill="#0F172A">Rushan Kadaganchi</text>
    <rect x="144" y="452" width="42" height="14" rx="7" fill="#FEF3C7"/><text x="165" y="462" text-anchor="middle" font-family="Arial, sans-serif" font-size="7" font-weight="600" fill="#D97706">Offline</text>
    <line x1="88" y1="474" x2="788" y2="474" stroke="#F8FAFC" stroke-width="1"/>
    <text x="88" y="500" font-family="Arial, sans-serif" font-size="9" fill="#94A3B8">6</text>
    <circle cx="124" cy="496" r="12" fill="#E91E63"/><text x="124" y="500" text-anchor="middle" font-family="Arial, sans-serif" font-size="7" font-weight="700" fill="#fff">SK</text>
    <text x="144" y="494" font-family="Arial, sans-serif" font-size="10" font-weight="600" fill="#0F172A">Shauna Kavanagh</text>
    <rect x="144" y="500" width="50" height="14" rx="7" fill="#DCFCE7"/><text x="169" y="510" text-anchor="middle" font-family="Arial, sans-serif" font-size="7" font-weight="600" fill="#16A34A">Available</text>
    <rect x="310" y="486" width="100" height="20" rx="5" fill="#F8FAFC" stroke="#E2E8F0" stroke-width="0.5"/><text x="318" y="500" font-family="Arial, sans-serif" font-size="8" fill="#64748B">James Wilson +44 2...</text>
    <line x1="88" y1="522" x2="788" y2="522" stroke="#F8FAFC" stroke-width="1"/>
    <text x="88" y="548" font-family="Arial, sans-serif" font-size="9" fill="#94A3B8">7</text>
    <circle cx="124" cy="544" r="12" fill="#607D8B"/><text x="124" y="548" text-anchor="middle" font-family="Arial, sans-serif" font-size="7" font-weight="700" fill="#fff">HB</text>
    <text x="144" y="542" font-family="Arial, sans-serif" font-size="10" font-weight="600" fill="#0F172A">Hayley Bolger</text>
    <rect x="144" y="548" width="50" height="14" rx="7" fill="#DCFCE7"/><text x="169" y="558" text-anchor="middle" font-family="Arial, sans-serif" font-size="7" font-weight="600" fill="#16A34A">Available</text>
    <text x="720" y="604" font-family="Arial, sans-serif" font-size="8" fill="#94A3B8">1-7 of 14</text>

  </g>
</svg>