<svg xmlns="http://www.w3.org/2000/svg" viewBox="22 13 102 112">
  <style>
    path { fill: #dc2727; }
    @media (prefers-color-scheme: dark) {
      path { fill: #ffffff; }
    }
  </style>
  <path d="M117.26,41.13c-.86-2.62-1.82-5-2.87-7.21l-31.1,34.32,32.25,34.74c6.8-18.38,7.66-43.8,1.72-61.85Z"/>
  <path d="M58.11,64.78l42.46-47.31c-12.51-7.64-28.45-4.35-42.46,4.28v43.03Z"/>
  <path d="M58.11,73.7v41.64c13.73,8.78,28.68,13.27,38.53,10.16,2.33-.74,4.5-1.95,6.51-3.53l-45.04-48.27Z"/>
  <path d="M40.82,36.2c-11.44,12.63-18.29,28.21-14.7,40.7,2.46,8.61,7.84,16.91,14.7,24.18V36.2Z"/>
</svg>
