<svg xmlns="http://www.w3.org/2000/svg" viewBox="0 0 840 660" fill="none">
  <defs>
    <filter id="browser-shadow" x="-4%" y="-2%" width="108%" height="108%">
      <feDropShadow dx="0" dy="8" stdDeviation="20" flood-color="#0F172A" flood-opacity="0.12"/>
    </filter>
    <filter id="card-shadow-sm" x="-8%" y="-6%" width="116%" height="120%">
      <feDropShadow dx="0" dy="2" stdDeviation="4" flood-color="#0F172A" flood-opacity="0.06"/>
    </filter>
    <clipPath id="browser-clip">
      <rect x="20" y="20" width="800" height="620" rx="12"/>
    </clipPath>
  </defs>

  <!-- Browser window frame -->
  <g filter="url(#browser-shadow)">
    <rect x="20" y="20" width="800" height="620" rx="12" fill="#fff" stroke="#E2E8F0" stroke-width="1"/>

    <!-- Browser chrome bar -->
    <rect x="20" y="20" width="800" height="40" rx="12" fill="#F8FAFC"/>
    <!-- Bottom corners of chrome should be square where it meets content -->
    <rect x="20" y="48" width="800" height="12" fill="#F8FAFC"/>
    <line x1="20" y1="60" x2="820" y2="60" stroke="#E2E8F0" stroke-width="1"/>

    <!-- Traffic light dots -->
    <circle cx="44" cy="40" r="5.5" fill="#EF4444" opacity="0.8"/>
    <circle cx="64" cy="40" r="5.5" fill="#F59E0B" opacity="0.8"/>
    <circle cx="84" cy="40" r="5.5" fill="#22C55E" opacity="0.8"/>

    <!-- Address bar -->
    <rect x="110" y="30" width="500" height="22" rx="6" fill="#fff" stroke="#E2E8F0" stroke-width="1"/>
    <!-- Lock icon -->
    <circle cx="126" cy="41" r="4" fill="none" stroke="#94A3B8" stroke-width="1.2"/>
    <rect x="123" y="42" width="6" height="4" rx="1" fill="#94A3B8"/>
    <text x="140" y="45" font-family="Arial, sans-serif" font-size="10" fill="#94A3B8">app.kaptea.com/pronto/dashboard</text>

    <!-- Right side icons -->
    <circle cx="740" cy="41" r="3" fill="#CBD5E1"/>
    <circle cx="760" cy="41" r="3" fill="#CBD5E1"/>
    <circle cx="780" cy="41" r="3" fill="#CBD5E1"/>
  </g>

  <!-- Content area (clipped to browser frame) -->
  <g clip-path="url(#browser-clip)">
    <!-- White content background -->
    <rect x="20" y="60" width="800" height="580" fill="#fff"/>

    <!-- ====== Pronto sidebar sliver (left edge, dark navy) ====== -->
    <rect x="20" y="60" width="36" height="580" fill="#131521"/>
    <!-- Pronto P icon (scaled to fit sidebar) -->
    <g transform="translate(24, 64) scale(0.22)">
      <path fill="#dc2727" d="M68.01,25.4c-1.15-.31-2.36-.52-3.64-.63-1.28-.1-2.44-.16-3.48-.16h-28.57v41.33h28.57c1.04,0,2.2-.05,3.48-.16,1.28-.1,2.49-.29,3.64-.55,3.34-.78,6.03-2.23,8.06-4.34,2.04-2.11,3.5-4.55,4.38-7.32.89-2.76,1.33-5.53,1.33-8.3s-.44-5.52-1.33-8.26c-.89-2.74-2.35-5.17-4.38-7.28-2.03-2.11-4.72-3.56-8.06-4.35Z"/>
      <path fill="#dc2727" d="M61.51,9.2c1.1,0,2.45.04,4.07.12,1.62.08,3.16.25,4.62.51,6.26.99,11.49,3.13,15.7,6.42.9.7,1.74,1.46,2.55,2.24C75.57-5.65,51.5-3.45,31.66,9.2h29.84Z"/>
      <path fill="#dc2727" d="M95.33,61.96c-2.09,5.01-5.23,9.16-9.43,12.45-4.2,3.29-9.43,5.43-15.7,6.42-1.46.21-3.01.37-4.66.47-1.64.11-2.99.16-4.03.16h-29.2v20.16c13.99,9.03,29.34,13.68,39.42,10.49,15.25-4.81,23.85-28.95,24.65-53.02-.32.97-.66,1.93-1.05,2.87Z"/>
      <path fill="#dc2727" d="M14.95,23.43C3.73,35.95-2.9,51.26.66,63.58c2.42,8.38,7.63,16.47,14.28,23.6V23.43Z"/>
    </g>
    <!-- Sidebar icons -->
    <g fill="#fff" fill-opacity="0.35">
      <rect x="30" y="102" width="16" height="2" rx="1"/>
      <rect x="30" y="106" width="10" height="2" rx="1"/>
      <rect x="30" y="110" width="16" height="2" rx="1"/>
    </g>
    <rect x="20" y="122" width="2.5" height="20" rx="1.2" fill="#dc2727"/>

    <!-- ====== KPI CARDS ====== -->

    <!-- Card 1: Messages -->
    <g transform="translate(72, 74)">
      <rect width="178" height="98" rx="12" fill="#fff" filter="url(#card-shadow-sm)" stroke="#F1F5F9" stroke-width="1"/>
      <rect width="178" height="3" rx="1.5" fill="#D32F2F" opacity="0.6"/>
      <circle cx="22" cy="28" r="13" fill="#D32F2F" opacity="0.07"/>
      <text x="22" y="32" text-anchor="middle" font-family="Arial, sans-serif" font-size="11" fill="#D32F2F">&#9993;</text>
      <text x="42" y="24" font-family="Arial, sans-serif" font-size="9" fill="#64748B">Messages &amp; Calls</text>
      <text x="42" y="36" font-family="Arial, sans-serif" font-size="8" font-weight="600" fill="#16A34A">&#9650; 14.2%</text>
      <text x="14" y="64" font-family="Arial, sans-serif" font-size="26" font-weight="700" fill="#0F172A">48,483</text>
      <!-- Sparkline -->
      <polyline points="14,84 34,82 54,78 74,80 94,74 114,76 134,70 154,72 170,66" fill="none" stroke="#D32F2F" stroke-width="1.5" stroke-linecap="round" opacity="0.4"/>
      <polyline points="14,84 34,82 54,78 74,80 94,74 114,76 134,70 154,72 170,66 170,90 14,90" fill="#D32F2F" opacity="0.04"/>
    </g>

    <!-- Card 2: Delivery Rate -->
    <g transform="translate(264, 74)">
      <rect width="178" height="98" rx="12" fill="#fff" filter="url(#card-shadow-sm)" stroke="#F1F5F9" stroke-width="1"/>
      <rect width="178" height="3" rx="1.5" fill="#16A34A" opacity="0.6"/>
      <circle cx="22" cy="28" r="13" fill="#16A34A" opacity="0.07"/>
      <circle cx="22" cy="28" r="8" fill="none" stroke="#E2E8F0" stroke-width="2.5"/>
      <circle cx="22" cy="28" r="8" fill="none" stroke="#16A34A" stroke-width="2.5" stroke-dasharray="48 52" stroke-linecap="round" transform="rotate(-90 22 28)"/>
      <text x="42" y="24" font-family="Arial, sans-serif" font-size="9" fill="#64748B">Delivery Rate</text>
      <text x="42" y="36" font-family="Arial, sans-serif" font-size="8" font-weight="600" fill="#16A34A">&#9650; 0.3%</text>
      <text x="14" y="64" font-family="Arial, sans-serif" font-size="26" font-weight="700" fill="#0F172A">99.1%</text>
      <polyline points="14,84 34,83 54,84 74,83 94,84 114,83 134,84 154,83 170,84" fill="none" stroke="#16A34A" stroke-width="1.5" stroke-linecap="round" opacity="0.4"/>
    </g>

    <!-- Card 3: Engagement -->
    <g transform="translate(456, 74)">
      <rect width="178" height="98" rx="12" fill="#fff" filter="url(#card-shadow-sm)" stroke="#F1F5F9" stroke-width="1"/>
      <rect width="178" height="3" rx="1.5" fill="#F59E0B" opacity="0.6"/>
      <circle cx="22" cy="28" r="13" fill="#F59E0B" opacity="0.07"/>
      <circle cx="22" cy="28" r="8" fill="none" stroke="#E2E8F0" stroke-width="2.5"/>
      <circle cx="22" cy="28" r="8" fill="none" stroke="#F59E0B" stroke-width="2.5" stroke-dasharray="39 52" stroke-linecap="round" transform="rotate(-90 22 28)"/>
      <text x="42" y="24" font-family="Arial, sans-serif" font-size="9" fill="#64748B">Engagement Rate</text>
      <text x="42" y="36" font-family="Arial, sans-serif" font-size="8" font-weight="600" fill="#16A34A">&#9650; 5.8%</text>
      <text x="14" y="64" font-family="Arial, sans-serif" font-size="26" font-weight="700" fill="#0F172A">78.2%</text>
      <polyline points="14,84 34,80 54,82 74,76 94,78 114,72 134,74 154,68 170,66" fill="none" stroke="#F59E0B" stroke-width="1.5" stroke-linecap="round" opacity="0.4"/>
    </g>

    <!-- Card 4: Click Rate -->
    <g transform="translate(648, 74)">
      <rect width="160" height="98" rx="12" fill="#fff" filter="url(#card-shadow-sm)" stroke="#F1F5F9" stroke-width="1"/>
      <rect width="160" height="3" rx="1.5" fill="#4A90D9" opacity="0.6"/>
      <circle cx="22" cy="28" r="13" fill="#4A90D9" opacity="0.07"/>
      <text x="22" y="32" text-anchor="middle" font-family="Arial, sans-serif" font-size="11" fill="#4A90D9">&#8593;</text>
      <text x="42" y="24" font-family="Arial, sans-serif" font-size="9" fill="#64748B">Click Rate</text>
      <text x="42" y="36" font-family="Arial, sans-serif" font-size="8" font-weight="600" fill="#16A34A">&#9650; 2.1%</text>
      <text x="14" y="64" font-family="Arial, sans-serif" font-size="26" font-weight="700" fill="#0F172A">37.0%</text>
      <polyline points="14,84 34,80 54,82 74,78 94,76 114,74 134,72 146,68" fill="none" stroke="#4A90D9" stroke-width="1.5" stroke-linecap="round" opacity="0.4"/>
    </g>

    <!-- ====== CHANNEL BREAKDOWN BAR ====== -->
    <g transform="translate(72, 186)">
      <rect width="736" height="50" rx="10" fill="#fff" filter="url(#card-shadow-sm)" stroke="#F1F5F9" stroke-width="1"/>
      <text x="14" y="18" font-family="Arial, sans-serif" font-size="10" font-weight="600" fill="#0F172A">Channel Breakdown</text>

      <circle cx="22" cy="38" r="5" fill="#25D366" opacity="0.15"/>
      <text x="22" y="41" text-anchor="middle" font-family="Arial, sans-serif" font-size="6" fill="#25D366">W</text>
      <text x="32" y="34" font-family="Arial, sans-serif" font-size="11" font-weight="700" fill="#0F172A">8,562</text>
      <text x="32" y="44" font-family="Arial, sans-serif" font-size="8" fill="#94A3B8">WhatsApp</text>
      <text x="78" y="44" font-family="Arial, sans-serif" font-size="8" font-weight="600" fill="#16A34A">+46%</text>

      <circle cx="132" cy="38" r="5" fill="#4A90D9" opacity="0.15"/>
      <text x="142" y="34" font-family="Arial, sans-serif" font-size="11" font-weight="700" fill="#0F172A">12,847</text>
      <text x="142" y="44" font-family="Arial, sans-serif" font-size="8" fill="#94A3B8">SMS</text>
      <text x="162" y="44" font-family="Arial, sans-serif" font-size="8" font-weight="600" fill="#16A34A">+22%</text>

      <circle cx="222" cy="38" r="5" fill="#A855F7" opacity="0.15"/>
      <text x="232" y="34" font-family="Arial, sans-serif" font-size="11" font-weight="700" fill="#0F172A">6,543</text>
      <text x="232" y="44" font-family="Arial, sans-serif" font-size="8" fill="#94A3B8">Chat</text>
      <text x="254" y="44" font-family="Arial, sans-serif" font-size="8" font-weight="600" fill="#16A34A">+18%</text>

      <circle cx="310" cy="38" r="5" fill="#F59E0B" opacity="0.15"/>
      <text x="320" y="34" font-family="Arial, sans-serif" font-size="11" font-weight="700" fill="#0F172A">1,876</text>
      <text x="320" y="44" font-family="Arial, sans-serif" font-size="8" fill="#94A3B8">RCS</text>
      <text x="340" y="44" font-family="Arial, sans-serif" font-size="8" font-weight="600" fill="#16A34A">+127%</text>

      <circle cx="398" cy="38" r="5" fill="#14B8A6" opacity="0.15"/>
      <text x="408" y="34" font-family="Arial, sans-serif" font-size="11" font-weight="700" fill="#0F172A">15,234</text>
      <text x="408" y="44" font-family="Arial, sans-serif" font-size="8" fill="#94A3B8">Email</text>
      <text x="432" y="44" font-family="Arial, sans-serif" font-size="8" font-weight="600" fill="#EF4444">-8.7%</text>

      <circle cx="490" cy="38" r="5" fill="#EF4444" opacity="0.15"/>
      <text x="500" y="34" font-family="Arial, sans-serif" font-size="11" font-weight="700" fill="#0F172A">3,421</text>
      <text x="500" y="44" font-family="Arial, sans-serif" font-size="8" fill="#94A3B8">Voice Calls</text>
      <text x="550" y="44" font-family="Arial, sans-serif" font-size="8" font-weight="600" fill="#16A34A">+5.8%</text>
    </g>

    <!-- ====== DONUT CHART ====== -->
    <g transform="translate(72, 248)">
      <rect width="350" height="372" rx="12" fill="#fff" filter="url(#card-shadow-sm)" stroke="#F1F5F9" stroke-width="1"/>
      <text x="18" y="26" font-family="Arial, sans-serif" font-size="12" font-weight="700" fill="#0F172A">Channel Distribution</text>

      <g transform="translate(175, 180)">
        <circle cx="0" cy="0" r="100" fill="none" stroke="#F1F5F9" stroke-width="28"/>
        <!-- WhatsApp -->
        <circle cx="0" cy="0" r="100" fill="none" stroke="#25D366" stroke-width="28" stroke-dasharray="111 517" stroke-dashoffset="157" stroke-linecap="butt"/>
        <!-- SMS -->
        <circle cx="0" cy="0" r="100" fill="none" stroke="#4A90D9" stroke-width="28" stroke-dasharray="166 462" stroke-dashoffset="46" stroke-linecap="butt"/>
        <!-- Chat -->
        <circle cx="0" cy="0" r="100" fill="none" stroke="#A855F7" stroke-width="28" stroke-dasharray="85 543" stroke-dashoffset="-120" stroke-linecap="butt"/>
        <!-- RCS -->
        <circle cx="0" cy="0" r="100" fill="none" stroke="#F59E0B" stroke-width="28" stroke-dasharray="25 603" stroke-dashoffset="-205" stroke-linecap="butt"/>
        <!-- Email -->
        <circle cx="0" cy="0" r="100" fill="none" stroke="#14B8A6" stroke-width="28" stroke-dasharray="197 431" stroke-dashoffset="-230" stroke-linecap="butt"/>
        <!-- Voice -->
        <circle cx="0" cy="0" r="100" fill="none" stroke="#EF4444" stroke-width="28" stroke-dasharray="44 584" stroke-dashoffset="-427" stroke-linecap="butt"/>

        <text x="0" y="-10" text-anchor="middle" font-family="Arial, sans-serif" font-size="28" font-weight="700" fill="#0F172A">48,483</text>
        <text x="0" y="12" text-anchor="middle" font-family="Arial, sans-serif" font-size="10" fill="#94A3B8">Total Messages</text>
      </g>

      <!-- Legend -->
      <g transform="translate(24, 310)">
        <circle cx="0" cy="0" r="4" fill="#25D366"/>
        <text x="10" y="3" font-family="Arial, sans-serif" font-size="9" fill="#64748B">WhatsApp</text>
        <text x="70" y="3" font-family="Arial, sans-serif" font-size="9" font-weight="600" fill="#0F172A">8,562</text>
        <text x="104" y="3" font-family="Arial, sans-serif" font-size="9" fill="#94A3B8">17.7%</text>

        <circle cx="150" cy="0" r="4" fill="#4A90D9"/>
        <text x="160" y="3" font-family="Arial, sans-serif" font-size="9" fill="#64748B">SMS</text>
        <text x="186" y="3" font-family="Arial, sans-serif" font-size="9" font-weight="600" fill="#0F172A">12,847</text>
        <text x="226" y="3" font-family="Arial, sans-serif" font-size="9" fill="#94A3B8">26.5%</text>

        <circle cx="0" cy="22" r="4" fill="#A855F7"/>
        <text x="10" y="25" font-family="Arial, sans-serif" font-size="9" fill="#64748B">Chat</text>
        <text x="40" y="25" font-family="Arial, sans-serif" font-size="9" font-weight="600" fill="#0F172A">6,543</text>
        <text x="74" y="25" font-family="Arial, sans-serif" font-size="9" fill="#94A3B8">13.5%</text>

        <circle cx="120" cy="22" r="4" fill="#F59E0B"/>
        <text x="130" y="25" font-family="Arial, sans-serif" font-size="9" fill="#64748B">RCS</text>
        <text x="156" y="25" font-family="Arial, sans-serif" font-size="9" font-weight="600" fill="#0F172A">1,876</text>

        <circle cx="0" cy="44" r="4" fill="#14B8A6"/>
        <text x="10" y="47" font-family="Arial, sans-serif" font-size="9" fill="#64748B">Email</text>
        <text x="44" y="47" font-family="Arial, sans-serif" font-size="9" font-weight="600" fill="#0F172A">15,234</text>
        <text x="82" y="47" font-family="Arial, sans-serif" font-size="9" fill="#94A3B8">31.4%</text>

        <circle cx="140" cy="44" r="4" fill="#EF4444"/>
        <text x="150" y="47" font-family="Arial, sans-serif" font-size="9" fill="#64748B">Voice</text>
        <text x="182" y="47" font-family="Arial, sans-serif" font-size="9" font-weight="600" fill="#0F172A">3,421</text>
      </g>
    </g>

    <!-- ====== BAR CHART ====== -->
    <g transform="translate(436, 248)">
      <rect width="372" height="372" rx="12" fill="#fff" filter="url(#card-shadow-sm)" stroke="#F1F5F9" stroke-width="1"/>
      <text x="18" y="26" font-family="Arial, sans-serif" font-size="12" font-weight="700" fill="#0F172A">Message Volume by Channel</text>
      <text x="18" y="42" font-family="Arial, sans-serif" font-size="9" fill="#94A3B8">Last 24 Hours</text>

      <!-- Y axis -->
      <text x="18" y="72" font-family="Arial, sans-serif" font-size="8" fill="#CBD5E1">7k</text>
      <text x="18" y="122" font-family="Arial, sans-serif" font-size="8" fill="#CBD5E1">5k</text>
      <text x="18" y="172" font-family="Arial, sans-serif" font-size="8" fill="#CBD5E1">3k</text>
      <text x="18" y="222" font-family="Arial, sans-serif" font-size="8" fill="#CBD5E1">1k</text>
      <text x="18" y="262" font-family="Arial, sans-serif" font-size="8" fill="#CBD5E1">0</text>

      <!-- Grid -->
      <line x1="38" y1="68" x2="352" y2="68" stroke="#F8FAFC" stroke-width="1"/>
      <line x1="38" y1="118" x2="352" y2="118" stroke="#F8FAFC" stroke-width="1"/>
      <line x1="38" y1="168" x2="352" y2="168" stroke="#F8FAFC" stroke-width="1"/>
      <line x1="38" y1="218" x2="352" y2="218" stroke="#F8FAFC" stroke-width="1"/>
      <line x1="38" y1="258" x2="352" y2="258" stroke="#F8FAFC" stroke-width="1"/>

      <!-- Stacked bars -->
      <!-- 06:00 -->
      <rect x="48" y="200" width="32" height="58" fill="#25D366"/>
      <rect x="48" y="168" width="32" height="32" fill="#4A90D9"/>
      <rect x="48" y="148" width="32" height="20" fill="#A855F7"/>
      <rect x="48" y="132" width="32" height="16" fill="#14B8A6"/>
      <rect x="48" y="122" width="32" height="10" rx="2" fill="#EF4444"/>
      <!-- 09:00 -->
      <rect x="92" y="176" width="32" height="82" fill="#25D366"/>
      <rect x="92" y="136" width="32" height="40" fill="#4A90D9"/>
      <rect x="92" y="110" width="32" height="26" fill="#A855F7"/>
      <rect x="92" y="90" width="32" height="20" fill="#14B8A6"/>
      <rect x="92" y="78" width="32" height="12" rx="2" fill="#EF4444"/>
      <!-- 12:00 (peak) -->
      <rect x="136" y="158" width="32" height="100" fill="#25D366"/>
      <rect x="136" y="110" width="32" height="48" fill="#4A90D9"/>
      <rect x="136" y="80" width="32" height="30" fill="#A855F7"/>
      <rect x="136" y="58" width="32" height="22" fill="#14B8A6"/>
      <rect x="136" y="46" width="32" height="12" rx="2" fill="#EF4444"/>
      <!-- 15:00 -->
      <rect x="180" y="168" width="32" height="90" fill="#25D366"/>
      <rect x="180" y="124" width="32" height="44" fill="#4A90D9"/>
      <rect x="180" y="98" width="32" height="26" fill="#A855F7"/>
      <rect x="180" y="78" width="32" height="20" fill="#14B8A6"/>
      <rect x="180" y="68" width="32" height="10" rx="2" fill="#EF4444"/>
      <!-- 18:00 -->
      <rect x="224" y="186" width="32" height="72" fill="#25D366"/>
      <rect x="224" y="146" width="32" height="40" fill="#4A90D9"/>
      <rect x="224" y="124" width="32" height="22" fill="#A855F7"/>
      <rect x="224" y="108" width="32" height="16" fill="#14B8A6"/>
      <rect x="224" y="98" width="32" height="10" rx="2" fill="#EF4444"/>
      <!-- 21:00 -->
      <rect x="268" y="210" width="32" height="48" fill="#25D366"/>
      <rect x="268" y="182" width="32" height="28" fill="#4A90D9"/>
      <rect x="268" y="166" width="32" height="16" fill="#A855F7"/>
      <rect x="268" y="154" width="32" height="12" fill="#14B8A6"/>
      <rect x="268" y="146" width="32" height="8" rx="2" fill="#EF4444"/>
      <!-- 03:00 -->
      <rect x="312" y="230" width="32" height="28" fill="#25D366"/>
      <rect x="312" y="214" width="32" height="16" fill="#4A90D9"/>
      <rect x="312" y="204" width="32" height="10" fill="#A855F7"/>
      <rect x="312" y="196" width="32" height="8" fill="#14B8A6"/>
      <rect x="312" y="190" width="32" height="6" rx="2" fill="#EF4444"/>

      <!-- X labels -->
      <text x="64" y="276" text-anchor="middle" font-family="Arial, sans-serif" font-size="8" fill="#CBD5E1">06:00</text>
      <text x="108" y="276" text-anchor="middle" font-family="Arial, sans-serif" font-size="8" fill="#CBD5E1">09:00</text>
      <text x="152" y="276" text-anchor="middle" font-family="Arial, sans-serif" font-size="8" fill="#0F172A" font-weight="600">12:00</text>
      <text x="196" y="276" text-anchor="middle" font-family="Arial, sans-serif" font-size="8" fill="#CBD5E1">15:00</text>
      <text x="240" y="276" text-anchor="middle" font-family="Arial, sans-serif" font-size="8" fill="#CBD5E1">18:00</text>
      <text x="284" y="276" text-anchor="middle" font-family="Arial, sans-serif" font-size="8" fill="#CBD5E1">21:00</text>
      <text x="328" y="276" text-anchor="middle" font-family="Arial, sans-serif" font-size="8" fill="#CBD5E1">03:00</text>

      <!-- Legend -->
      <g transform="translate(18, 296)">
        <circle cx="0" cy="0" r="3.5" fill="#25D366"/>
        <text x="8" y="3" font-family="Arial, sans-serif" font-size="8" fill="#94A3B8">WhatsApp</text>
        <circle cx="66" cy="0" r="3.5" fill="#4A90D9"/>
        <text x="74" y="3" font-family="Arial, sans-serif" font-size="8" fill="#94A3B8">SMS</text>
        <circle cx="102" cy="0" r="3.5" fill="#A855F7"/>
        <text x="110" y="3" font-family="Arial, sans-serif" font-size="8" fill="#94A3B8">Chat</text>
        <circle cx="144" cy="0" r="3.5" fill="#F59E0B"/>
        <text x="152" y="3" font-family="Arial, sans-serif" font-size="8" fill="#94A3B8">RCS</text>
        <circle cx="180" cy="0" r="3.5" fill="#14B8A6"/>
        <text x="188" y="3" font-family="Arial, sans-serif" font-size="8" fill="#94A3B8">Email</text>
        <circle cx="224" cy="0" r="3.5" fill="#EF4444"/>
        <text x="232" y="3" font-family="Arial, sans-serif" font-size="8" fill="#94A3B8">Voice</text>
      </g>

      <!-- Bottom channel summary pills -->
      <g transform="translate(18, 326)">
        <rect width="74" height="26" rx="13" fill="#25D366" opacity="0.06" stroke="#25D366" stroke-width="0.5" stroke-opacity="0.2"/>
        <circle cx="14" cy="13" r="4" fill="#25D366"/>
        <text x="22" y="17" font-family="Arial, sans-serif" font-size="8" font-weight="600" fill="#25D366">WhatsApp</text>

        <rect x="82" y="0" width="52" height="26" rx="13" fill="#4A90D9" opacity="0.06" stroke="#4A90D9" stroke-width="0.5" stroke-opacity="0.2"/>
        <circle cx="96" cy="13" r="4" fill="#4A90D9"/>
        <text x="104" y="17" font-family="Arial, sans-serif" font-size="8" font-weight="600" fill="#4A90D9">SMS</text>

        <rect x="142" y="0" width="52" height="26" rx="13" fill="#A855F7" opacity="0.06" stroke="#A855F7" stroke-width="0.5" stroke-opacity="0.2"/>
        <circle cx="156" cy="13" r="4" fill="#A855F7"/>
        <text x="164" y="17" font-family="Arial, sans-serif" font-size="8" font-weight="600" fill="#A855F7">Chat</text>

        <rect x="202" y="0" width="56" height="26" rx="13" fill="#14B8A6" opacity="0.06" stroke="#14B8A6" stroke-width="0.5" stroke-opacity="0.2"/>
        <circle cx="216" cy="13" r="4" fill="#14B8A6"/>
        <text x="224" y="17" font-family="Arial, sans-serif" font-size="8" font-weight="600" fill="#14B8A6">Email</text>

        <rect x="266" y="0" width="56" height="26" rx="13" fill="#EF4444" opacity="0.06" stroke="#EF4444" stroke-width="0.5" stroke-opacity="0.2"/>
        <circle cx="280" cy="13" r="4" fill="#EF4444"/>
        <text x="288" y="17" font-family="Arial, sans-serif" font-size="8" font-weight="600" fill="#EF4444">Voice</text>
      </g>
    </g>
  </g>
</svg>