<svg xmlns="http://www.w3.org/2000/svg" viewBox="0 0 840 660" fill="none">
  <defs>
    <filter id="browser-shadow" x="-4%" y="-2%" width="108%" height="108%">
      <feDropShadow dx="0" dy="8" stdDeviation="20" flood-color="#0F172A" flood-opacity="0.12"/>
    </filter>
    <filter id="card-shadow-sm" x="-8%" y="-6%" width="116%" height="120%">
      <feDropShadow dx="0" dy="2" stdDeviation="4" flood-color="#0F172A" flood-opacity="0.06"/>
    </filter>
    <clipPath id="browser-clip">
      <rect x="20" y="20" width="800" height="620" rx="12"/>
    </clipPath>
  </defs>

  <g filter="url(#browser-shadow)">
    <rect x="20" y="20" width="800" height="620" rx="12" fill="#fff" stroke="#E2E8F0" stroke-width="1"/>
    <rect x="20" y="20" width="800" height="40" rx="12" fill="#F8FAFC"/>
    <rect x="20" y="48" width="800" height="12" fill="#F8FAFC"/>
    <line x1="20" y1="60" x2="820" y2="60" stroke="#E2E8F0" stroke-width="1"/>
    <circle cx="44" cy="40" r="5.5" fill="#EF4444" opacity="0.8"/>
    <circle cx="64" cy="40" r="5.5" fill="#F59E0B" opacity="0.8"/>
    <circle cx="84" cy="40" r="5.5" fill="#22C55E" opacity="0.8"/>
    <rect x="110" y="30" width="500" height="22" rx="6" fill="#fff" stroke="#E2E8F0" stroke-width="1"/>
    <circle cx="126" cy="41" r="4" fill="none" stroke="#94A3B8" stroke-width="1.2"/>
    <rect x="123" y="42" width="6" height="4" rx="1" fill="#94A3B8"/>
    <text x="140" y="45" font-family="Arial, sans-serif" font-size="10" fill="#94A3B8">app.kaptea.com/pronto/conversations</text>
    <circle cx="740" cy="41" r="3" fill="#CBD5E1"/>
    <circle cx="760" cy="41" r="3" fill="#CBD5E1"/>
    <circle cx="780" cy="41" r="3" fill="#CBD5E1"/>
  </g>

  <g clip-path="url(#browser-clip)">
    <rect x="20" y="60" width="800" height="580" fill="#fff"/>
    <!-- Pronto sidebar -->
    <rect x="20" y="60" width="36" height="580" fill="#131521"/>
    <g transform="translate(24, 64) scale(0.22)">
      <path fill="#dc2727" d="M68.01,25.4c-1.15-.31-2.36-.52-3.64-.63-1.28-.1-2.44-.16-3.48-.16h-28.57v41.33h28.57c1.04,0,2.2-.05,3.48-.16,1.28-.1,2.49-.29,3.64-.55,3.34-.78,6.03-2.23,8.06-4.34,2.04-2.11,3.5-4.55,4.38-7.32.89-2.76,1.33-5.53,1.33-8.3s-.44-5.52-1.33-8.26c-.89-2.74-2.35-5.17-4.38-7.28-2.03-2.11-4.72-3.56-8.06-4.35Z"/>
      <path fill="#dc2727" d="M61.51,9.2c1.1,0,2.45.04,4.07.12,1.62.08,3.16.25,4.62.51,6.26.99,11.49,3.13,15.7,6.42.9.7,1.74,1.46,2.55,2.24C75.57-5.65,51.5-3.45,31.66,9.2h29.84Z"/>
      <path fill="#dc2727" d="M95.33,61.96c-2.09,5.01-5.23,9.16-9.43,12.45-4.2,3.29-9.43,5.43-15.7,6.42-1.46.21-3.01.37-4.66.47-1.64.11-2.99.16-4.03.16h-29.2v20.16c13.99,9.03,29.34,13.68,39.42,10.49,15.25-4.81,23.85-28.95,24.65-53.02-.32.97-.66,1.93-1.05,2.87Z"/>
      <path fill="#dc2727" d="M14.95,23.43C3.73,35.95-2.9,51.26.66,63.58c2.42,8.38,7.63,16.47,14.28,23.6V23.43Z"/>
    </g>
    <g fill="#fff" fill-opacity="0.35">
      <rect x="30" y="102" width="16" height="2" rx="1"/>
      <rect x="30" y="106" width="10" height="2" rx="1"/>
      <rect x="30" y="110" width="16" height="2" rx="1"/>
    </g>
    <rect x="20" y="122" width="2.5" height="20" rx="1.2" fill="#dc2727"/>

    <!-- Page content starts at x=56 y=60 -->

    <!-- Contact list panel -->
    <rect x="56" y="60" width="200" height="580" fill="#FAFBFC"/>
    <line x1="256" y1="60" x2="256" y2="640" stroke="#E2E8F0" stroke-width="1"/>
    <text x="72" y="84" font-family="Arial, sans-serif" font-size="13" font-weight="700" fill="#0F172A">My Conversations</text>
    <!-- Tabs -->
    <rect x="68" y="92" width="50" height="22" rx="11" fill="#dc2727"/>
    <text x="93" y="107" text-anchor="middle" font-family="Arial, sans-serif" font-size="9" font-weight="600" fill="#fff">Open</text>
    <rect x="124" y="92" width="62" height="22" rx="11" fill="#F1F5F9"/>
    <text x="155" y="107" text-anchor="middle" font-family="Arial, sans-serif" font-size="9" fill="#64748B">Resolved</text>
    <!-- Search -->
    <rect x="68" y="122" width="176" height="26" rx="8" fill="#F1F5F9" stroke="#E2E8F0" stroke-width="1"/>
    <text x="82" y="139" font-family="Arial, sans-serif" font-size="9" fill="#94A3B8">Search...</text>
    <!-- Contact 1 active -->
    <rect x="64" y="156" width="184" height="52" rx="8" fill="#dc2727" opacity="0.06" stroke="#dc2727" stroke-width="0.5" stroke-opacity="0.15"/>
    <circle cx="82" cy="182" r="14" fill="#16A34A"/>
    <text x="82" y="186" text-anchor="middle" font-family="Arial, sans-serif" font-size="9" font-weight="700" fill="#fff">OE</text>
    <circle cx="92" cy="190" r="4" fill="#4ADE80" stroke="#FAFBFC" stroke-width="1.5"/>
    <text x="102" y="176" font-family="Arial, sans-serif" font-size="10" font-weight="600" fill="#0F172A">Olivia Evans</text>
    <text x="210" y="176" font-family="Arial, sans-serif" font-size="8" fill="#94A3B8">10:15</text>
    <text x="102" y="190" font-family="Arial, sans-serif" font-size="9" fill="#64748B">Absolutely! Let me kno...</text>
    <circle cx="236" cy="182" r="7" fill="#dc2727"/>
    <text x="236" y="185" text-anchor="middle" font-family="Arial, sans-serif" font-size="7" font-weight="700" fill="#fff">2</text>
    <!-- Contact 2 -->
    <circle cx="82" cy="232" r="14" fill="#4A90D9"/>
    <text x="82" y="236" text-anchor="middle" font-family="Arial, sans-serif" font-size="9" font-weight="700" fill="#fff">ER</text>
    <text x="102" y="226" font-family="Arial, sans-serif" font-size="10" font-weight="600" fill="#334155">Emily Rodriguez</text>
    <text x="210" y="226" font-family="Arial, sans-serif" font-size="8" fill="#94A3B8">09:48</text>
    <text x="102" y="240" font-family="Arial, sans-serif" font-size="9" fill="#64748B">Thanks for the help...</text>
    <!-- Contact 3 -->
    <circle cx="82" cy="276" r="14" fill="#F59E0B"/>
    <text x="82" y="280" text-anchor="middle" font-family="Arial, sans-serif" font-size="9" font-weight="700" fill="#fff">MC</text>
    <text x="102" y="270" font-family="Arial, sans-serif" font-size="10" font-weight="600" fill="#334155">Michael Chen</text>
    <text x="210" y="270" font-family="Arial, sans-serif" font-size="8" fill="#94A3B8">09:22</text>
    <text x="102" y="284" font-family="Arial, sans-serif" font-size="9" fill="#64748B">Check export delivery?</text>
    <rect x="174" y="286" width="58" height="14" rx="7" fill="#25D366" opacity="0.08"/>
    <text x="203" y="296" text-anchor="middle" font-family="Arial, sans-serif" font-size="7" font-weight="600" fill="#25D366">WhatsApp</text>
    <!-- Contact 4 -->
    <circle cx="82" cy="322" r="14" fill="#A855F7"/>
    <text x="82" y="326" text-anchor="middle" font-family="Arial, sans-serif" font-size="9" font-weight="700" fill="#fff">JT</text>
    <text x="102" y="316" font-family="Arial, sans-serif" font-size="10" fill="#334155">Jessica Taylor</text>
    <text x="102" y="330" font-family="Arial, sans-serif" font-size="9" fill="#64748B">Reschedule the demo?</text>
    <!-- Contact 5 -->
    <circle cx="82" cy="366" r="14" fill="#14B8A6"/>
    <text x="82" y="370" text-anchor="middle" font-family="Arial, sans-serif" font-size="9" font-weight="700" fill="#fff">DP</text>
    <text x="102" y="360" font-family="Arial, sans-serif" font-size="10" fill="#334155">David Park</text>
    <text x="102" y="374" font-family="Arial, sans-serif" font-size="9" fill="#64748B">Partnership opportunity</text>
    <rect x="194" y="376" width="40" height="14" rx="7" fill="#4A90D9" opacity="0.08"/>
    <text x="214" y="386" text-anchor="middle" font-family="Arial, sans-serif" font-size="7" font-weight="600" fill="#4A90D9">SMS</text>
    <!-- Contact 6 -->
    <circle cx="82" cy="410" r="14" fill="#607D8B"/>
    <text x="82" y="414" text-anchor="middle" font-family="Arial, sans-serif" font-size="9" font-weight="700" fill="#fff">AW</text>
    <text x="102" y="404" font-family="Arial, sans-serif" font-size="10" fill="#334155">Amanda Wilson</text>
    <text x="102" y="418" font-family="Arial, sans-serif" font-size="9" fill="#64748B">Sent mockups last night</text>

    <!-- Chat thread panel -->
    <rect x="256" y="60" width="400" height="580" fill="#fff"/>
    <line x1="256" y1="110" x2="656" y2="110" stroke="#E2E8F0" stroke-width="1"/>
    <circle cx="280" cy="85" r="14" fill="#16A34A"/>
    <text x="280" y="89" text-anchor="middle" font-family="Arial, sans-serif" font-size="9" font-weight="700" fill="#fff">OE</text>
    <text x="300" y="80" font-family="Arial, sans-serif" font-size="12" font-weight="600" fill="#0F172A">Olivia Evans</text>
    <circle cx="370" cy="76" r="3.5" fill="#4ADE80"/>
    <text x="300" y="96" font-family="Arial, sans-serif" font-size="9" fill="#16A34A">Online</text>
    <!-- Incoming 1 -->
    <rect x="272" y="122" width="250" height="38" rx="12" fill="#F1F5F9"/>
    <text x="284" y="138" font-family="Arial, sans-serif" font-size="10" fill="#334155">Of course! I have some updates on that.</text>
    <text x="284" y="152" font-family="Arial, sans-serif" font-size="10" fill="#334155">Let me pull up my notes.</text>
    <text x="488" y="154" font-family="Arial, sans-serif" font-size="7" fill="#94A3B8">09:41</text>
    <!-- Incoming 2 -->
    <rect x="272" y="170" width="240" height="24" rx="12" fill="#F1F5F9"/>
    <text x="284" y="186" font-family="Arial, sans-serif" font-size="10" fill="#334155">This looks great! I'll review with the team.</text>
    <!-- File -->
    <rect x="272" y="202" width="180" height="38" rx="10" fill="#F0F4FF" stroke="#D0D8F0" stroke-width="1"/>
    <rect x="280" y="210" width="24" height="22" rx="5" fill="#4A90D9"/>
    <text x="292" y="224" text-anchor="middle" font-family="Arial, sans-serif" font-size="7" font-weight="700" fill="#fff">PDF</text>
    <text x="310" y="222" font-family="Arial, sans-serif" font-size="9" font-weight="600" fill="#0F172A">Project_Timeline_Q3.pdf</text>
    <text x="310" y="234" font-family="Arial, sans-serif" font-size="8" fill="#94A3B8">245 KB</text>
    <!-- Outgoing 1 -->
    <rect x="370" y="252" width="268" height="38" rx="12" fill="#dc2727"/>
    <text x="382" y="268" font-family="Arial, sans-serif" font-size="10" fill="#fff">Thanks for sharing! We'll text you when</text>
    <text x="382" y="282" font-family="Arial, sans-serif" font-size="10" fill="#fff">it ships. Changes confirmed.</text>
    <text x="608" y="284" font-family="Arial, sans-serif" font-size="7" fill="#fff" fill-opacity="0.6">09:47</text>
    <!-- Incoming 3 -->
    <rect x="272" y="302" width="274" height="24" rx="12" fill="#F1F5F9"/>
    <text x="284" y="318" font-family="Arial, sans-serif" font-size="10" fill="#334155">Perfect! The mockups look exactly what we need.</text>
    <!-- Image placeholder -->
    <rect x="272" y="336" width="200" height="120" rx="12" fill="#F1F5F9"/>
    <rect x="278" y="342" width="188" height="92" rx="8" fill="#E2E8F0"/>
    <circle cx="340" y="378" r="16" fill="#CBD5E1"/>
    <rect x="310" y="400" width="120" height="16" rx="4" fill="#CBD5E1"/>
    <text x="372" y="452" font-family="Arial, sans-serif" font-size="7" fill="#94A3B8">10:05</text>
    <!-- Outgoing 2 -->
    <rect x="332" y="468" width="306" height="24" rx="12" fill="#dc2727"/>
    <text x="344" y="484" font-family="Arial, sans-serif" font-size="10" fill="#fff">Absolutely! Let me know if you need any clarification.</text>
    <text x="608" y="486" font-family="Arial, sans-serif" font-size="7" fill="#fff" fill-opacity="0.6">10:15</text>
    <!-- Input -->
    <rect x="272" y="600" width="360" height="30" rx="15" fill="#F1F5F9" stroke="#E2E8F0" stroke-width="1"/>
    <text x="290" y="619" font-family="Arial, sans-serif" font-size="10" fill="#94A3B8">Hi Olivia...</text>
    <circle cx="614" cy="615" r="12" fill="#16A34A"/>
    <text x="614" y="619" text-anchor="middle" font-family="Arial, sans-serif" font-size="10" fill="#fff">&#9654;</text>

    <!-- Right panel: contact details -->
    <line x1="656" y1="60" x2="656" y2="640" stroke="#E2E8F0" stroke-width="1"/>
    <rect x="656" y="60" width="164" height="580" fill="#FAFBFC"/>
    <text x="672" y="84" font-family="Arial, sans-serif" font-size="11" font-weight="700" fill="#0F172A">Contact</text>
    <circle cx="738" cy="124" r="22" fill="#16A34A"/>
    <text x="738" y="130" text-anchor="middle" font-family="Arial, sans-serif" font-size="14" font-weight="700" fill="#fff">OE</text>
    <text x="738" y="160" text-anchor="middle" font-family="Arial, sans-serif" font-size="12" font-weight="600" fill="#0F172A">Olivia Evans</text>
    <rect x="710" y="168" width="56" height="16" rx="8" fill="#DCFCE7"/>
    <text x="738" y="180" text-anchor="middle" font-family="Arial, sans-serif" font-size="8" font-weight="600" fill="#16A34A">New Lead</text>
    <line x1="672" y1="196" x2="804" y2="196" stroke="#E2E8F0" stroke-width="1"/>
    <text x="672" y="214" font-family="Arial, sans-serif" font-size="10" font-weight="600" fill="#0F172A">Attributes</text>
    <text x="672" y="236" font-family="Arial, sans-serif" font-size="8" fill="#94A3B8">Email</text>
    <text x="672" y="250" font-family="Arial, sans-serif" font-size="9" fill="#4A90D9">olivia@acme.com</text>
    <text x="672" y="270" font-family="Arial, sans-serif" font-size="8" fill="#94A3B8">Phone</text>
    <text x="672" y="284" font-family="Arial, sans-serif" font-size="9" fill="#334155">+1 555 234 5678</text>
    <text x="672" y="304" font-family="Arial, sans-serif" font-size="8" fill="#94A3B8">Source</text>
    <text x="672" y="318" font-family="Arial, sans-serif" font-size="9" fill="#334155">via advert link</text>
    <line x1="672" y1="336" x2="804" y2="336" stroke="#E2E8F0" stroke-width="1"/>
    <text x="672" y="354" font-family="Arial, sans-serif" font-size="10" font-weight="600" fill="#0F172A">Files</text>
    <line x1="672" y1="368" x2="804" y2="368" stroke="#E2E8F0" stroke-width="1"/>
    <text x="672" y="386" font-family="Arial, sans-serif" font-size="10" font-weight="600" fill="#0F172A">Automations</text>
    <line x1="672" y1="400" x2="804" y2="400" stroke="#E2E8F0" stroke-width="1"/>
    <text x="672" y="418" font-family="Arial, sans-serif" font-size="10" font-weight="600" fill="#0F172A">Notes</text>
    <line x1="672" y1="432" x2="804" y2="432" stroke="#E2E8F0" stroke-width="1"/>
    <text x="672" y="450" font-family="Arial, sans-serif" font-size="10" font-weight="600" fill="#0F172A">Integrations</text>

  </g>
</svg>