<svg xmlns="http://www.w3.org/2000/svg" viewBox="0 0 840 660" fill="none">
  <defs>
    <filter id="browser-shadow" x="-4%" y="-2%" width="108%" height="108%">
      <feDropShadow dx="0" dy="8" stdDeviation="20" flood-color="#0F172A" flood-opacity="0.12"/>
    </filter>
    <filter id="card-shadow-sm" x="-8%" y="-6%" width="116%" height="120%">
      <feDropShadow dx="0" dy="2" stdDeviation="4" flood-color="#0F172A" flood-opacity="0.06"/>
    </filter>
    <clipPath id="browser-clip">
      <rect x="20" y="20" width="800" height="620" rx="12"/>
    </clipPath>
  </defs>
  <g filter="url(#browser-shadow)">
    <rect x="20" y="20" width="800" height="620" rx="12" fill="#fff" stroke="#E2E8F0" stroke-width="1"/>
    <rect x="20" y="20" width="800" height="40" rx="12" fill="#F8FAFC"/>
    <rect x="20" y="48" width="800" height="12" fill="#F8FAFC"/>
    <line x1="20" y1="60" x2="820" y2="60" stroke="#E2E8F0" stroke-width="1"/>
    <circle cx="44" cy="40" r="5.5" fill="#EF4444" opacity="0.8"/>
    <circle cx="64" cy="40" r="5.5" fill="#F59E0B" opacity="0.8"/>
    <circle cx="84" cy="40" r="5.5" fill="#22C55E" opacity="0.8"/>
    <rect x="110" y="30" width="500" height="22" rx="6" fill="#fff" stroke="#E2E8F0" stroke-width="1"/>
    <circle cx="126" cy="41" r="4" fill="none" stroke="#94A3B8" stroke-width="1.2"/>
    <rect x="123" y="42" width="6" height="4" rx="1" fill="#94A3B8"/>
    <text x="140" y="45" font-family="Arial, sans-serif" font-size="10" fill="#94A3B8">app.kaptea.com/pronto/tasks</text>
    <circle cx="740" cy="41" r="3" fill="#CBD5E1"/><circle cx="760" cy="41" r="3" fill="#CBD5E1"/><circle cx="780" cy="41" r="3" fill="#CBD5E1"/>
  </g>
  <g clip-path="url(#browser-clip)">
    <rect x="20" y="60" width="800" height="580" fill="#fff"/>
    <rect x="20" y="60" width="36" height="580" fill="#131521"/>
    <g transform="translate(24, 64) scale(0.22)">
      <path fill="#dc2727" d="M68.01,25.4c-1.15-.31-2.36-.52-3.64-.63-1.28-.1-2.44-.16-3.48-.16h-28.57v41.33h28.57c1.04,0,2.2-.05,3.48-.16,1.28-.1,2.49-.29,3.64-.55,3.34-.78,6.03-2.23,8.06-4.34,2.04-2.11,3.5-4.55,4.38-7.32.89-2.76,1.33-5.53,1.33-8.3s-.44-5.52-1.33-8.26c-.89-2.74-2.35-5.17-4.38-7.28-2.03-2.11-4.72-3.56-8.06-4.35Z"/>
      <path fill="#dc2727" d="M61.51,9.2c1.1,0,2.45.04,4.07.12,1.62.08,3.16.25,4.62.51,6.26.99,11.49,3.13,15.7,6.42.9.7,1.74,1.46,2.55,2.24C75.57-5.65,51.5-3.45,31.66,9.2h29.84Z"/>
      <path fill="#dc2727" d="M95.33,61.96c-2.09,5.01-5.23,9.16-9.43,12.45-4.2,3.29-9.43,5.43-15.7,6.42-1.46.21-3.01.37-4.66.47-1.64.11-2.99.16-4.03.16h-29.2v20.16c13.99,9.03,29.34,13.68,39.42,10.49,15.25-4.81,23.85-28.95,24.65-53.02-.32.97-.66,1.93-1.05,2.87Z"/>
      <path fill="#dc2727" d="M14.95,23.43C3.73,35.95-2.9,51.26.66,63.58c2.42,8.38,7.63,16.47,14.28,23.6V23.43Z"/>
    </g>
    <g fill="#fff" fill-opacity="0.35"><rect x="30" y="102" width="16" height="2" rx="1"/><rect x="30" y="106" width="10" height="2" rx="1"/><rect x="30" y="110" width="16" height="2" rx="1"/></g>
    <rect x="20" y="122" width="2.5" height="20" rx="1.2" fill="#dc2727"/>

    <text x="72" y="84" font-family="Arial, sans-serif" font-size="14" font-weight="700" fill="#0F172A">Task Dashboard</text>
    <text x="72" y="98" font-family="Arial, sans-serif" font-size="9" fill="#94A3B8">Monitor and manage agent tasks in real-time</text>
    <!-- Compact delivery rings -->
    <g transform="translate(72, 108)">
      <circle cx="12" cy="10" r="8" fill="none" stroke="#F1F5F9" stroke-width="3"/><circle cx="12" cy="10" r="8" fill="none" stroke="#4A90D9" stroke-width="3" stroke-dasharray="36 14" stroke-dashoffset="12" stroke-linecap="round"/>
      <text x="12" y="13" text-anchor="middle" font-family="Arial, sans-serif" font-size="6" font-weight="700" fill="#0F172A">18</text>
      <text x="26" y="10" font-family="Arial, sans-serif" font-size="8" font-weight="600" fill="#4A90D9">SMS</text><text x="26" y="20" font-family="Arial, sans-serif" font-size="7" fill="#94A3B8">72%</text>
      <circle cx="82" cy="10" r="8" fill="none" stroke="#F1F5F9" stroke-width="3"/><circle cx="82" cy="10" r="8" fill="none" stroke="#14B8A6" stroke-width="3" stroke-dasharray="50 1" stroke-dashoffset="12" stroke-linecap="round"/>
      <text x="82" y="13" text-anchor="middle" font-family="Arial, sans-serif" font-size="6" font-weight="700" fill="#0F172A">1</text>
      <text x="96" y="10" font-family="Arial, sans-serif" font-size="8" font-weight="600" fill="#14B8A6">Email</text><text x="96" y="20" font-family="Arial, sans-serif" font-size="7" fill="#94A3B8">100%</text>
      <circle cx="156" cy="10" r="8" fill="none" stroke="#F1F5F9" stroke-width="3"/><circle cx="156" cy="10" r="8" fill="none" stroke="#25D366" stroke-width="3" stroke-dasharray="44 6" stroke-dashoffset="12" stroke-linecap="round"/>
      <text x="156" y="13" text-anchor="middle" font-family="Arial, sans-serif" font-size="6" font-weight="700" fill="#0F172A">9</text>
      <text x="170" y="10" font-family="Arial, sans-serif" font-size="8" font-weight="600" fill="#25D366">WhatsApp</text><text x="170" y="20" font-family="Arial, sans-serif" font-size="7" fill="#94A3B8">89%</text>
      <circle cx="244" cy="10" r="8" fill="none" stroke="#F1F5F9" stroke-width="3"/><circle cx="244" cy="10" r="8" fill="none" stroke="#F59E0B" stroke-width="3" stroke-dasharray="50 1" stroke-dashoffset="12" stroke-linecap="round"/>
      <text x="244" y="13" text-anchor="middle" font-family="Arial, sans-serif" font-size="6" font-weight="700" fill="#0F172A">1</text>
      <text x="258" y="10" font-family="Arial, sans-serif" font-size="8" font-weight="600" fill="#F59E0B">RCS</text><text x="258" y="20" font-family="Arial, sans-serif" font-size="7" fill="#94A3B8">100%</text>
    </g>
    <!-- Agent rows (left, dimmed) -->
    <line x1="72" y1="140" x2="480" y2="140" stroke="#E2E8F0" stroke-width="1"/>
    <text x="72" y="156" font-family="Arial, sans-serif" font-size="8" font-weight="600" fill="#94A3B8">#</text>
    <text x="96" y="156" font-family="Arial, sans-serif" font-size="8" font-weight="600" fill="#94A3B8">AGENT</text>
    <text x="260" y="156" font-family="Arial, sans-serif" font-size="8" font-weight="600" fill="#94A3B8">TASKS</text>
    <line x1="72" y1="164" x2="480" y2="164" stroke="#F1F5F9" stroke-width="1"/>
    <!-- Row 1 highlighted -->
    <rect x="66" y="170" width="420" height="38" rx="6" fill="#dc2727" opacity="0.04" stroke="#dc2727" stroke-width="0.5" stroke-opacity="0.1"/>
    <text x="72" y="194" font-family="Arial, sans-serif" font-size="9" fill="#94A3B8">1</text>
    <circle cx="106" cy="190" r="10" fill="#dc2727"/><text x="106" y="194" text-anchor="middle" font-family="Arial, sans-serif" font-size="7" font-weight="700" fill="#fff">ADB</text>
    <text x="122" y="186" font-family="Arial, sans-serif" font-size="9" font-weight="600" fill="#0F172A">Ashley Dunne Byrne</text>
    <rect x="122" y="192" width="42" height="12" rx="6" fill="#DCFCE7"/><text x="143" y="201" text-anchor="middle" font-family="Arial, sans-serif" font-size="6" font-weight="600" fill="#16A34A">Available</text>
    <rect x="260" y="178" width="100" height="18" rx="4" fill="#dc2727" opacity="0.06" stroke="#dc2727" stroke-width="0.5" stroke-opacity="0.15"/><text x="268" y="190" font-family="Arial, sans-serif" font-size="7" fill="#dc2727">David Johnson +153...</text>
    <rect x="368" y="178" width="90" height="18" rx="4" fill="#F8FAFC" stroke="#E2E8F0" stroke-width="0.5"/><text x="376" y="190" font-family="Arial, sans-serif" font-size="7" fill="#64748B">Sarah Ehler +1 40...</text>
    <line x1="72" y1="212" x2="480" y2="212" stroke="#F8FAFC" stroke-width="1"/>
    <!-- Dimmed rows -->
    <g opacity="0.4">
    <text x="72" y="238" font-family="Arial, sans-serif" font-size="9" fill="#94A3B8">2</text>
    <circle cx="106" cy="234" r="10" fill="#F59E0B"/><text x="106" y="238" text-anchor="middle" font-family="Arial, sans-serif" font-size="7" font-weight="700" fill="#fff">BA</text>
    <text x="122" y="234" font-family="Arial, sans-serif" font-size="9" font-weight="600" fill="#334155">Bence Akgor</text>
    <line x1="72" y1="254" x2="480" y2="254" stroke="#F8FAFC" stroke-width="1"/>
    <text x="72" y="278" font-family="Arial, sans-serif" font-size="9" fill="#94A3B8">3</text>
    <circle cx="106" cy="274" r="10" fill="#4A90D9"/><text x="106" y="278" text-anchor="middle" font-family="Arial, sans-serif" font-size="7" font-weight="700" fill="#fff">RL</text>
    <text x="122" y="274" font-family="Arial, sans-serif" font-size="9" font-weight="600" fill="#334155">Robert Leahy</text>
    <line x1="72" y1="294" x2="480" y2="294" stroke="#F8FAFC" stroke-width="1"/>
    <text x="72" y="318" font-family="Arial, sans-serif" font-size="9" fill="#94A3B8">4</text>
    <circle cx="106" cy="314" r="10" fill="#A855F7"/><text x="106" y="318" text-anchor="middle" font-family="Arial, sans-serif" font-size="7" font-weight="700" fill="#fff">KL</text>
    <text x="122" y="314" font-family="Arial, sans-serif" font-size="9" font-weight="600" fill="#334155">Katherine Lykins</text>
    </g>
    <!-- Conversation tray (right side) -->
    <line x1="490" y1="60" x2="490" y2="640" stroke="#E2E8F0" stroke-width="1"/>
    <rect x="490" y="60" width="330" height="580" fill="#FAFBFC"/>
    <circle cx="516" cy="82" r="14" fill="#dc2727"/>
    <text x="516" y="86" text-anchor="middle" font-family="Arial, sans-serif" font-size="8" font-weight="700" fill="#fff">DJ</text>
    <circle cx="526" cy="90" r="4" fill="#4ADE80" stroke="#FAFBFC" stroke-width="1.5"/>
    <text x="536" y="78" font-family="Arial, sans-serif" font-size="11" font-weight="600" fill="#0F172A">David Johnson +1 553...</text>
    <text x="536" y="92" font-family="Arial, sans-serif" font-size="9" fill="#16A34A">Online</text>
    <text x="798" y="82" font-family="Arial, sans-serif" font-size="14" fill="#94A3B8">&#215;</text>
    <line x1="490" y1="104" x2="820" y2="104" stroke="#E2E8F0" stroke-width="1"/>
    <!-- Chat messages -->
    <rect x="506" y="116" width="220" height="38" rx="10" fill="#F1F5F9"/>
    <text x="518" y="132" font-family="Arial, sans-serif" font-size="9" fill="#334155">Good morning! Hope you've had a</text>
    <text x="518" y="146" font-family="Arial, sans-serif" font-size="9" fill="#334155">great weekend.</text>
    <text x="690" y="148" font-family="Arial, sans-serif" font-size="7" fill="#94A3B8">9:01</text>
    <rect x="570" y="164" width="240" height="24" rx="10" fill="#dc2727"/>
    <text x="582" y="180" font-family="Arial, sans-serif" font-size="9" fill="#fff">Thanks! It was relaxing. How about yours?</text>
    <rect x="506" y="198" width="260" height="52" rx="10" fill="#F1F5F9"/>
    <text x="518" y="214" font-family="Arial, sans-serif" font-size="9" fill="#334155">Pretty good! I wanted to follow up on our</text>
    <text x="518" y="228" font-family="Arial, sans-serif" font-size="9" fill="#334155">discussion from last week about the new</text>
    <text x="518" y="242" font-family="Arial, sans-serif" font-size="9" fill="#334155">project timeline.</text>
    <rect x="540" y="260" width="270" height="38" rx="10" fill="#dc2727"/>
    <text x="552" y="276" font-family="Arial, sans-serif" font-size="9" fill="#fff">Of course! I have some updates on that.</text>
    <text x="552" y="290" font-family="Arial, sans-serif" font-size="9" fill="#fff">Let me pull up my notes.</text>
    <rect x="506" y="308" width="244" height="24" rx="10" fill="#F1F5F9"/>
    <text x="518" y="324" font-family="Arial, sans-serif" font-size="9" fill="#334155">This looks great! I'll review it with the team today.</text>
    <rect x="520" y="342" width="290" height="24" rx="10" fill="#25D366"/>
    <text x="532" y="358" font-family="Arial, sans-serif" font-size="9" fill="#fff">Perfect! The mockups look exactly what we need.</text>
    <rect x="506" y="376" width="270" height="24" rx="10" fill="#F1F5F9"/>
    <text x="518" y="392" font-family="Arial, sans-serif" font-size="9" fill="#334155">Absolutely! Let me know if you need any clarification.</text>
    <!-- Typing -->
    <rect x="506" y="412" width="50" height="20" rx="10" fill="#F1F5F9"/>
    <circle cx="518" cy="422" r="3" fill="#CBD5E1"/><circle cx="528" cy="422" r="3" fill="#CBD5E1" opacity="0.6"/><circle cx="538" cy="422" r="3" fill="#CBD5E1" opacity="0.3"/>
    <!-- Input -->
    <rect x="506" y="594" width="268" height="28" rx="14" fill="#fff" stroke="#E2E8F0" stroke-width="1"/>
    <text x="522" y="612" font-family="Arial, sans-serif" font-size="9" fill="#94A3B8">Type a message...</text>
    <circle cx="790" cy="608" r="12" fill="#16A34A"/><text x="790" y="612" text-anchor="middle" font-family="Arial, sans-serif" font-size="10" fill="#fff">&#9654;</text>
    <!-- Channel badge -->
    <rect x="506" y="568" width="268" height="16" rx="3" fill="#F8FAFC"/>
    <text x="514" y="579" font-family="Arial, sans-serif" font-size="7" fill="#94A3B8">Channel:</text>
    <rect x="558" y="570" width="52" height="12" rx="6" fill="#25D366" opacity="0.08"/><text x="584" y="579" text-anchor="middle" font-family="Arial, sans-serif" font-size="6" font-weight="600" fill="#25D366">WhatsApp</text>
    <text x="620" y="579" font-family="Arial, sans-serif" font-size="7" fill="#94A3B8">Agent: Ashley D.B.</text>

  </g>
</svg>