<?xml version="1.0" encoding="UTF-8" standalone="no"?>
<svg
   xmlns:dc="http://purl.org/dc/elements/1.1/"
   xmlns:cc="http://creativecommons.org/ns#"
   xmlns:rdf="http://www.w3.org/1999/02/22-rdf-syntax-ns#"
   xmlns:svg="http://www.w3.org/2000/svg"
   xmlns="http://www.w3.org/2000/svg"
   xmlns:sodipodi="http://sodipodi.sourceforge.net/DTD/sodipodi-0.dtd"
   xmlns:inkscape="http://www.inkscape.org/namespaces/inkscape"
   version="1.0"
   width="110"
   height="40"
   id="svg2945"
   sodipodi:version="0.32"
   inkscape:version="0.46dev+devel"
   sodipodi:docname="An_Post.svg"
   inkscape:output_extension="org.inkscape.output.svg.inkscape">
  <metadata
     id="metadata14">
    <rdf:RDF>
      <cc:Work
         rdf:about="">
        <dc:format>image/svg+xml</dc:format>
        <dc:type
           rdf:resource="http://purl.org/dc/dcmitype/StillImage" />
      </cc:Work>
    </rdf:RDF>
  </metadata>
  <sodipodi:namedview
     inkscape:window-height="850"
     inkscape:window-width="1440"
     inkscape:pageshadow="2"
     inkscape:pageopacity="0.0"
     guidetolerance="10.0"
     gridtolerance="10.0"
     objecttolerance="10.0"
     borderopacity="1.0"
     bordercolor="#666666"
     pagecolor="#ffffff"
     id="base"
     showgrid="true"
     inkscape:zoom="4.1711712"
     inkscape:cx="32.963176"
     inkscape:cy="45.323816"
     inkscape:window-x="-8"
     inkscape:window-y="-8"
     inkscape:current-layer="svg2945">
    <inkscape:grid
       type="xygrid"
       id="grid2314" />
  </sodipodi:namedview>
  <defs
     id="defs2947" />
  <path
     style="fill:#338530;fill-opacity:1;stroke-width:1pt;stroke-linecap:butt;stroke-linejoin:miter;stroke-dasharray:none"
     id="path10"
     d="M 86.1599,8.9229 C 82.6316,8.9229 80.0916,11.0323 80.0916,14.67 C 80.0916,16.9639 81.9207,19.1465 84.2898,20.1592 C 86.0906,20.9336 87.5193,21.7139 87.5193,22.8741 C 87.5193,23.8995 86.8504,24.2286 85.5808,24.2286 C 84.0486,24.2286 82.075,23.6485 80.6717,22.6143 C 80.6717,22.6143 80.9949,27.0713 80.9949,27.0713 C 82.8035,27.8457 84.073,28.2979 86.5496,28.2979 C 90.9425,28.2979 93.6555,25.9092 93.6555,22.4219 C 93.6555,19.4473 91.2215,17.2364 89.0047,16.4161 C 87.2595,15.7696 85.9041,14.8662 85.9041,13.8311 C 85.9041,12.9922 86.3133,12.5401 87.5193,12.5401 C 87.5193,12.5401 94.8165,12.5401 94.8165,12.5401 C 94.8165,12.5401 94.8165,20.9346 94.8165,20.9346 C 94.8165,27.2725 98.6765,28.3858 101.5335,28.3858 C 102.6595,28.3858 103.2785,28.2452 104.1155,27.9541 C 104.1155,27.9541 104.5045,24.294 104.5045,24.294 C 101.4475,24.9405 100.3705,22.8213 100.3705,20.5479 C 100.3705,20.5479 100.3705,12.5401 100.3705,12.5401 C 100.3705,12.5401 105.2805,12.5401 105.2805,12.5401 C 105.2805,12.5401 105.2805,8.9229 105.2805,8.9229 C 105.2805,8.9229 86.1599,8.9229 86.1599,8.9229" />
  <path
     style="fill:#338530;fill-opacity:1;fill-rule:nonzero;stroke-width:1pt;stroke-linecap:butt;stroke-linejoin:miter;stroke-dasharray:none"
     id="path14"
     d="M 48.3152,24.5518 C 47.701,24.5518 47.2576,24.4795 46.8933,24.377 C 46.8933,24.377 46.8933,12.7969 46.8933,12.7969 C 46.8933,12.7969 48.573,12.7969 48.573,12.7969 C 51.4363,12.7979 52.9646,15.5332 52.9646,18.3526 C 52.9646,22.5498 50.8328,24.5537 48.3152,24.5518 z M 41.2097,8.9229 C 41.2097,8.9229 41.2097,12.7969 41.2097,12.7969 C 41.2097,12.7969 41.2097,31.2705 41.2097,31.2705 C 41.2097,31.2705 46.8933,31.2705 46.8933,31.2705 C 46.8933,31.2705 46.8933,28.2725 46.8933,28.2725 C 47.5701,28.3809 48.322,28.4278 49.3484,28.4278 C 53.2215,28.4278 58.907,25.6729 58.907,18.3526 C 58.907,15.295 56.7332,8.9229 49.6072,8.9229 C 49.6072,8.9229 41.2097,8.9229 41.2097,8.9229 z" />
  <path
     style="fill:#338530;fill-opacity:1;fill-rule:nonzero;stroke-width:1pt;stroke-linecap:butt;stroke-linejoin:miter;stroke-dasharray:none"
     id="path18"
     d="M 65.4285,18.4815 C 65.4285,21.2803 66.3787,24.5537 69.8875,24.5537 C 72.5769,24.5537 74.1502,22.2696 74.1502,18.5459 C 74.1502,15.9844 73.1394,12.6045 69.7586,12.6045 C 66.9578,12.6045 65.4285,15.5967 65.4285,18.4815 z M 69.7586,8.7295 C 76.2801,8.7295 80.0916,13.3155 80.0916,18.4815 C 80.0916,24.0577 76.0633,28.2979 70.0154,28.2979 C 62.6111,28.2979 59.1629,23.1534 59.1629,18.7412 C 59.1629,13.4659 63.5144,8.7295 69.7586,8.7295 z" />
  <path
     style="fill:#f8cd00;fill-opacity:1;stroke-width:1pt;stroke-linecap:butt;stroke-linejoin:miter;stroke-dasharray:none"
     id="path22"
     d="M 29.4549,8.793 C 25.6785,8.793 23.3006,9.4825 20.9998,10.1475 C 18.6883,10.8164 16.2986,11.5069 12.4051,11.5069 C 9.6746,11.5069 7.5877,11.1661 4.7195,10.251 C 4.7195,10.251 4.7195,11.333 4.7195,11.333 C 7.5398,12.211 9.659,12.5401 12.4051,12.5401 C 16.4451,12.5401 18.907,11.8282 21.2869,11.1387 C 23.6209,10.4649 25.825,9.8282 29.4549,9.8282 C 32.5154,9.8282 34.9422,10.0293 37.658,11.1084 C 37.658,11.1084 37.658,10 37.658,10 C 34.9431,8.9883 32.4978,8.793 29.4549,8.793" />
  <path
     style="fill:#f8cd00;fill-opacity:1;stroke-width:1pt;stroke-linecap:butt;stroke-linejoin:miter;stroke-dasharray:none"
     id="path26"
     d="M 29.4549,14.0508 C 25.6785,14.0508 23.3006,14.7383 20.9998,15.4053 C 18.6883,16.0743 16.2986,16.7627 12.4051,16.7627 C 9.6746,16.7627 7.5877,16.4248 4.7195,15.5098 C 4.7195,15.5098 4.7195,16.5918 4.7195,16.5918 C 7.5398,17.4688 9.659,17.7989 12.4051,17.7989 C 16.4451,17.7989 18.907,17.086 21.2869,16.3995 C 23.6209,15.7227 25.825,15.085 29.4549,15.085 C 32.5154,15.085 34.9422,15.2891 37.658,16.3682 C 37.658,16.3682 37.658,15.2579 37.658,15.2579 C 34.9431,14.2461 32.4978,14.0508 29.4549,14.0508" />
  <path
     style="fill:#f8cd00;fill-opacity:1;stroke-width:1pt;stroke-linecap:butt;stroke-linejoin:miter;stroke-dasharray:none"
     id="path30"
     d="M 29.4549,19.3106 C 25.6785,19.3106 23.3006,19.9991 20.9998,20.6651 C 18.6883,21.333 16.2986,22.0235 12.4051,22.0235 C 9.6746,22.0235 7.5877,21.6827 4.7195,20.7676 C 4.7195,20.7676 4.7195,21.8506 4.7195,21.8506 C 7.5398,22.7276 9.659,23.0567 12.4051,23.0567 C 16.4451,23.0567 18.907,22.3457 21.2869,21.6573 C 23.6209,20.9805 25.825,20.3428 29.4549,20.3428 C 32.5154,20.3428 34.9422,20.5479 37.658,21.625 C 37.658,21.625 37.658,20.5147 37.658,20.5147 C 34.9431,19.5049 32.4978,19.3106 29.4549,19.3106" />
  <path
     style="fill:#f8cd00;fill-opacity:1;stroke-width:1pt;stroke-linecap:butt;stroke-linejoin:miter;stroke-dasharray:none"
     id="path34"
     d="M 29.4549,24.5704 C 25.6785,24.5704 23.3006,25.2569 20.9998,25.9229 C 18.6883,26.5889 16.2986,27.2813 12.4051,27.2813 C 9.6746,27.2813 7.5877,26.9405 4.7195,26.0264 C 4.7195,26.0264 4.7195,27.1084 4.7195,27.1084 C 7.5398,27.9854 9.659,28.3135 12.4051,28.3135 C 16.4451,28.3135 18.907,27.6045 21.2869,26.9151 C 23.6209,26.2403 25.825,25.6006 29.4549,25.6006 C 32.5154,25.6006 34.9422,25.8057 37.658,26.8819 C 37.658,26.8819 37.658,25.7745 37.658,25.7745 C 34.9431,24.7627 32.4978,24.5704 29.4549,24.5704" />
</svg>
