<svg version="1.2" xmlns="http://www.w3.org/2000/svg" viewBox="0 0 662 120" width="662" height="120"><title>White Project-Bravo_Logo_01-svg</title><style>.s0{fill:#fff}</style><g id="Layer"><g id="Logo"><g id="Layer"><g id="Layer"><path id="Layer" class="s0" d="M82.4 61.6c.3-.2.8 0 1.1.1.3.1.6.2.9 0 .5-.2.9-.7 1.4-.8.5-.1 1.2 0 1.7-.5.2-.3.3-.7.5-1 .2-.3.6-.5.9-.7 1.1-.7.3-2.4 1.4-3 .7-.4.3-1.2 0-1.7-.2-.4-.4-.7-.6-1.1-.2-.4-.2-.8-.5-1.1-.4-.3-.9-.2-1-.6-.3-.9 1-1.9 0-2.6-1.1-.6-3.5.6-4.2-.8-.4-.9.3-1.4.8-2 .7-1 2.4-3.3.6-4-.3 0-.7 0-.9-.2-.2-.2-.1-.6-.3-.7-.1-.1-.3-.1-.4 0-.3 0-.7-.3-1-.4-.3-.1-.5-.3-.5-.6 0-.6.5-1 .8-1.5.3-.5.2-.8.1-1.3-.2-.9-1.2-1.1-2-.9-.3 0-.5.2-.8.2-.3 0-.6 0-.8-.1-.1-.2 0-.3.2-.4.2-.1.3-.3.3-.5 0-.3-.2-.6-.3-.9-.1-.3-.2-.6-.4-.8-.2-.3-.4-.6-.7-.9-.2-.2-.3-.3-.5-.4-.2-.1-.4-.2-.5-.4-.1-.2-.1-.4-.1-.6 0-.3-.2-.5-.4-.8-.4-.6-.8-1.1-1.4-1.3-.8-.3-1.8.1-2.5.3-.8 0-1 .9-1.8 1-.7 0-1.2-.5-1.9-.7-.6-.2-.7.2-1.3.1-2.2-.2-1.8-.4-3.8 0-.7 0-.1-1.5-1-1.8-.3 0-.5-.1-.7-.2-.2-.1-.4-.3-.6-.4-.4-.2-.8-.2-1.3-.3-.5-.1-.9-.1-1.3-.1-.7 0-1.5.3-2.1.4-1.1 0-1.7-.6-2.6.4-.5.6-1.2.7-1.9 1-.6.3-1.1.8-1.5 1.3-.6.6-1.4 1.1-1.8 1.9-.2.4-.1.9.3 1.1.4.2.4.2.6.4.6.6-.4 1.1-.9 1.3-.5.2-1.1.5-1.5.9-.6.7-.2.9.3 1.4.6.5 0 .5.1 1.2.1.6 1.4.9.6 1.6-.4.3-.9.5-1.4.3-.3 0-.6-.3-.9-.4-.6-.2-1.3-.5-1.9-.5-.6 0-.6.2-1.1.7q-.5.4-1.2.3c-.4 0-.7-.3-1.1 0-.5.3-.6 1.1-1.3 1.5-.5.4-1.2.3-1.8.6-.6.3-1.1.7-1.5 1.3-.2.3-.3.7-.6.8-.6.4-1.1-.1-1.3.8-.2.7-.6 1.3-.7 2-.1.6 0 1.3 0 1.9 0 .3.2.6.3.8.3.4.7.8 1.1.9.4.1.7 0 1 0 .2 0 .4-.3.6-.3.3-.1.7-.2 1-.4.3-.2 1.2-.8 1.5-.3.3 1-.7.9-1.3 1.5-.6.7-1.5.6-2.1 1.4-.4.6.3.8 0 1.2-.2.3-.5.8-.4 1.2.1.4.5.4 1.1.3.5 0 .9-.6 1.3-.4.4.2.6.7.9.9.3.2.8 0 1 .3.2.3-.1 1-.3 1.2-.5.6-1.1 1-1.8 1.3-.7.4-1.9.9-2 1.9-.1.7.2 1.2-.2 1.8-.3.5-.9.9-1.5.8-.5 0-.9-.5-1.5-.6-.6-.1-1.2.1-1.6.6-.5.6-1.3 1.7-.8 2.4.4.7.2 1.5 0 2.3-.3.8-1.2 1.1-1.5 2v.8c.1.5-.1 1-.4 1.4-.4.5-.9 1-.9 1.6v.4c.2.3.8.5 1.2.4.2 0 .4-.2.5-.4.3-.2.7.2 1 0 .3-.2.6-.3 1-.3s.6.5.9.7c.3.2.5 0 .8.1.5 0 .7.7 1.3.9.3 0 .6.1.9.2.3.1.5 0 .7.3.2.3.3.5.7.6.4.1.8-.1 1.1-.3.1 0 .3-.1.4-.1.3 0 .7 0 1-.2.3-.2.7-.2 1-.2.5 0 1.1-.1 1.6-.1.4 0 .5-.5.8-.6.3 0 .6.1.9.2 1 0 .9 1.1 1.7 1.1.9-.3 2.6-.2 3.7-.5.5 0 .9.5 1.4.2.5-.1 1.1-.7 1.5-.7.5 0 .6.2 1.1.2.4 0 .9-.2 1.3-.3.4-.1 1-.3 1.6-.4.4 0 1-.6 1.4-.3.9.7.4 1.9.3 3-.1 1 .2 2 0 3-.4.9-1 1.4-1.7 1.6-1.4.2-2.8.4-4.2.7-.5 0-1.3.3-1.3.6s.8.2.9.2h5.1c.3 0 .7 0 1-.1.7-.2 1.3-.4 2-.7.7-.3.9-.3 1.3-.4 1.1.1 2.2.3 3.3.5 1.2.2 2.4.3 3.6 0 .2 0 .4 0 .6-.1.2 0 .4 0 .5-.2.1 0 0-.2 0-.3h-.3c-.9-.1-1.8-.2-2.7-.4-.3 0-.7-.1-1-.2-.3-.1-.6-.3-1-.5s-.4-.2-.7-.3c-.4-.2-.7-.6-.9-1-.2-.4 0-.3-.1-.5-.4-1.6.3-7.2 2.7-6.4.8.5 1.5.9 2.3 1.3q1 .5 2.1.9c.6.3 1.3.4 2 .6.6.1 1.2.4 1.8.5.3 0 .5.1.8.1.3 0 .6 0 .9-.1.3-.1.6-.1.9-.2.3-.1.6-.1.9-.2h.7c.2 0 .5-.2.7-.2h.7c.2 0 .4-.3.5-.4.3-.4.5-.8.9-1.1.2-.2.6-.2.8-.3.2-.1.5-.2.8-.2.5-.2 1-.4 1.5-.7.7-.4 1.2-1.1 1.6-1.8.1-.3.2-.5.2-.8 0-.4 0-.7-.1-1.1-.1-.4 0-.6-.2-.9-.4-.7-1.3-.9-2-1H82c-.2 0-.5 0-.7-.1-.3-.3.6-1 .7-1.2.3-.4.5-.8.5-1.4 0-.6-.6-.9-.6-1.6 0-.3 0-.5-.1-.8 0-.2-.2-.5 0-.7 0 0 0-.2.1-.2z"/><path id="Layer" fill-rule="evenodd" class="s0" d="M59.3 109.3C30.7 109.3 7.4 86 7.4 57.4c0-28.6 23.3-51.9 51.9-51.9 28.6 0 51.9 23.3 51.9 51.9 0 28.6-23.3 51.9-51.9 51.9zm0-99.6C33 9.7 11.6 31.1 11.6 57.4c0 26.3 21.4 47.7 47.7 47.7 26.3 0 47.7-21.4 47.7-47.7 0-26.3-21.4-47.7-47.7-47.7z"/></g><path id="Layer" fill-rule="evenodd" class="s0" d="M162.5 31.4c12.3 0 18 5.8 18 13.7 0 7.9-8.7 9.7-8.7 9.7v.4s11.9 1.8 11.9 12.3-6.5 14.4-18.8 14.4h-24.2V31.4zm0 21.6c7.9 0 11.5-3.6 11.5-7.9 0-4.3-3.6-7.9-11.5-7.9h-15.2v15.9h15.2zm2.5 23.1c8.7 0 12.3-3.6 12.3-8.7s-3.6-8.7-12.2-8.7h-17.7V76h17.7zM189 70.7c0-6.9 5.8-12.6 18-12.6 7.5 0 9.6.4 10.1.7-.2-5.6-3.8-9-10.8-9-7.2 0-10.1 2.9-10.1 2.9l-2.5-4.3s5.1-4 12.6-4c10.8 0 17 6.1 17 14.8v21.3s-7.2 2.9-16.2 2.9-18-5.8-18-12.6zm28.1-11.9v.4s.3-.2 0-.4zm0 17.6V64.5s-4-1.1-10.1-1.1-11.5 3.2-11.5 7.2 3.2 7.2 11.5 7.2 10.1-1.4 10.1-1.4z"/><path id="Layer" class="s0" d="M230.3 47.2s5.8-2.9 13.3-2.9c7.5 0 11.9 2.9 11.9 2.9l-1.8 5.1s-4.7-2.5-10.1-2.5c-5.4 0-7.2 1.4-7.2 1.4v30.7h-6.1V47.3zM259.7 47.2s5.8-2.9 13.3-2.9c7.5 0 11.9 2.9 11.9 2.9l-1.8 5.1s-4.7-2.5-10.1-2.5c-5.4 0-7.2 1.4-7.2 1.4v30.7h-6.1V47.3z"/><path id="Layer" fill-rule="evenodd" class="s0" d="M285 70.7c0-6.9 5.8-12.6 18-12.6 7.5 0 9.6.4 10.1.7-.2-5.6-3.8-9-10.8-9-7.2 0-10.1 2.9-10.1 2.9l-2.5-4.3s5.1-4 12.6-4c10.8 0 17 6.1 17 14.8v21.3s-7.2 2.9-16.2 2.9-18-5.8-18-12.6zm28.1-11.9v.4s.3-.2 0-.4zm0 17.6V64.5s-4-1.1-10.1-1.1-11.5 3.2-11.5 7.2 3.2 7.2 11.5 7.2 10.1-1.4 10.1-1.4z"/><path id="Layer" class="s0" d="M329.1 69.6V51.2h-6.5v-5.4h6.5l2.9-10.1h3.2v10.1h12.6v5.4h-12.6v18.4c0 5 3.2 8.3 7.6 8.3 4.4 0 6.5-1.4 6.5-1.4l1.8 4.7s-3.6 2.2-8.3 2.2c-7.9 0-13.7-5.8-13.7-13.7zM357.9 69.6V51.2h-6.5v-5.4h6.5l2.9-10.1h3.2v10.1h12.6v5.4H364v18.4c0 5 3.2 8.3 7.6 8.3 4.4 0 6.5-1.4 6.5-1.4l1.8 4.7s-3.6 2.2-8.3 2.2c-7.9 0-13.7-5.8-13.7-13.7z"/><path id="Layer" fill-rule="evenodd" class="s0" d="M404.6 31.4h21.6c13.3 0 20.2 6.9 20.2 15.9s-10.5 14.4-10.5 14.4v.4L450 81.9h-7.9l-13.3-18.8h-17.7v18.8h-6.5zm21.6 25.9c9.4 0 13.7-4.3 13.7-10.1s-4.3-10.1-13.7-10.1h-15.1v20.2zM451.4 63.8c0-11.2 8.3-19.5 18.4-19.5 10.1 0 18.4 8.3 18.4 19.5l-2.9 2.9h-27.4c1.1 6.1 6.1 11.2 14.1 11.2s10.5-3.2 10.5-3.2L485 79s-5.1 4.3-13 4.3c-11.9 0-20.6-8.7-20.6-19.5zm30.3-2.5c-.7-6.5-5.8-11.5-11.9-11.5-6.1 0-11.2 5-11.9 11.5zM492.2 63.8c0-10.8 8.7-19.5 21.3-19.5 5.4 0 7.7.3 8.7.7V31.3h6.1v49.1s-7.2 2.9-14.8 2.9c-12.6 0-21.3-8.7-21.3-19.5zm30-18.8v1.1s1.3-.6 0-1.1zm-.1 6.9s-4-2.2-8.7-2.2c-9 0-14.8 5.8-14.8 14.1s5.8 14.1 14.8 14.1 8.7-1.4 8.7-1.4z"/><path id="Layer" class="s0" d="M535.1 47.2s5.8-2.9 13.3-2.9c7.5 0 11.9 2.9 11.9 2.9l-1.8 5.1s-4.7-2.5-10.1-2.5c-5.4 0-7.2 1.4-7.2 1.4v30.7h-6.1V47.3z"/><path id="Layer" fill-rule="evenodd" class="s0" d="M560.2 63.8c0-10.8 8.7-19.5 19.5-19.5s19.5 8.7 19.5 19.5-8.7 19.5-19.5 19.5-19.5-8.7-19.5-19.5zm32.5 0c0-8.3-5.8-14.1-13-14.1s-13 5.8-13 14.1 5.8 14.1 13 14.1 13-5.8 13-14.1z"/><path id="Layer" class="s0" d="M599.9 45.8h6.5l9.4 28.5h.4l9.4-28.5h6.9l9.4 28.5h.4l9.4-28.5h6.5l-11.9 36.1h-7.6l-9.4-28.6h-.4l-9.4 28.6h-7.6L600 45.8z"/></g></g></g></svg>