<svg width="172" height="77" viewBox="0 0 172 77" fill="none" xmlns="http://www.w3.org/2000/svg">
<g clip-path="url(#clip0_896_17744)">
<path d="M74.2121 2.76929L69.8071 42.9539C69.5012 45.7847 71.0919 48.3693 73.6003 48.3693H77.0876L81.1255 12.4924C81.7985 7.20006 78.9842 3.7539 74.2121 2.76929Z" fill="#004587"/>
<path d="M99.2961 49.1692C88.4059 49.1692 83.022 41.6615 84.1233 32.2461C85.2857 22.5846 92.0156 15.1384 103.334 15.1384C114.652 15.1384 119.486 22.5846 118.323 32.2461C117.222 41.6615 110.186 49.1692 99.2961 49.1692ZM102.6 21.1077C95.7476 21.1077 93.178 25.4769 92.4439 31.8154C91.7709 37.7846 93.3004 43.2615 100.03 43.2615C106.76 43.2615 109.574 37.8461 110.309 31.8154C110.982 25.4769 109.452 21.1077 102.6 21.1077Z" fill="#004587"/>
<path d="M44.356 48.3693H47.8433C50.3517 48.3693 52.5542 45.7847 52.9212 42.9539L54.9402 25.8462C51.9424 26.4 49.1892 27.3847 46.6196 28.7385L44.356 48.3693Z" fill="#004587"/>
<path d="M68.6449 20.8615L63.6281 13.1077C63.5057 12.8615 63.1998 12.8 63.0163 12.8C62.7715 12.8615 62.588 13.0462 62.588 13.2923L62.0374 18.0308H60.8138C59.1007 18.0308 57.4488 18.2154 55.7969 18.4615L56.7758 10.2154C57.0817 7.69231 59.896 6.27693 62.4656 6.27693C65.0352 6.27693 67.6048 7.87693 67.6048 7.87693L68.2778 1.66154C65.7082 0.615385 63.1998 0 61.1808 0C54.6345 0 49.5565 3.69231 48.8223 10.0308L47.5375 21.1077C38.6663 25.6615 32.6095 34.6462 31.7529 45.6C31.7529 45.6 31.7529 45.8462 32.0588 45.8462C32.3647 45.8462 32.4871 45.2923 32.6095 44.9231C36.4638 32.6154 46.4975 24 59.9572 23.9385H61.3644L60.8138 28.8C60.8138 29.0462 60.9361 29.3539 61.1808 29.4769C61.4256 29.6 61.7315 29.4769 61.8538 29.3539L68.6449 21.5385C68.8284 21.3539 68.8284 21.0462 68.6449 20.8" fill="#004587"/>
<path d="M143.836 14.9537L134.353 37.2922V37.1076C134.292 37.1076 130.315 20.6768 130.315 20.6768C129.091 15.6922 125.971 14.0922 121.077 15.0153L129.214 48.4306H132.273C135.882 48.4306 138.024 44.4306 138.574 43.1999L146.467 23.7537L150.321 43.1999C150.505 44.3691 151.851 48.4306 155.521 48.4306H158.825L169.96 25.5999C172.224 20.9845 170.755 16.923 166.779 14.4614L156.011 37.2922L152.768 21.5383C151.606 16.7999 148.18 14.5845 143.836 14.9537Z" fill="#004587"/>
<path d="M19.3332 15.0769C7.83123 15.0769 1.16254 23.0769 0.183654 31.8769C-1.03996 42.3384 4.52748 49.0461 15.9071 49.0461C27.2867 49.0461 26.0631 47.3846 29.0609 46.0923C29.3056 43.7538 29.7951 41.5384 30.5293 39.3846C28.5715 40.3692 22.8205 42.9538 16.4577 42.9538C10.0949 42.9538 10.8903 41.8461 9.60547 40.0615C8.68776 38.8923 7.70887 36.9846 8.01478 32.3692C8.38186 27.0154 11.5633 24 11.5633 24C13.2151 22.3384 15.6012 21.1692 18.2931 21.1692C23.3711 21.1692 25.5124 24.1846 25.3289 28.3077H16.7636C12.9704 28.3077 10.8903 30.6461 10.7679 34.1538H26.7972C30.5293 34.1538 32.6706 31.8769 33.0377 28.4307C33.4659 20.6769 28.2656 15.0769 19.3332 15.0769Z" fill="#2FB4E9"/>
<path d="M51.6363 72C50.9633 73.4153 50.6574 73.7846 48.7608 74.1538C47.7207 74.3384 47.1089 74.3384 47.1089 74.3384C47.2312 75.323 48.0266 76.123 48.9443 76C51.208 75.8153 52.4316 75.0153 53.2881 73.2923L57.9379 63.7538L55.9189 63.2L52.4316 70.4C52.4316 70.2769 52.2481 70.0307 52.1869 69.6L50.8409 63.2L48.6384 63.7538L50.1067 70.8307C50.3515 71.8769 51.0856 72.0615 51.6363 72Z" fill="#004587"/>
<path d="M63.0159 73.0461C59.8957 73.0461 58.305 70.8922 58.6109 68.1846C58.9168 65.4153 60.8134 63.2615 64.056 63.2615C67.2986 63.2615 68.7057 65.4153 68.3998 68.1846C68.0939 70.8922 66.1362 73.0461 63.0159 73.0461ZM63.8113 64.9845C61.8535 64.9845 61.1193 66.2153 60.9358 68.0615C60.7523 69.7845 61.2417 71.323 63.1383 71.323C65.0349 71.323 65.8914 69.7845 66.0138 68.0615C66.2585 66.2153 65.7691 64.9845 63.8113 64.9845Z" fill="#004587"/>
<path d="M98.3785 63.077L97.5219 71.2001C97.4608 72.0001 96.7878 72.7386 96.1148 72.7386H95.0747L95.9924 64.4924C95.9312 64.4924 95.9924 63.077 98.3785 63.077ZM97.4608 61.1078C96.6654 61.1078 96.1148 60.4924 96.176 59.8155C96.2371 59.1386 96.9713 58.5232 97.7055 58.5232C98.4396 58.5232 99.0515 59.077 98.9903 59.8155C98.9291 60.4924 98.1949 61.1078 97.4608 61.1078Z" fill="#004587"/>
<path d="M112.389 64.9845C111.532 64.9845 110.859 65.3538 110.798 65.723C110.676 66.3999 111.777 66.7076 112.328 66.8922C113.796 67.4461 115.57 68.1845 115.387 69.9076C115.203 71.6922 113.184 72.923 110.921 72.923C108.657 72.923 109.575 72.7999 109.085 72.6153C107.678 72.123 108.229 70.3999 108.229 70.3999C108.473 70.3999 110.003 71.1999 111.165 71.1999C112.328 71.1999 113.857 70.1538 112.573 69.3538C111.961 68.923 110.982 68.7384 110.309 68.3692C109.208 67.8769 108.351 67.1999 108.535 65.9076C108.779 64.123 110.737 63.2615 112.634 63.2615C114.53 63.2615 113.98 63.5076 114.408 63.6922C115.754 64.1845 115.02 65.9692 115.02 65.9692C114.897 65.7845 113.735 64.9845 112.389 64.9845Z" fill="#004587"/>
<path d="M121.994 64.9846C123.096 64.9846 123.769 64.3077 123.891 63.2615H121.444L121.627 61.4769C121.811 59.8154 121.199 59.4461 119.67 59.1384C119.67 59.1384 119.486 60.3692 119.486 60.6154L119.119 63.2615H118.568C117.956 63.2615 117.1 63.6307 117.589 64.923H118.935L118.262 71.1384C118.14 72.3692 119.302 73.0461 120.404 73.0461C121.505 73.0461 121.75 72.8615 122.606 72.6769L122.423 71.0154C121.383 71.2615 120.465 71.4461 120.587 70.4L121.138 64.923H121.994V64.9846Z" fill="#004587"/>
<path d="M92.3216 60.6154C92.6887 60.6154 93.0558 60.6154 93.6676 60.8616L94.4018 59.3231C93.6676 59.0154 92.9334 58.8308 92.3216 58.8308C90.425 58.8308 89.0179 59.877 88.8343 61.7231L88.6508 63.2616H88.039C87.4272 63.2616 86.5706 63.6308 87.0601 64.9231H88.4672L87.6719 72.7385H88.6508C89.3849 72.7385 89.9967 72 90.0579 71.2L90.7309 64.9847H91.4039C92.5051 64.9847 93.1781 64.3077 93.3005 63.2616H90.9145L91.098 61.7847C91.2204 61.0462 91.5874 60.6154 92.3216 60.6154Z" fill="#004587"/>
<path d="M80.0855 63.2615C77.6994 63.2615 77.6383 64.6769 77.6383 64.6769L77.0876 69.3538C76.9041 70.0923 75.5581 71.2615 74.5792 71.2615C73.6003 71.2615 72.8662 70.8307 72.9885 69.8461L73.6615 63.2C71.2755 63.2 71.2143 64.6153 71.2143 64.6153L70.6025 70.3384C70.4189 72.2461 72.4379 72.9846 74.0286 72.9846C75.6193 72.9846 76.4758 72.3076 76.9653 71.8153C77.1488 72.3076 77.5771 72.7384 78.0054 72.7384H79.0454L80.0855 63.2615Z" fill="#004587"/>
<path d="M105.904 63.2615C104.925 63.2615 104.191 63.8154 103.701 64.2461L103.824 63.0769C101.499 63.0769 101.438 64.4923 101.438 64.4923L100.52 72.7384H101.56C102.233 72.7384 102.906 72 102.967 71.2L103.396 67.1384C103.518 66.6461 103.946 65.0461 105.476 65.0461C107.005 65.0461 106.638 65.4154 106.638 65.4154L107.739 63.8154C107.739 63.8154 107.066 63.2615 105.904 63.2615Z" fill="#004587"/>
</g>
<defs>
<clipPath id="clip0_896_17744">
<rect width="172" height="77" fill="white"/>
</clipPath>
</defs>
</svg>
