<svg width="250" height="79" viewBox="0 0 250 79" fill="none" xmlns="http://www.w3.org/2000/svg">
<g id="fc on white 7">
<path id="Vector" d="M53.33 67.6979C53.2944 65.381 52.8028 63.0939 51.8832 60.967C50.9636 58.8402 49.6342 56.9152 47.9707 55.3022C46.3072 53.6891 44.3423 52.4195 42.1882 51.5658C40.034 50.7121 37.7328 50.2911 35.416 50.3268C35.2238 50.3251 35.0332 50.3618 34.8555 50.4349C34.6777 50.508 34.5164 50.6159 34.381 50.7522C34.2456 50.8886 34.1389 51.0507 34.0671 51.229C33.9953 51.4073 33.96 51.5981 33.9631 51.7903C33.9662 51.9824 34.0078 52.172 34.0853 52.3479C34.1628 52.5237 34.2748 52.6823 34.4146 52.8142C34.5543 52.9461 34.7191 53.0487 34.8991 53.1159C35.0791 53.1832 35.2708 53.2137 35.4628 53.2057C39.3777 53.1465 43.1558 54.6447 45.9663 57.3707C48.7768 60.0967 50.3895 63.8273 50.4498 67.7422C50.4553 68.1204 50.6095 68.4812 50.879 68.7466C51.1485 69.0119 51.5117 69.1605 51.8899 69.1601H51.9121C52.2939 69.154 52.6577 68.9965 52.9235 68.7224C53.1894 68.4482 53.3356 68.0797 53.33 67.6979Z" fill="#02C0D5"/>
<path id="Vector_2" d="M92.2422 48.8841C92.2499 46.2178 91.4202 43.6164 89.8701 41.447C88.32 39.2776 86.1278 37.6497 83.6029 36.793C83.6419 36.2175 83.6602 35.6485 83.6602 35.0912C83.6602 20.6849 71.9414 8.96487 57.5338 8.96487C51.9247 8.9576 46.4626 10.7584 41.9577 14.1002C37.4528 17.4421 34.1449 22.1469 32.5247 27.517C32.3711 27.517 32.2188 27.5091 32.0664 27.5091C22.6471 27.5091 14.9844 35.1732 14.9844 44.5925C14.9844 54.0117 22.6471 61.6758 32.0664 61.6758H45.9635C45.3581 60.5638 44.3151 59.2565 43.5951 58.7943H32.0664C28.3232 58.7585 24.7455 57.2463 22.1113 54.5868C19.4771 51.9272 17.9993 48.3352 17.9993 44.5918C17.9993 40.8485 19.4771 37.2565 22.1113 34.5969C24.7455 31.9373 28.3232 30.4252 32.0664 30.3893C32.5156 30.3893 32.9779 30.4128 33.4596 30.4597L34.0039 30.513C36.5286 30.9284 38.0234 32.0977 38.1172 32.1732C38.4088 32.4064 38.7805 32.5154 39.1518 32.4767C39.5232 32.4379 39.8643 32.2546 40.1015 31.9662C40.3387 31.6778 40.4528 31.3077 40.4192 30.9358C40.3856 30.564 40.2069 30.2203 39.9219 29.9792C39.8242 29.8985 38.1888 28.5768 35.4245 27.9076C36.9373 23.2363 39.8926 19.1652 43.8654 16.2797C47.8382 13.3941 52.6237 11.8429 57.5338 11.849C70.3503 11.849 80.7799 22.2774 80.7799 35.0951C80.7799 35.4701 80.7669 35.8555 80.7487 36.2422C79.4867 36.1244 78.2143 36.2826 77.0195 36.7057C76.6798 36.849 76.4081 37.1172 76.2601 37.4549C76.1122 37.7926 76.0995 38.1741 76.2245 38.521C76.3495 38.8678 76.6028 39.1535 76.9321 39.3191C77.2614 39.4848 77.6418 39.5179 77.9948 39.4115C78.6395 39.1831 79.3201 39.0728 80.0039 39.086C80.5613 39.0942 81.116 39.1649 81.6575 39.2969C82.8264 39.5509 83.9409 40.0103 84.9492 40.6537H84.9648C85.013 40.6862 85.0625 40.7214 85.1094 40.7565C85.2526 40.8503 85.3802 40.9414 85.4857 41.0169C85.7617 41.224 85.9089 41.3594 85.9089 41.3594H85.9023C87.4372 42.6782 88.5315 44.4354 89.0381 46.3946C89.5447 48.3539 89.4392 50.4212 88.7359 52.3188C88.0326 54.2163 86.7652 55.853 85.104 57.0088C83.4429 58.1646 81.4677 58.784 79.444 58.7839H62.0234V61.6654H79.4518C82.843 61.6613 86.0941 60.3122 88.4919 57.9141C90.8897 55.5161 92.2384 52.2649 92.2422 48.8737V48.8841Z" fill="#02C0D5"/>
<path id="Vector_3" d="M67.0386 37.7787L65.8889 37.7526C65.2898 37.7428 64.6911 37.7864 64.0998 37.8828C65.5881 36.3464 67.1206 33.7774 67.0646 31.0339L67.0386 29.8828L65.8889 29.8568C64.3602 29.8268 62.6844 30.2044 61.2261 30.8555C61.4556 30.1892 61.5743 29.4898 61.5777 28.7852C61.5777 26.8529 60.6441 24.8906 58.8042 22.9453V19.7031C58.81 19.5131 58.7775 19.3237 58.7087 19.1464C58.64 18.9691 58.5363 18.8075 58.4039 18.671C58.2715 18.5345 58.113 18.426 57.9378 18.3518C57.7627 18.2777 57.5745 18.2396 57.3843 18.2396C57.1941 18.2396 57.0059 18.2777 56.8308 18.3518C56.6556 18.426 56.4971 18.5345 56.3647 18.671C56.2323 18.8075 56.1286 18.9691 56.0599 19.1464C55.9911 19.3237 55.9586 19.5131 55.9644 19.7031V22.9492C54.1193 24.8945 53.1818 26.8555 53.1818 28.7891C53.1844 29.4908 53.3032 30.1873 53.5334 30.8503C52.0691 30.1923 50.4811 29.8549 48.8758 29.8607L47.7248 29.8867L47.6988 31.0378C47.6428 33.7813 49.1753 36.3464 50.6688 37.8867C50.0761 37.7906 49.4762 37.7471 48.8758 37.7565L47.7248 37.7826L47.6988 38.9336C47.6428 41.6771 49.1753 44.2461 50.6636 45.7839C50.0728 45.6869 49.4745 45.6433 48.8758 45.6537L47.7248 45.6745L47.6988 46.8294C47.6428 49.638 49.2534 52.2695 50.7769 53.7969C52.0972 55.1133 53.868 55.8985 55.9422 56.1198V67.7188C55.9364 67.9114 55.9694 68.1033 56.0391 68.283C56.1089 68.4627 56.214 68.6266 56.3482 68.7649C56.4824 68.9033 56.6431 69.0133 56.8206 69.0884C56.9981 69.1635 57.1889 69.2022 57.3817 69.2022C57.5745 69.2022 57.7653 69.1635 57.9428 69.0884C58.1203 69.0133 58.281 68.9033 58.4152 68.7649C58.5494 68.6266 58.6545 68.4627 58.7243 68.283C58.794 68.1033 58.8269 67.9114 58.8211 67.7188V56.1198C60.8954 55.8985 62.6675 55.1133 63.9865 53.793C65.51 52.2656 67.1206 49.6341 67.0646 46.8255L67.0386 45.6706L65.8889 45.6498C65.2885 45.6373 64.6882 45.6809 64.0959 45.78C65.5881 44.2383 67.1206 41.6732 67.0646 38.9258L67.0386 37.7787ZM64.5256 32.3568C64.1779 33.8763 63.2352 35.3516 62.2899 36.3034C61.3784 37.2149 60.1323 37.7695 58.6441 37.944C58.8172 36.4505 59.3732 35.2097 60.2847 34.2982C61.2261 33.3464 62.8915 32.6081 64.5256 32.3568ZM56.1206 53.7279C54.6271 53.5586 53.3863 52.9987 52.4748 52.0951C51.5321 51.1445 50.5907 49.6641 50.243 48.1406C51.8758 48.4011 53.5373 49.1354 54.4839 50.082C55.3954 50.9935 55.9514 52.2344 56.1245 53.7279H56.1206ZM52.4748 44.1992C51.5282 43.2526 50.5855 41.7721 50.243 40.2487C51.8758 40.5013 53.5373 41.2383 54.4839 42.1849C55.3954 43.0964 55.9514 44.3425 56.1245 45.8307C54.6323 45.6628 53.3863 45.1068 52.4748 44.1992ZM52.4748 36.3034C51.5282 35.3568 50.5855 33.8763 50.243 32.3568C51.8758 32.6081 53.5373 33.3464 54.4839 34.293C55.3954 35.2044 55.9514 36.4505 56.1245 37.9388C54.6323 37.7695 53.3863 37.2149 52.4748 36.3034ZM57.3797 32.5169C56.2339 31.2018 55.6558 29.9518 55.6558 28.7891C55.6558 27.6263 56.2339 26.375 57.3797 25.0599C58.5256 26.375 59.1076 27.625 59.1076 28.7891C59.1076 29.9531 58.5256 31.2018 57.3797 32.5169ZM64.5256 48.1419C64.1779 49.6654 63.2352 51.1459 62.2899 52.0925C61.3784 53.0039 60.1363 53.5599 58.6441 53.7292C58.8133 52.2396 59.3732 50.9948 60.2808 50.0834C61.2261 49.1354 62.8915 48.3972 64.5256 48.1406V48.1419ZM62.2899 44.2005C61.3784 45.112 60.1323 45.6641 58.6441 45.8373C58.8172 44.3438 59.3732 43.1029 60.2847 42.1914C61.2313 41.2448 62.8889 40.5078 64.5308 40.2552C64.1779 41.7722 63.2352 43.2526 62.2899 44.1992V44.2005Z" fill="#02C0D5"/>
<path id="Vector_4" d="M113.428 35.4232C115.198 35.4232 115.999 34.6498 115.999 33.1302V32.9922C115.999 31.5274 115.198 30.7526 113.428 30.7526H104.723C102.9 30.7526 101.875 31.8307 101.875 33.849V45.5404C101.875 47.5573 102.706 48.7474 104.225 48.7474H105.109C106.715 48.7474 107.542 47.862 107.542 46.1758V42.7761H111.522C113.32 42.7761 114.066 41.9753 114.066 40.5378V40.4544C114.066 39.1003 113.346 38.3255 111.522 38.3255H107.355V35.4232H113.428Z" fill="#02C0D5"/>
<path id="Vector_5" d="M217.626 35.2031H217.317C216.626 35.2031 216.13 35.5352 216.13 36.5286V44.2409C215.438 45.651 214.139 46.5911 212.484 46.5911C210.464 46.5911 209.304 45.2357 209.304 42.9453V36.5286C209.304 35.5065 208.807 35.2031 208.088 35.2031H207.783C207.093 35.2031 206.596 35.5352 206.596 36.5286V43.2734C206.596 46.5911 208.199 48.9688 211.709 48.9688C213.753 48.9688 215.225 48 216.136 46.6458C216.218 48.332 217.048 48.7474 217.877 48.7474C218.398 48.7474 218.844 48.5247 218.844 48.4427V36.5286C218.844 35.5065 218.347 35.2031 217.627 35.2031H217.626Z" fill="#02C0D5"/>
<path id="Vector_6" d="M233.27 29.6484C232.749 29.6484 232.271 29.8659 232.271 29.9505V37.1914C231.499 36.0013 229.872 35.0078 227.714 35.0078C224.036 35.0078 221.408 37.7982 221.408 42.0013C221.408 46.2044 224.062 48.9987 227.63 48.9987C229.734 48.9987 231.275 48.026 232.301 46.4245V47.4492C232.301 48.444 232.799 48.7448 233.518 48.7448H233.792C234.511 48.7448 235.014 48.444 235.014 47.4492V31.9961C235.015 30.0872 234.127 29.6484 233.27 29.6484ZM232.303 42.8307C232.303 45.0977 230.369 46.7305 228.154 46.7305C225.781 46.7305 224.063 44.7643 224.063 42.0013C224.063 39.1576 225.723 37.276 228.213 37.276C230.257 37.276 231.611 38.3268 232.303 40.0104V42.8307Z" fill="#02C0D5"/>
<path id="Vector_7" d="M123.184 34.6484C118.654 34.6484 115.641 37.5234 115.641 41.8099C115.641 46.2031 118.543 49.0247 123.104 49.0247C127.638 49.0247 130.62 46.2031 130.62 41.8372C130.62 37.5234 127.665 34.6484 123.184 34.6484ZM123.13 44.9609C121.359 44.9609 120.145 43.6589 120.145 41.8099C120.145 39.987 121.387 38.6849 123.13 38.6849C124.874 38.6849 126.116 39.9805 126.116 41.8359C126.116 43.6341 124.842 44.9609 123.13 44.9609Z" fill="#02C0D5"/>
<path id="Vector_8" d="M180.372 43.3008C179.624 45.2357 177.606 46.4258 175.202 46.4258C171.609 46.4258 168.984 43.6341 168.984 39.6823C168.984 35.7018 171.527 32.9661 175.146 32.9661C177.165 32.9661 179.183 33.9323 180.205 35.7292C180.261 35.8398 181.864 35.5078 181.864 34.1823C181.864 32.9375 179.598 30.3945 175.119 30.3945C169.757 30.3945 166.025 34.2643 166.025 39.7383C166.025 45.1836 169.729 48.9974 175.037 48.9974C179.792 48.9974 182.14 46.1497 182.14 44.8229C182.14 43.4961 180.428 43.1641 180.372 43.3021V43.3008Z" fill="#02C0D5"/>
<path id="Vector_9" d="M139.382 34.6484C134.847 34.6484 131.83 37.5234 131.83 41.8099C131.83 46.2031 134.732 49.0247 139.294 49.0247C143.829 49.0247 146.814 46.2031 146.814 41.8372C146.818 37.5234 143.859 34.6484 139.382 34.6484ZM139.329 44.9609C137.558 44.9609 136.343 43.6589 136.343 41.8099C136.343 39.987 137.585 38.6849 139.329 38.6849C141.072 38.6849 142.311 39.9805 142.311 41.8359C142.317 43.6341 141.041 44.9609 139.329 44.9609Z" fill="#02C0D5"/>
<path id="Vector_10" d="M185.758 29.6472C185.238 29.6472 184.764 29.8685 184.764 29.9518V47.4479C184.764 48.4427 185.285 48.75 186.007 48.75H186.285C187.002 48.75 187.501 48.4453 187.501 47.4479V31.9961C187.501 30.0899 186.615 29.6524 185.758 29.6524V29.6472Z" fill="#02C0D5"/>
<path id="Vector_11" d="M160.333 29.1784C159.255 29.1784 158.288 29.5912 158.288 29.7865V36.5039C157.484 35.3946 156.047 34.6485 154.335 34.6485C150.518 34.6485 148.035 37.4128 148.035 41.8099C148.035 46.0651 150.518 49.0248 154.285 49.0248C156.161 49.0248 157.632 48.0261 158.322 46.4831C158.432 48.2214 159.372 48.7761 160.725 48.7761H161.281C162.634 48.7761 163.602 48.1107 163.602 46.2031V33.211C163.595 29.9766 161.849 29.1784 160.333 29.1784ZM158.315 42.4974C158.315 43.9935 157.21 44.9024 155.772 44.9024C154.171 44.9024 153.061 43.6602 153.061 41.8373C153.061 39.9284 154.171 38.7709 155.826 38.7709C157.014 38.7709 157.871 39.3737 158.315 40.3724V42.4974Z" fill="#02C0D5"/>
<path id="Vector_12" d="M197.204 35.0078C193.087 35.0078 190.211 37.9102 190.211 41.974C190.211 46.0911 193.055 48.9987 197.177 48.9987C201.263 48.9987 204.138 46.0911 204.138 42.0326C204.138 37.9362 201.263 35.0078 197.204 35.0078ZM197.177 46.7578C194.63 46.7578 192.723 44.7122 192.723 41.974C192.723 39.2357 194.63 37.2487 197.177 37.2487C199.746 37.2487 201.596 39.2682 201.596 42.0326C201.596 44.7383 199.72 46.7578 197.177 46.7578Z" fill="#02C0D5"/>
</g>
</svg>
