<svg xmlns="http://www.w3.org/2000/svg" fill="none" viewBox="0 0 177 16" height="16" width="177">
<path fill="white" d="M4.2307 14.4167V3.60247H0V1.19678H11.3668V3.60814H7.11347V14.4167H4.2307Z"></path>
<path fill="white" d="M17.1553 14.4167V1.19678H20.021V6.43937H25.8659V1.19678H28.7317V14.4167H25.8659V8.86775H20.021V14.4167H17.1553Z"></path>
<path fill="white" d="M35.5047 14.4167V1.19678H46.0446V3.54573H38.3875V6.4961H45.1554V8.82804H38.3875V12.0451H46.1579V14.4167H35.499H35.5047Z"></path>
<path fill="white" d="M52.4902 14.4167V1.19678H55.356V6.43937H61.2008V1.19678H64.0666V14.4167H61.2008V8.86775H55.356V14.4167H52.4902Z"></path>
<path fill="white" d="M76.9961 14.6439C75.5972 14.6439 74.3909 14.3942 73.3828 13.8949C72.369 13.3956 71.5931 12.6354 71.055 11.6197C70.517 10.6041 70.2451 9.33321 70.2451 7.80696C70.2451 6.2807 70.517 4.97006 71.055 3.96012C71.5931 2.95018 72.369 2.20124 73.3828 1.70762C74.3965 1.214 75.6029 0.964355 76.9961 0.964355C78.3894 0.964355 79.6353 1.214 80.6435 1.70762C81.6516 2.20124 82.4218 2.95586 82.9599 3.96012C83.4979 4.97006 83.7698 6.25234 83.7698 7.80696C83.7698 9.36158 83.4979 10.6098 82.9599 11.6197C82.4218 12.6297 81.6459 13.39 80.6435 13.8949C79.641 14.3999 78.4233 14.6439 76.9961 14.6439ZM76.9961 12.2949C77.6248 12.2949 78.1741 12.2041 78.6499 12.0226C79.1256 11.841 79.5221 11.5744 79.8449 11.2112C80.1677 10.8538 80.4113 10.4112 80.5755 9.88924C80.7398 9.36725 80.8247 8.77717 80.8247 8.10767V7.51192C80.8247 6.83106 80.7398 6.22964 80.5755 5.70198C80.4113 5.17431 80.1621 4.73743 79.8449 4.37998C79.5221 4.02821 79.1256 3.76154 78.6499 3.57998C78.1741 3.39841 77.6248 3.30763 76.9961 3.30763C76.3675 3.30763 75.8351 3.39841 75.3593 3.57998C74.8836 3.76154 74.4871 4.02821 74.1643 4.37998C73.8415 4.73176 73.6036 5.17431 73.445 5.70198C73.2865 6.22964 73.2072 6.83106 73.2072 7.51192V8.10767C73.2072 8.77717 73.2865 9.36725 73.445 9.88924C73.6036 10.4112 73.8472 10.8481 74.1643 11.2112C74.4871 11.5687 74.8836 11.841 75.3593 12.0226C75.8351 12.2041 76.3788 12.2949 76.9961 12.2949Z"></path>
<path fill="white" d="M93.1946 14.4167V3.60247H88.9639V1.19678H100.331V3.60814H96.0773V14.4167H93.1946Z"></path>
<path fill="white" d="M106.119 14.4167V1.19678H113.657C114.348 1.19678 114.977 1.33295 115.532 1.59962C116.087 1.87196 116.529 2.24643 116.851 2.73438C117.174 3.22232 117.333 3.79538 117.333 4.44786C117.333 4.97553 117.237 5.44078 117.044 5.85497C116.851 6.26915 116.591 6.60391 116.262 6.87625C115.934 7.14859 115.566 7.34717 115.158 7.472V7.55143C115.645 7.65356 116.076 7.84647 116.455 8.13016C116.834 8.41385 117.135 8.77697 117.361 9.21953C117.588 9.66208 117.695 10.1841 117.695 10.7912C117.695 11.5855 117.514 12.255 117.146 12.794C116.778 13.333 116.296 13.7359 115.696 14.0082C115.096 14.2806 114.422 14.4111 113.674 14.4111H106.113L106.119 14.4167ZM108.985 6.53015H112.791C113.136 6.53015 113.431 6.46206 113.663 6.32589C113.895 6.18972 114.082 6.01383 114.201 5.78688C114.32 5.55993 114.382 5.30461 114.382 5.0039C114.382 4.5046 114.246 4.12446 113.969 3.86914C113.691 3.61382 113.329 3.48332 112.881 3.48332H108.979V6.53015H108.985ZM108.985 12.0621H113.119C113.595 12.0621 113.98 11.9259 114.28 11.6593C114.58 11.3869 114.733 10.9727 114.733 10.4054C114.733 10.0706 114.671 9.78123 114.541 9.53726C114.41 9.29329 114.218 9.10605 113.963 8.96988C113.708 8.83371 113.38 8.76562 112.983 8.76562H108.985V12.0621Z"></path>
<path fill="white" d="M130.008 14.6439C128.609 14.6439 127.403 14.3942 126.394 13.8949C125.381 13.3956 124.605 12.6354 124.067 11.6197C123.529 10.6041 123.257 9.33321 123.257 7.80696C123.257 6.2807 123.529 4.97006 124.067 3.96012C124.605 2.95018 125.381 2.20124 126.394 1.70762C127.408 1.214 128.615 0.964355 130.008 0.964355C131.401 0.964355 132.647 1.214 133.655 1.70762C134.663 2.20124 135.434 2.95586 135.972 3.96012C136.51 4.97006 136.781 6.25234 136.781 7.80696C136.781 9.36158 136.51 10.6098 135.972 11.6197C135.434 12.6297 134.658 13.39 133.655 13.8949C132.653 14.3999 131.435 14.6439 130.008 14.6439ZM130.008 12.2949C130.636 12.2949 131.186 12.2041 131.662 12.0226C132.137 11.841 132.534 11.5744 132.857 11.2112C133.179 10.8538 133.423 10.4112 133.587 9.88924C133.751 9.36725 133.836 8.77717 133.836 8.10767V7.51192C133.836 6.83106 133.751 6.22964 133.587 5.70198C133.423 5.17431 133.174 4.73743 132.857 4.37998C132.534 4.02821 132.137 3.76154 131.662 3.57998C131.186 3.39841 130.636 3.30763 130.008 3.30763C129.379 3.30763 128.847 3.39841 128.371 3.57998C127.895 3.76154 127.499 4.02821 127.176 4.37998C126.853 4.73176 126.615 5.17431 126.457 5.70198C126.298 6.22964 126.219 6.83106 126.219 7.51192V8.10767C126.219 8.77717 126.298 9.36725 126.457 9.88924C126.615 10.4112 126.859 10.8481 127.176 11.2112C127.499 11.5687 127.895 11.841 128.371 12.0226C128.847 12.2041 129.391 12.2949 130.008 12.2949Z"></path>
<path fill="white" d="M141.663 14.4167L146.415 7.46065L142.127 1.19678H145.628L148.357 5.37837H148.454L151.167 1.19678H154.457L150.147 7.46065L154.899 14.4167H151.399L148.227 9.52024H148.131L144.976 14.4167H141.669H141.663Z"></path>
<path fill="#FAC9B2" d="M176.112 0H160.582V15.5576H176.112V0Z"></path>
</svg>
