<svg width="50" height="33" viewBox="0 0 50 33" fill="none" xmlns="http://www.w3.org/2000/svg">
<path fill-rule="evenodd" clip-rule="evenodd" d="M10.2437 19.6183C10.2496 19.7869 10.3149 19.9059 10.4962 19.8941C10.7096 19.8789 11.0055 19.4792 11.125 19.3361C11.3598 19.0556 11.5783 18.7608 11.8067 18.4753C13.3739 16.5165 14.913 14.5437 16.1935 12.3796C16.9015 11.1824 17.676 9.75994 18.2334 8.48981C18.7784 7.24941 19.3411 6.11561 19.366 4.65277C19.3714 4.35515 19.274 4.06034 18.9865 4.06034C18.8555 4.06034 18.6996 4.12401 18.531 4.25585C18.0858 4.60396 17.6934 5.06062 17.3422 5.50018C16.5641 6.47157 15.8922 7.54899 15.1955 8.57901C13.7537 10.7106 12.6805 13.0088 11.7517 15.3967C11.3276 16.4882 10.8297 17.5064 10.5088 18.6265C10.3523 19.1432 10.2336 19.3305 10.2437 19.6183ZM30.2524 19.6183C30.2586 19.7869 30.3237 19.9059 30.5049 19.8941C30.7181 19.8789 31.014 19.4792 31.1338 19.3361C31.3685 19.0556 31.5871 18.7608 31.8154 18.4753C33.3823 16.5165 34.9217 14.5437 36.2022 12.3796C36.9102 11.1824 37.6847 9.75994 38.2421 8.48981C38.7871 7.24941 39.3498 6.11561 39.375 4.65277C39.3801 4.35515 39.2828 4.06034 38.9952 4.06034C38.8642 4.06034 38.7083 4.12401 38.5394 4.25585C38.0945 4.60396 37.7021 5.06062 37.3509 5.50018C36.5728 6.47157 35.9007 7.54899 35.2042 8.57901C33.7624 10.7106 32.6892 13.0088 31.7604 15.3967C31.3363 16.4882 30.8384 17.5064 30.5175 18.6265C30.361 19.1432 30.2423 19.3305 30.2524 19.6183ZM49.9999 21.4179C50.0072 21.9708 49.6952 22.4898 49.4397 22.959C49.157 23.4811 48.8927 24.0126 48.6018 24.5302C47.9996 25.6039 47.2868 26.6721 46.5286 27.6424C45.0896 29.4836 43.2458 31.0129 41.0444 31.0129C39.7031 31.0129 38.8046 30.3925 38.3967 29.8141C38.0857 29.3725 37.8921 28.8654 37.7824 28.338C36.059 30.4219 33.8767 32.1759 31.3931 32.1759C30.0433 32.1759 29.255 31.9024 28.2822 30.9484C27.3552 30.0396 26.8716 28.7568 26.6629 27.4561C26.6152 27.5184 26.5681 27.5812 26.5201 27.6424C25.0811 29.4836 23.2373 31.0129 21.0359 31.0129C19.6943 31.0129 18.7961 30.3925 18.3882 29.8141C18.0771 29.3725 17.8836 28.8654 17.7739 28.338C16.0505 30.4219 13.8684 32.1759 11.3843 32.1759C10.0347 32.1759 9.24652 31.9024 8.27373 30.9484C6.93767 29.6387 6.52112 27.5532 6.52533 25.7557C6.41509 25.7997 6.29475 25.8533 6.16236 25.9184C4.65604 26.8227 3.03163 27.5209 1.25546 27.9077C-0.00737945 28.1826 -0.541744 26.2452 0.721376 25.9703C2.81788 25.5136 5.07736 24.3299 6.76713 23.1341C6.76713 23.1341 6.76741 23.1338 6.76769 23.1335C6.89644 22.361 7.06474 21.593 7.24315 20.8283C7.65914 19.0429 8.17443 17.3052 8.81594 15.5924C9.46756 13.9293 10.0513 12.2333 10.8956 10.651C11.3133 9.86837 11.701 9.10259 12.1082 8.31381C12.5428 7.47089 13.2606 6.42909 13.7728 5.63469C14.9018 3.88405 17.0516 0.82373 19.4334 0.82373C20.076 0.82373 20.7265 1.06861 21.3641 1.65655C21.9549 2.20186 22.1829 3.03692 22.1801 3.84787C22.1739 5.52642 21.4713 7.38646 20.8062 9.01451C20.1375 10.653 19.2025 12.279 18.3274 13.8187C16.5989 16.8583 14.3254 19.5284 11.9932 22.09C11.4109 22.7178 10.8204 23.3332 10.1901 23.9128C9.54807 24.5032 9.17135 25.0724 9.1548 26.0225C9.1548 27.5666 9.45101 29.5574 11.2878 29.5574C12.9102 29.5574 14.4844 27.9703 15.4811 26.8457C16.6642 25.5102 17.4682 24.2544 18.3714 22.7189C18.5139 22.4763 18.6334 22.2485 18.7487 22.0219C18.8721 21.6875 18.9992 21.3571 19.1276 21.032C19.5131 20.0564 19.9579 19.113 20.398 18.1621C20.8042 17.2838 21.1195 16.2106 21.8592 15.543C22.1599 15.272 22.5804 15.1127 22.9854 15.1127C23.7033 15.1127 24.2289 15.6162 24.2289 16.3669C24.2289 17.104 23.722 17.8998 23.4152 18.492C22.9411 19.4064 22.508 20.34 22.0805 21.2768C21.6295 22.2668 21.1602 23.2721 20.8598 24.3195C20.6379 25.0912 20.3835 26.0763 20.3574 26.9338C20.3324 27.7403 20.6031 28.1955 21.2379 28.1955C21.6082 28.1955 22.0298 28.0345 22.3599 27.8354C23.3136 27.2598 24.0735 26.4544 24.7092 25.5613C25.3153 24.7105 25.8601 23.8505 26.4087 22.9616C26.5939 22.6623 26.7956 22.3394 26.9863 22.0227C27.069 21.6236 27.1591 21.2255 27.2517 20.8283C27.6676 19.0429 28.1829 17.3052 28.8242 15.5924C29.4761 13.9293 30.0601 12.2333 30.9041 10.651C31.3218 9.86837 31.7095 9.10259 32.1165 8.31381C32.5513 7.47089 33.2691 6.42909 33.7813 5.63469C34.9106 3.88405 37.0601 0.82373 39.4419 0.82373C40.0843 0.82373 40.735 1.06861 41.3726 1.65655C41.9634 2.20186 42.1911 3.03692 42.1886 3.84787C42.1824 5.52642 41.4798 7.38646 40.8147 9.01451C40.146 10.653 39.2113 12.279 38.3359 13.8187C36.6074 16.8583 34.3336 19.5284 32.0018 22.09C31.4194 22.7178 30.829 23.3332 30.1987 23.9128C29.5566 24.5032 29.1799 25.0724 29.1633 26.0225C29.1633 27.5666 29.4592 29.5574 31.2963 29.5574C32.9187 29.5574 34.4929 27.9703 35.4896 26.8457C36.6727 25.5102 37.4767 24.2544 38.3799 22.7189C38.5224 22.4763 38.6419 22.2485 38.7572 22.0219C38.8806 21.6875 39.0077 21.3571 39.1362 21.032C39.5216 20.0564 39.9667 19.113 40.4063 18.1621C40.813 17.2838 41.128 16.2106 41.8677 15.543C42.1687 15.272 42.5892 15.1127 42.9937 15.1127C43.7118 15.1127 44.2377 15.6162 44.2377 16.3669C44.2377 17.104 43.7306 17.8998 43.4234 18.492C42.9496 19.4064 42.5163 20.34 42.089 21.2768C41.638 22.2668 41.1687 23.2721 40.8683 24.3195C40.6464 25.0912 40.3923 26.0763 40.3656 26.9338C40.3409 27.7403 40.6116 28.1955 41.2464 28.1955C41.6167 28.1955 42.0383 28.0345 42.3684 27.8354C43.3221 27.2598 44.0818 26.4544 44.7177 25.5613C45.3238 24.7105 45.8683 23.8505 46.4172 22.9616C46.6809 22.5349 46.9794 22.06 47.2299 21.6252C47.4818 21.1868 47.6304 20.7282 48.0896 20.478C48.3569 20.3324 48.5906 20.2729 48.817 20.2729C49.4302 20.2729 49.9901 20.7111 49.9999 21.4179ZM44.5268 10.9896C44.7697 11.1666 45.064 11.2454 45.361 11.2454C45.6376 11.2454 45.9173 11.1773 46.1599 11.0581C47.0494 10.6207 47.8511 9.21457 47.8511 8.19381C47.8511 7.09058 47.1294 6.45972 46.2399 6.45972C46.02 6.45972 45.7944 6.5046 45.5776 6.60081C44.4746 7.09058 43.9296 8.27067 43.9296 9.4199C43.9296 9.99494 44.0281 10.6258 44.5268 10.9896ZM23.9212 9.4199C23.9212 8.27067 24.4666 7.09058 25.5692 6.60081C25.7861 6.5046 26.0116 6.45972 26.2315 6.45972C27.121 6.45972 27.843 7.09058 27.843 8.19381C27.843 9.21457 27.041 10.6207 26.1518 11.0581C25.9089 11.1773 25.6292 11.2454 25.3527 11.2454C25.0556 11.2454 24.7614 11.1666 24.5184 10.9896C24.0197 10.6258 23.9212 9.99494 23.9212 9.4199Z" fill="#0E5CF4"/>
</svg>
