<?xml version="1.0" encoding="UTF-8"?><svg id="Layer_1" xmlns="http://www.w3.org/2000/svg" viewBox="0 0 472.44 143.66"><defs><style>.cls-1{fill:#ffffff;}.cls-2{fill:#ffffff;}</style></defs><path class="cls-2" d="M136.53,103.87V34.03h28.23c.68,0,1.52.02,2.52.07,1,.05,1.96.15,2.86.32,3.88.61,7.12,1.94,9.72,3.98,2.6,2.04,4.55,4.61,5.84,7.71,1.29,3.1,1.94,6.53,1.94,10.28s-.65,7.23-1.94,10.33c-1.29,3.1-3.24,5.67-5.84,7.71s-5.84,3.36-9.72,3.98c-.9.13-1.87.23-2.88.29-1.02.07-1.85.1-2.5.1h-18.09v25.07h-10.14ZM146.67,69.19h17.7c.65,0,1.37-.03,2.16-.1.79-.06,1.54-.18,2.26-.34,2.07-.48,3.73-1.38,5-2.69,1.26-1.31,2.17-2.82,2.71-4.54.55-1.71.82-3.43.82-5.14s-.27-3.42-.82-5.12c-.55-1.7-1.46-3.2-2.71-4.51-1.26-1.31-2.93-2.21-5-2.69-.71-.19-1.46-.32-2.26-.39-.79-.06-1.51-.1-2.16-.1h-17.7v25.61Z"/><path class="cls-2" d="M197.35,103.87v-52.38h9.02v12.71l-1.26-1.65c.65-1.68,1.49-3.22,2.52-4.63,1.03-1.41,2.23-2.56,3.59-3.47,1.33-.97,2.8-1.72,4.44-2.25s3.31-.86,5.02-.97c1.71-.11,3.36-.02,4.95.27v9.51c-1.71-.45-3.61-.58-5.7-.39-2.09.19-4,.86-5.75,1.99-1.65,1.07-2.95,2.36-3.9,3.88-.96,1.52-1.64,3.21-2.06,5.07-.42,1.86-.63,3.82-.63,5.89v26.43h-10.23Z"/><path class="cls-2" d="M256.61,105.32c-5.24,0-9.78-1.18-13.63-3.54-3.85-2.36-6.81-5.62-8.9-9.77-2.09-4.15-3.13-8.95-3.13-14.38s1.07-10.27,3.2-14.43c2.13-4.15,5.12-7.39,8.97-9.7,3.85-2.31,8.34-3.47,13.48-3.47s9.78,1.18,13.63,3.54c3.85,2.36,6.82,5.61,8.92,9.75s3.15,8.91,3.15,14.31-1.06,10.27-3.18,14.43c-2.12,4.16-5.1,7.4-8.95,9.75s-8.37,3.52-13.58,3.52ZM256.61,95.77c5.01,0,8.76-1.69,11.23-5.07,2.47-3.38,3.71-7.74,3.71-13.07s-1.25-9.84-3.76-13.12c-2.51-3.28-6.23-4.92-11.18-4.92-3.39,0-6.19.77-8.39,2.3-2.2,1.54-3.83,3.65-4.9,6.35-1.07,2.7-1.6,5.83-1.6,9.38,0,5.5,1.26,9.89,3.78,13.19,2.52,3.3,6.22,4.95,11.11,4.95Z"/><path class="cls-2" d="M292.94,103.87v-52.38h9.07v15.13h1.21v37.25h-10.28ZM329.75,103.87v-25.75c0-2.04-.17-4.13-.51-6.28s-.99-4.15-1.94-5.99c-.96-1.84-2.3-3.33-4.03-4.46-1.73-1.13-3.99-1.7-6.77-1.7-1.81,0-3.53.3-5.14.9-1.62.6-3.03,1.56-4.24,2.89-1.21,1.33-2.17,3.07-2.86,5.24-.7,2.17-1.04,4.8-1.04,7.91l-6.3-2.38c0-4.75.89-8.95,2.67-12.59,1.78-3.64,4.33-6.47,7.66-8.51,3.33-2.04,7.36-3.05,12.08-3.05,3.62,0,6.66.58,9.12,1.75,2.46,1.16,4.46,2.69,5.99,4.58s2.71,3.95,3.52,6.18c.81,2.23,1.36,4.41,1.65,6.55.29,2.13.44,4.01.44,5.63v29.1h-10.28Z"/><path class="cls-2" d="M346.82,59.63v-8.15h35.79v8.15h-35.79ZM382.62,103.87c-3.3.65-6.53.92-9.7.82-3.17-.1-6-.71-8.49-1.84s-4.36-2.91-5.62-5.33c-1.13-2.17-1.74-4.37-1.82-6.62-.08-2.25-.12-4.79-.12-7.64v-46.32h10.18v45.83c0,2.1.03,3.93.07,5.48.05,1.55.38,2.86.99,3.93,1.16,2,3.01,3.14,5.55,3.42,2.54.28,5.52.17,8.95-.32v8.58Z"/><path class="cls-2" d="M413.95,105.32c-5.24,0-9.78-1.18-13.63-3.54-3.85-2.36-6.81-5.62-8.9-9.77-2.08-4.15-3.13-8.95-3.13-14.38s1.07-10.27,3.2-14.43c2.13-4.15,5.12-7.39,8.97-9.7,3.85-2.31,8.34-3.47,13.48-3.47s9.78,1.18,13.63,3.54c3.85,2.36,6.82,5.61,8.92,9.75s3.15,8.91,3.15,14.31-1.06,10.27-3.18,14.43c-2.12,4.16-5.1,7.4-8.95,9.75s-8.38,3.52-13.58,3.52ZM413.95,95.77c5.01,0,8.75-1.69,11.23-5.07,2.47-3.38,3.71-7.74,3.71-13.07s-1.25-9.84-3.76-13.12c-2.51-3.28-6.23-4.92-11.18-4.92-3.39,0-6.19.77-8.39,2.3-2.2,1.54-3.83,3.65-4.9,6.35-1.07,2.7-1.6,5.83-1.6,9.38,0,5.5,1.26,9.89,3.78,13.19,2.52,3.3,6.22,4.95,11.11,4.95Z"/><path class="cls-1" d="M89,38.77c-1.15-.31-2.36-.52-3.64-.63-1.28-.1-2.44-.16-3.48-.16h-28.57v41.33h28.57c1.04,0,2.2-.05,3.48-.16,1.28-.1,2.49-.29,3.64-.55,3.34-.78,6.03-2.23,8.06-4.34,2.04-2.11,3.5-4.55,4.38-7.32.89-2.76,1.33-5.53,1.33-8.3s-.44-5.52-1.33-8.26c-.89-2.74-2.35-5.17-4.38-7.28-2.03-2.11-4.72-3.56-8.06-4.35Z"/><path class="cls-1" d="M82.5,22.57c1.1,0,2.45.04,4.07.12,1.62.08,3.16.25,4.62.51,6.26.99,11.49,3.13,15.7,6.42.9.7,1.74,1.46,2.55,2.24-12.88-24.14-36.95-21.93-56.78-9.29h29.84Z"/><path class="cls-1" d="M116.32,75.33c-2.09,5.01-5.23,9.16-9.43,12.45-4.2,3.29-9.43,5.43-15.7,6.42-1.46.21-3.01.37-4.66.47-1.64.11-2.99.16-4.03.16h-29.2v20.16c13.99,9.03,29.34,13.68,39.42,10.49,15.25-4.81,23.85-28.95,24.65-53.02-.32.97-.66,1.93-1.05,2.87Z"/><path class="cls-1" d="M35.94,36.81c-11.21,12.52-17.85,27.83-14.28,40.15,2.42,8.38,7.63,16.47,14.28,23.6v-63.75Z"/></svg>