<svg xml:space="preserve" style="max-height: 500px" viewBox="4 728 1932 556" y="0px" x="0px" xmlns:xlink="http://www.w3.org/1999/xlink" xmlns="http://www.w3.org/2000/svg" id="Layer_1" version="1.1" width="1932" height="556">
<style type="text/css">
	.st0{fill:transparent;}
	.st1{fill:#FFFFFF;}
</style>
<rect height="2016.07" width="2039.29" class="st0" y="-9.36" x="-22.21"/>
<g>
	<g>
		<rect height="49.62" width="60.23" class="st1" y="902.11" x="730.54"/>
		<rect height="219.28" width="60.23" class="st1" y="975.91" x="730.54"/>
		<path d="M1155.04,994.78c-5.94-7.77-14.07-13.85-24.39-18.24c-10.33-4.38-23.54-6.57-39.66-6.57&#10;&#9;&#9;&#9;c-11.31,0-22.9,2.9-34.78,8.7c-11.88,5.8-21.63,15.06-29.27,27.78h-1.27V902.11h-60.23v293.07h60.23v-114.94&#10;&#9;&#9;&#9;c0-22.33,3.67-38.38,11.03-48.14c7.35-9.76,19.22-14.63,35.63-14.63c14.42,0,24.45,4.45,30.11,13.36&#10;&#9;&#9;&#9;c5.65,8.91,8.48,22.41,8.48,40.51v123.85h60.23v-134.87c0-13.57-1.21-25.94-3.6-37.11&#10;&#9;&#9;&#9;C1165.14,1012.03,1160.98,1002.56,1155.04,994.78z" class="st1"/>
		<path d="M1385.38,1001.57c-9.9-10.03-21.84-17.81-35.84-23.33c-14-5.51-29.62-8.27-46.87-8.27&#10;&#9;&#9;&#9;c-17.25,0-32.8,2.76-46.65,8.27c-13.86,5.51-25.73,13.29-35.63,23.33c-9.9,10.04-17.53,22.2-22.9,36.47&#10;&#9;&#9;&#9;c-5.37,14.28-8.06,30.19-8.06,47.71c0,17.54,2.68,33.37,8.06,47.5c5.37,14.14,13,26.23,22.9,36.26&#10;&#9;&#9;&#9;c9.89,10.04,21.77,17.75,35.63,23.12c13.85,5.37,29.41,8.06,46.65,8.06c17.24,0,32.87-2.69,46.87-8.06&#10;&#9;&#9;&#9;c14-5.37,25.94-13.08,35.84-23.12c9.89-10.03,17.53-22.12,22.9-36.26c5.37-14.13,8.06-29.97,8.06-47.5&#10;&#9;&#9;&#9;c0-17.53-2.69-33.43-8.06-47.71C1402.91,1023.77,1395.27,1011.61,1385.38,1001.57z M1353.57,1111.42&#10;&#9;&#9;&#9;c-1.7,8.34-4.6,15.84-8.69,22.48c-4.1,6.65-9.62,11.95-16.54,15.91c-6.93,3.96-15.48,5.94-25.66,5.94&#10;&#9;&#9;&#9;c-10.18,0-18.66-1.97-25.45-5.94c-6.79-3.96-12.23-9.26-16.33-15.91c-4.1-6.64-7-14.14-8.69-22.48&#10;&#9;&#9;&#9;c-1.7-8.34-2.54-16.89-2.54-25.66c0-8.76,0.85-17.39,2.54-25.87c1.7-8.48,4.59-15.97,8.69-22.48c4.1-6.5,9.54-11.8,16.33-15.91&#10;&#9;&#9;&#9;c6.79-4.1,15.27-6.15,25.45-6.15c10.18,0,18.73,2.05,25.66,6.15c6.92,4.1,12.44,9.4,16.54,15.91c4.1,6.51,7,14,8.69,22.48&#10;&#9;&#9;&#9;c1.7,8.48,2.54,17.11,2.54,25.87C1356.11,1094.53,1355.26,1103.08,1353.57,1111.42z" class="st1"/>
		<rect height="293.07" width="60.23" class="st1" y="902.11" x="1430.38"/>
		<path d="M1827.36,975.91h-164.58v45.38h85.27l-113.93,128.33c-0.52,0.06-1.03,0.13-1.56,0.18&#10;&#9;&#9;&#9;c-3.12,0.28-6.36,0.42-9.76,0.42c-10.18,0-16.96-1.7-20.36-5.09c-3.39-3.39-5.09-10.18-5.09-20.36V1016.2h44.11v-40.29h-44.11&#10;&#9;&#9;&#9;v-75.5h-60.23v75.5h-36.47l14.54,40.29h21.93v129.36c0,11.03,1.84,19.93,5.51,26.72c3.67,6.79,8.69,12.02,15.06,15.69&#10;&#9;&#9;&#9;c6.36,3.68,13.71,6.15,22.05,7.42c8.34,1.27,17.18,1.91,26.51,1.91c5.94,0,12.02-0.15,18.24-0.43c6.22-0.28,11.87-0.85,16.97-1.7&#10;&#9;&#9;&#9;h171.72l16.38-45.38h-116.3l114.09-128.51V975.91z" class="st1"/>
		<path d="M899.55,902.36l-60.23,37.35v36.19h-36.87l20.57,40.29h16.29v129.36c0,11.03,1.84,19.93,5.51,26.72&#10;&#9;&#9;&#9;c3.67,6.79,8.7,12.02,15.06,15.69c6.36,3.68,13.71,6.15,22.05,7.42c8.34,1.27,17.18,1.91,26.51,1.91c5.94,0,12.02-0.15,18.24-0.43&#10;&#9;&#9;&#9;c6.22-0.28,11.87-0.85,16.96-1.7v-1.52l-13.28-43.56c-1.75,0.08-3.54,0.13-5.38,0.13c-10.18,0-16.97-1.7-20.36-5.09&#10;&#9;&#9;&#9;c-3.39-3.39-5.09-10.18-5.09-20.36V1016.2h44.11v-40.29h-44.11V902.36z" class="st1"/>
	</g>
	<path d="M703,1179.7c-1.56-6.08-2.69-12.51-3.4-19.3c-0.71-6.78-1.2-13.43-1.48-19.93c-0.29-6.5-0.57-12.15-0.85-16.97&#10;&#9;&#9;c-0.57-7.63-1.63-15.27-3.18-22.9c-1.56-7.64-4.03-14.63-7.42-20.99c-3.39-6.36-7.78-11.88-13.15-16.54&#10;&#9;&#9;c-5.37-4.66-12.16-8.12-20.36-10.39v-0.85c16.96-6.79,29.19-16.68,36.68-29.69c7.49-13,11.24-28.42,11.24-46.23&#10;&#9;&#9;c0-11.59-2.06-22.41-6.15-32.45c-4.1-10.03-10.04-18.87-17.81-26.51c-7.78-7.63-17.11-13.64-27.99-18.02&#10;&#9;&#9;c-10.89-4.38-23.12-6.57-36.69-6.57H476.11l-27.02,0.22l0.07,302.61h66.59v-118.33h66.59c16.68,0,28.7,3.68,36.05,11.03&#10;&#9;&#9;c7.35,7.36,12.16,18.95,14.42,34.78c1.7,12.16,2.97,24.88,3.82,38.17c0.85,13.29,3.11,24.75,6.79,34.36h66.59&#10;&#9;&#9;C706.88,1190.94,704.55,1185.79,703,1179.7z M623.05,1019.17c-7.64,6.79-19.09,10.18-34.36,10.18h-72.95V944.1h72.95&#10;&#9;&#9;c15.27,0,26.72,3.33,34.36,9.97c7.63,6.65,11.45,17.32,11.45,32.02C634.5,1001.36,630.68,1012.39,623.05,1019.17z" class="st1"/>
</g>
<path d="M341.38,975.35l11.31-18.18c1.26-2.02,1.92-4.36,1.92-6.74v-0.65c0-3.82-1.71-7.43-4.66-9.86l-56.35-46.27h14.8&#10;&#9;c6.4,0,11.99-4.93,12.18-11.33c0.2-6.62-5.11-12.05-11.69-12.05h-18.48c0.02-0.01,0.03-0.03,0.05-0.04h-4.95&#10;&#9;c9.66-7.1,15.91-18.57,15.7-31.53c-0.32-19.82-16.12-36.44-35.91-37.66c-22.29-1.38-40.81,16.29-40.81,38.29&#10;&#9;c0,12.7,6.2,23.92,15.7,30.91h-7.09c0.02,0.01,0.03,0.03,0.05,0.04h-17.99c-6.4,0-11.99,4.93-12.18,11.33&#10;&#9;c-0.2,6.62,5.11,12.05,11.69,12.05h15.29l-54.31,45.65c-0.95,0.8-1.82,1.71-2.48,2.76c-2.85,4.49-2.65,9.87-0.03,13.93l11.12,17.23&#10;&#9;c0.87,1.34,1.33,2.9,1.33,4.5v183.1c0,1.64-0.48,3.24-1.39,4.6l-10.74,16.11c-1.59,2.39-1.28,5.58,0.75,7.61l4.44,4.44&#10;&#9;c1.13,1.13,2.66,1.77,4.26,1.77h159.92c1.6,0,3.13-0.64,4.27-1.77l4.44-4.44c2.03-2.03,2.35-5.22,0.75-7.61l-10.74-16.11&#10;&#9;c-0.91-1.36-1.39-2.96-1.39-4.6V979.73C340.13,978.19,340.57,976.67,341.38,975.35z M288.48,983.17c8.47,4.1,11.37,12.97,6.53,19.96&#10;&#9;l-23.78,34.36c-3.68,5.32-13.07,5.32-16.75,0l-23.78-34.36c-4.84-6.99-1.94-15.86,6.53-19.96c7.5-3.63,16.27-5.72,25.63-5.72&#10;&#9;C272.21,977.45,280.97,979.54,288.48,983.17z M247.35,1071.98l-29.83,43.11c-1.34,1.94-4.98,1.16-4.98-1.07v-66.32&#10;&#9;c0-0.95,0.04-15.73,0.12-25.31c0.02-2.22,3.64-2.98,4.98-1.05l29.71,42.93C249,1066.67,249,1069.59,247.35,1071.98z M262.85,824.94&#10;&#9;c7.94,0,14.38,6.44,14.38,14.38c0,7.94-6.44,14.38-14.38,14.38s-14.38-6.44-14.38-14.38C248.47,831.38,254.91,824.94,262.85,824.94z&#10;&#9; M296.22,1141.48h-66.74c-2.04,0-3.32-1.79-2.32-3.23l27.31-39.46c3.68-5.32,13.07-5.32,16.75,0l27.31,39.46&#10;&#9;C299.54,1139.69,298.26,1141.48,296.22,1141.48z M313.16,1114.03c0,2.23-3.63,3.01-4.98,1.07l-29.83-43.11&#10;&#9;c-1.65-2.39-1.65-5.31,0-7.7l29.74-42.97c1.34-1.93,4.95-1.17,4.98,1.05c0.06,6.33,0.09,14.21,0.09,15.06V1114.03z" class="st1"/>
</svg>